%TF.GenerationSoftware,KiCad,Pcbnew,4.0.7-e2-6376~58~ubuntu16.04.1*%
%TF.CreationDate,2018-01-20T15:53:18+01:00*%
%TF.ProjectId,MotorController,4D6F746F72436F6E74726F6C6C65722E,rev?*%
%TF.FileFunction,Copper,L2,Bot,Signal*%
%FSLAX46Y46*%
G04 Gerber Fmt 4.6, Leading zero omitted, Abs format (unit mm)*
G04 Created by KiCad (PCBNEW 4.0.7-e2-6376~58~ubuntu16.04.1) date Sat Jan 20 15:53:18 2018*
%MOMM*%
%LPD*%
G01*
G04 APERTURE LIST*
%ADD10C,0.100000*%
%ADD11R,1.700000X1.200000*%
%ADD12O,1.700000X1.200000*%
%ADD13R,1.700000X1.700000*%
%ADD14O,1.700000X1.700000*%
%ADD15C,0.685800*%
%ADD16C,0.600000*%
%ADD17C,0.254000*%
G04 APERTURE END LIST*
D10*
D11*
X27305000Y-13970000D03*
D12*
X27305000Y-11970000D03*
D11*
X27305000Y-5715000D03*
D12*
X27305000Y-3715000D03*
D13*
X2540000Y-2540000D03*
D14*
X2540000Y-5080000D03*
X2540000Y-7620000D03*
X2540000Y-10160000D03*
X2540000Y-12700000D03*
X2540000Y-15240000D03*
D15*
X13970000Y-15240000D03*
X13970000Y-12700000D03*
X13970000Y-6350000D03*
X13970000Y-3810000D03*
X13970000Y-13970000D03*
X13970000Y-11430000D03*
X13970000Y-5080000D03*
X13970000Y-2540000D03*
X3810000Y-11430000D03*
X15240000Y-13335000D03*
X15240000Y-4445000D03*
X9956800Y-16357600D03*
X15240000Y-1270000D03*
X9525000Y-1905000D03*
X22860000Y-5080000D03*
X22860000Y-12700000D03*
D16*
X4445000Y-9525000D02*
X2540000Y-7620000D01*
X4445000Y-10795000D02*
X4445000Y-9525000D01*
X3810000Y-11430000D02*
X4445000Y-10795000D01*
X13970000Y-7620000D02*
X15240000Y-8890000D01*
X15240000Y-8890000D02*
X15240000Y-13335000D01*
X2540000Y-7620000D02*
X13970000Y-7620000D01*
X15240000Y-6350000D02*
X15240000Y-4445000D01*
X13970000Y-7620000D02*
X15240000Y-6350000D01*
X13970000Y-1270000D02*
X15240000Y-1270000D01*
X10160000Y-1270000D02*
X13970000Y-1270000D01*
X9525000Y-1905000D02*
X10160000Y-1270000D01*
X27305000Y-3715000D02*
X24225000Y-3715000D01*
X24225000Y-3715000D02*
X22860000Y-5080000D01*
X24130000Y-13970000D02*
X27305000Y-13970000D01*
X22860000Y-12700000D02*
X24130000Y-13970000D01*
D17*
G36*
X28634989Y-862152D02*
X29224170Y-1255830D01*
X29617848Y-1845011D01*
X29770000Y-2609931D01*
X29770000Y-15170069D01*
X29617848Y-15934989D01*
X29224170Y-16524170D01*
X28634989Y-16917848D01*
X27870069Y-17070000D01*
X2609931Y-17070000D01*
X1845011Y-16917848D01*
X1255830Y-16524170D01*
X862152Y-15934989D01*
X710000Y-15170069D01*
X710000Y-2609931D01*
X862152Y-1845011D01*
X1075972Y-1525007D01*
X1042560Y-1690000D01*
X1042560Y-3390000D01*
X1086838Y-3625317D01*
X1225910Y-3841441D01*
X1438110Y-3986431D01*
X1505541Y-4000086D01*
X1460853Y-4029946D01*
X1138946Y-4511715D01*
X1025907Y-5080000D01*
X1138946Y-5648285D01*
X1460853Y-6130054D01*
X1790026Y-6350000D01*
X1460853Y-6569946D01*
X1138946Y-7051715D01*
X1025907Y-7620000D01*
X1138946Y-8188285D01*
X1460853Y-8670054D01*
X1801553Y-8897702D01*
X1658642Y-8964817D01*
X1268355Y-9393076D01*
X1098524Y-9803110D01*
X1219845Y-10033000D01*
X2413000Y-10033000D01*
X2413000Y-10013000D01*
X2667000Y-10013000D01*
X2667000Y-10033000D01*
X2687000Y-10033000D01*
X2687000Y-10287000D01*
X2667000Y-10287000D01*
X2667000Y-10307000D01*
X2413000Y-10307000D01*
X2413000Y-10287000D01*
X1219845Y-10287000D01*
X1098524Y-10516890D01*
X1268355Y-10926924D01*
X1658642Y-11355183D01*
X1801553Y-11422298D01*
X1460853Y-11649946D01*
X1138946Y-12131715D01*
X1025907Y-12700000D01*
X1138946Y-13268285D01*
X1460853Y-13750054D01*
X1790026Y-13970000D01*
X1460853Y-14189946D01*
X1138946Y-14671715D01*
X1025907Y-15240000D01*
X1138946Y-15808285D01*
X1460853Y-16290054D01*
X1942622Y-16611961D01*
X2510907Y-16725000D01*
X2569093Y-16725000D01*
X3137378Y-16611961D01*
X3619147Y-16290054D01*
X3941054Y-15808285D01*
X4054093Y-15240000D01*
X3941054Y-14671715D01*
X3619147Y-14189946D01*
X3289974Y-13970000D01*
X3619147Y-13750054D01*
X3941054Y-13268285D01*
X4054093Y-12700000D01*
X3996023Y-12408062D01*
X4003663Y-12408069D01*
X4363212Y-12259507D01*
X4638540Y-11984659D01*
X4681791Y-11880499D01*
X5106145Y-11456145D01*
X5191742Y-11328039D01*
X5308827Y-11152809D01*
X5380000Y-10795000D01*
X5380000Y-9525000D01*
X5308827Y-9167191D01*
X5106145Y-8863855D01*
X4797290Y-8555000D01*
X13582710Y-8555000D01*
X14305000Y-9277290D01*
X14305000Y-10510250D01*
X14165370Y-10452270D01*
X13776337Y-10451931D01*
X13416788Y-10600493D01*
X13141460Y-10875341D01*
X12992270Y-11234630D01*
X12991931Y-11623663D01*
X13140493Y-11983212D01*
X13222040Y-12064901D01*
X13141460Y-12145341D01*
X12992270Y-12504630D01*
X12991931Y-12893663D01*
X13140493Y-13253212D01*
X13222040Y-13334901D01*
X13141460Y-13415341D01*
X12992270Y-13774630D01*
X12991931Y-14163663D01*
X13140493Y-14523212D01*
X13222040Y-14604901D01*
X13141460Y-14685341D01*
X12992270Y-15044630D01*
X12991931Y-15433663D01*
X13140493Y-15793212D01*
X13415341Y-16068540D01*
X13774630Y-16217730D01*
X14163663Y-16218069D01*
X14523212Y-16069507D01*
X14798540Y-15794659D01*
X14947730Y-15435370D01*
X14948069Y-15046337D01*
X14799507Y-14686788D01*
X14717960Y-14605099D01*
X14798540Y-14524659D01*
X14909790Y-14256739D01*
X15044630Y-14312730D01*
X15433663Y-14313069D01*
X15793212Y-14164507D01*
X16068540Y-13889659D01*
X16217730Y-13530370D01*
X16218069Y-13141337D01*
X16175000Y-13037102D01*
X16175000Y-12893663D01*
X21881931Y-12893663D01*
X22030493Y-13253212D01*
X22305341Y-13528540D01*
X22409501Y-13571791D01*
X23468855Y-14631145D01*
X23772191Y-14833827D01*
X24130000Y-14905000D01*
X25915982Y-14905000D01*
X25990910Y-15021441D01*
X26203110Y-15166431D01*
X26455000Y-15217440D01*
X28155000Y-15217440D01*
X28390317Y-15173162D01*
X28606441Y-15034090D01*
X28751431Y-14821890D01*
X28802440Y-14570000D01*
X28802440Y-13370000D01*
X28758162Y-13134683D01*
X28619090Y-12918559D01*
X28473525Y-12819099D01*
X28725084Y-12442614D01*
X28819093Y-11970000D01*
X28725084Y-11497386D01*
X28457370Y-11096723D01*
X28056707Y-10829009D01*
X27584093Y-10735000D01*
X27025907Y-10735000D01*
X26553293Y-10829009D01*
X26152630Y-11096723D01*
X25884916Y-11497386D01*
X25790907Y-11970000D01*
X25884916Y-12442614D01*
X26137074Y-12819996D01*
X26003559Y-12905910D01*
X25915356Y-13035000D01*
X24517290Y-13035000D01*
X23732057Y-12249767D01*
X23689507Y-12146788D01*
X23414659Y-11871460D01*
X23055370Y-11722270D01*
X22666337Y-11721931D01*
X22306788Y-11870493D01*
X22031460Y-12145341D01*
X21882270Y-12504630D01*
X21881931Y-12893663D01*
X16175000Y-12893663D01*
X16175000Y-9332619D01*
X19989613Y-9332619D01*
X20329155Y-10154372D01*
X20957321Y-10783636D01*
X21778481Y-11124611D01*
X22667619Y-11125387D01*
X23489372Y-10785845D01*
X24118636Y-10157679D01*
X24459611Y-9336519D01*
X24460387Y-8447381D01*
X24120845Y-7625628D01*
X23492679Y-6996364D01*
X22671519Y-6655389D01*
X21782381Y-6654613D01*
X20960628Y-6994155D01*
X20331364Y-7622321D01*
X19990389Y-8443481D01*
X19989613Y-9332619D01*
X16175000Y-9332619D01*
X16175000Y-8890000D01*
X16103827Y-8532191D01*
X15901145Y-8228855D01*
X15292290Y-7620000D01*
X15901145Y-7011145D01*
X16103827Y-6707809D01*
X16175000Y-6350000D01*
X16175000Y-5273663D01*
X21881931Y-5273663D01*
X22030493Y-5633212D01*
X22305341Y-5908540D01*
X22664630Y-6057730D01*
X23053663Y-6058069D01*
X23413212Y-5909507D01*
X23688540Y-5634659D01*
X23731791Y-5530499D01*
X24612289Y-4650000D01*
X26004973Y-4650000D01*
X26003559Y-4650910D01*
X25858569Y-4863110D01*
X25807560Y-5115000D01*
X25807560Y-6315000D01*
X25851838Y-6550317D01*
X25990910Y-6766441D01*
X26203110Y-6911431D01*
X26455000Y-6962440D01*
X28155000Y-6962440D01*
X28390317Y-6918162D01*
X28606441Y-6779090D01*
X28751431Y-6566890D01*
X28802440Y-6315000D01*
X28802440Y-5115000D01*
X28758162Y-4879683D01*
X28619090Y-4663559D01*
X28473525Y-4564099D01*
X28725084Y-4187614D01*
X28819093Y-3715000D01*
X28725084Y-3242386D01*
X28457370Y-2841723D01*
X28056707Y-2574009D01*
X27584093Y-2480000D01*
X27025907Y-2480000D01*
X26553293Y-2574009D01*
X26245005Y-2780000D01*
X24225005Y-2780000D01*
X24225000Y-2779999D01*
X23962222Y-2832270D01*
X23867191Y-2851173D01*
X23563855Y-3053855D01*
X23563853Y-3053858D01*
X22409767Y-4207943D01*
X22306788Y-4250493D01*
X22031460Y-4525341D01*
X21882270Y-4884630D01*
X21881931Y-5273663D01*
X16175000Y-5273663D01*
X16175000Y-4743275D01*
X16217730Y-4640370D01*
X16218069Y-4251337D01*
X16069507Y-3891788D01*
X15794659Y-3616460D01*
X15435370Y-3467270D01*
X15046337Y-3466931D01*
X14909669Y-3523401D01*
X14799507Y-3256788D01*
X14717960Y-3175099D01*
X14798540Y-3094659D01*
X14947730Y-2735370D01*
X14948069Y-2346337D01*
X14799507Y-1986788D01*
X14524659Y-1711460D01*
X14165370Y-1562270D01*
X13776337Y-1561931D01*
X13416788Y-1710493D01*
X13141460Y-1985341D01*
X12992270Y-2344630D01*
X12991931Y-2733663D01*
X13140493Y-3093212D01*
X13222040Y-3174901D01*
X13141460Y-3255341D01*
X12992270Y-3614630D01*
X12991931Y-4003663D01*
X13140493Y-4363212D01*
X13222040Y-4444901D01*
X13141460Y-4525341D01*
X12992270Y-4884630D01*
X12991931Y-5273663D01*
X13140493Y-5633212D01*
X13222040Y-5714901D01*
X13141460Y-5795341D01*
X12992270Y-6154630D01*
X12991931Y-6543663D01*
X13050330Y-6685000D01*
X3696023Y-6685000D01*
X3619147Y-6569946D01*
X3289974Y-6350000D01*
X3619147Y-6130054D01*
X3941054Y-5648285D01*
X4054093Y-5080000D01*
X3941054Y-4511715D01*
X3619147Y-4029946D01*
X3577548Y-4002150D01*
X3625317Y-3993162D01*
X3841441Y-3854090D01*
X3986431Y-3641890D01*
X4037440Y-3390000D01*
X4037440Y-1690000D01*
X3993162Y-1454683D01*
X3854090Y-1238559D01*
X3641890Y-1093569D01*
X3390000Y-1042560D01*
X1690000Y-1042560D01*
X1529937Y-1072678D01*
X1845011Y-862152D01*
X2609931Y-710000D01*
X27870069Y-710000D01*
X28634989Y-862152D01*
X28634989Y-862152D01*
G37*
X28634989Y-862152D02*
X29224170Y-1255830D01*
X29617848Y-1845011D01*
X29770000Y-2609931D01*
X29770000Y-15170069D01*
X29617848Y-15934989D01*
X29224170Y-16524170D01*
X28634989Y-16917848D01*
X27870069Y-17070000D01*
X2609931Y-17070000D01*
X1845011Y-16917848D01*
X1255830Y-16524170D01*
X862152Y-15934989D01*
X710000Y-15170069D01*
X710000Y-2609931D01*
X862152Y-1845011D01*
X1075972Y-1525007D01*
X1042560Y-1690000D01*
X1042560Y-3390000D01*
X1086838Y-3625317D01*
X1225910Y-3841441D01*
X1438110Y-3986431D01*
X1505541Y-4000086D01*
X1460853Y-4029946D01*
X1138946Y-4511715D01*
X1025907Y-5080000D01*
X1138946Y-5648285D01*
X1460853Y-6130054D01*
X1790026Y-6350000D01*
X1460853Y-6569946D01*
X1138946Y-7051715D01*
X1025907Y-7620000D01*
X1138946Y-8188285D01*
X1460853Y-8670054D01*
X1801553Y-8897702D01*
X1658642Y-8964817D01*
X1268355Y-9393076D01*
X1098524Y-9803110D01*
X1219845Y-10033000D01*
X2413000Y-10033000D01*
X2413000Y-10013000D01*
X2667000Y-10013000D01*
X2667000Y-10033000D01*
X2687000Y-10033000D01*
X2687000Y-10287000D01*
X2667000Y-10287000D01*
X2667000Y-10307000D01*
X2413000Y-10307000D01*
X2413000Y-10287000D01*
X1219845Y-10287000D01*
X1098524Y-10516890D01*
X1268355Y-10926924D01*
X1658642Y-11355183D01*
X1801553Y-11422298D01*
X1460853Y-11649946D01*
X1138946Y-12131715D01*
X1025907Y-12700000D01*
X1138946Y-13268285D01*
X1460853Y-13750054D01*
X1790026Y-13970000D01*
X1460853Y-14189946D01*
X1138946Y-14671715D01*
X1025907Y-15240000D01*
X1138946Y-15808285D01*
X1460853Y-16290054D01*
X1942622Y-16611961D01*
X2510907Y-16725000D01*
X2569093Y-16725000D01*
X3137378Y-16611961D01*
X3619147Y-16290054D01*
X3941054Y-15808285D01*
X4054093Y-15240000D01*
X3941054Y-14671715D01*
X3619147Y-14189946D01*
X3289974Y-13970000D01*
X3619147Y-13750054D01*
X3941054Y-13268285D01*
X4054093Y-12700000D01*
X3996023Y-12408062D01*
X4003663Y-12408069D01*
X4363212Y-12259507D01*
X4638540Y-11984659D01*
X4681791Y-11880499D01*
X5106145Y-11456145D01*
X5191742Y-11328039D01*
X5308827Y-11152809D01*
X5380000Y-10795000D01*
X5380000Y-9525000D01*
X5308827Y-9167191D01*
X5106145Y-8863855D01*
X4797290Y-8555000D01*
X13582710Y-8555000D01*
X14305000Y-9277290D01*
X14305000Y-10510250D01*
X14165370Y-10452270D01*
X13776337Y-10451931D01*
X13416788Y-10600493D01*
X13141460Y-10875341D01*
X12992270Y-11234630D01*
X12991931Y-11623663D01*
X13140493Y-11983212D01*
X13222040Y-12064901D01*
X13141460Y-12145341D01*
X12992270Y-12504630D01*
X12991931Y-12893663D01*
X13140493Y-13253212D01*
X13222040Y-13334901D01*
X13141460Y-13415341D01*
X12992270Y-13774630D01*
X12991931Y-14163663D01*
X13140493Y-14523212D01*
X13222040Y-14604901D01*
X13141460Y-14685341D01*
X12992270Y-15044630D01*
X12991931Y-15433663D01*
X13140493Y-15793212D01*
X13415341Y-16068540D01*
X13774630Y-16217730D01*
X14163663Y-16218069D01*
X14523212Y-16069507D01*
X14798540Y-15794659D01*
X14947730Y-15435370D01*
X14948069Y-15046337D01*
X14799507Y-14686788D01*
X14717960Y-14605099D01*
X14798540Y-14524659D01*
X14909790Y-14256739D01*
X15044630Y-14312730D01*
X15433663Y-14313069D01*
X15793212Y-14164507D01*
X16068540Y-13889659D01*
X16217730Y-13530370D01*
X16218069Y-13141337D01*
X16175000Y-13037102D01*
X16175000Y-12893663D01*
X21881931Y-12893663D01*
X22030493Y-13253212D01*
X22305341Y-13528540D01*
X22409501Y-13571791D01*
X23468855Y-14631145D01*
X23772191Y-14833827D01*
X24130000Y-14905000D01*
X25915982Y-14905000D01*
X25990910Y-15021441D01*
X26203110Y-15166431D01*
X26455000Y-15217440D01*
X28155000Y-15217440D01*
X28390317Y-15173162D01*
X28606441Y-15034090D01*
X28751431Y-14821890D01*
X28802440Y-14570000D01*
X28802440Y-13370000D01*
X28758162Y-13134683D01*
X28619090Y-12918559D01*
X28473525Y-12819099D01*
X28725084Y-12442614D01*
X28819093Y-11970000D01*
X28725084Y-11497386D01*
X28457370Y-11096723D01*
X28056707Y-10829009D01*
X27584093Y-10735000D01*
X27025907Y-10735000D01*
X26553293Y-10829009D01*
X26152630Y-11096723D01*
X25884916Y-11497386D01*
X25790907Y-11970000D01*
X25884916Y-12442614D01*
X26137074Y-12819996D01*
X26003559Y-12905910D01*
X25915356Y-13035000D01*
X24517290Y-13035000D01*
X23732057Y-12249767D01*
X23689507Y-12146788D01*
X23414659Y-11871460D01*
X23055370Y-11722270D01*
X22666337Y-11721931D01*
X22306788Y-11870493D01*
X22031460Y-12145341D01*
X21882270Y-12504630D01*
X21881931Y-12893663D01*
X16175000Y-12893663D01*
X16175000Y-9332619D01*
X19989613Y-9332619D01*
X20329155Y-10154372D01*
X20957321Y-10783636D01*
X21778481Y-11124611D01*
X22667619Y-11125387D01*
X23489372Y-10785845D01*
X24118636Y-10157679D01*
X24459611Y-9336519D01*
X24460387Y-8447381D01*
X24120845Y-7625628D01*
X23492679Y-6996364D01*
X22671519Y-6655389D01*
X21782381Y-6654613D01*
X20960628Y-6994155D01*
X20331364Y-7622321D01*
X19990389Y-8443481D01*
X19989613Y-9332619D01*
X16175000Y-9332619D01*
X16175000Y-8890000D01*
X16103827Y-8532191D01*
X15901145Y-8228855D01*
X15292290Y-7620000D01*
X15901145Y-7011145D01*
X16103827Y-6707809D01*
X16175000Y-6350000D01*
X16175000Y-5273663D01*
X21881931Y-5273663D01*
X22030493Y-5633212D01*
X22305341Y-5908540D01*
X22664630Y-6057730D01*
X23053663Y-6058069D01*
X23413212Y-5909507D01*
X23688540Y-5634659D01*
X23731791Y-5530499D01*
X24612289Y-4650000D01*
X26004973Y-4650000D01*
X26003559Y-4650910D01*
X25858569Y-4863110D01*
X25807560Y-5115000D01*
X25807560Y-6315000D01*
X25851838Y-6550317D01*
X25990910Y-6766441D01*
X26203110Y-6911431D01*
X26455000Y-6962440D01*
X28155000Y-6962440D01*
X28390317Y-6918162D01*
X28606441Y-6779090D01*
X28751431Y-6566890D01*
X28802440Y-6315000D01*
X28802440Y-5115000D01*
X28758162Y-4879683D01*
X28619090Y-4663559D01*
X28473525Y-4564099D01*
X28725084Y-4187614D01*
X28819093Y-3715000D01*
X28725084Y-3242386D01*
X28457370Y-2841723D01*
X28056707Y-2574009D01*
X27584093Y-2480000D01*
X27025907Y-2480000D01*
X26553293Y-2574009D01*
X26245005Y-2780000D01*
X24225005Y-2780000D01*
X24225000Y-2779999D01*
X23962222Y-2832270D01*
X23867191Y-2851173D01*
X23563855Y-3053855D01*
X23563853Y-3053858D01*
X22409767Y-4207943D01*
X22306788Y-4250493D01*
X22031460Y-4525341D01*
X21882270Y-4884630D01*
X21881931Y-5273663D01*
X16175000Y-5273663D01*
X16175000Y-4743275D01*
X16217730Y-4640370D01*
X16218069Y-4251337D01*
X16069507Y-3891788D01*
X15794659Y-3616460D01*
X15435370Y-3467270D01*
X15046337Y-3466931D01*
X14909669Y-3523401D01*
X14799507Y-3256788D01*
X14717960Y-3175099D01*
X14798540Y-3094659D01*
X14947730Y-2735370D01*
X14948069Y-2346337D01*
X14799507Y-1986788D01*
X14524659Y-1711460D01*
X14165370Y-1562270D01*
X13776337Y-1561931D01*
X13416788Y-1710493D01*
X13141460Y-1985341D01*
X12992270Y-2344630D01*
X12991931Y-2733663D01*
X13140493Y-3093212D01*
X13222040Y-3174901D01*
X13141460Y-3255341D01*
X12992270Y-3614630D01*
X12991931Y-4003663D01*
X13140493Y-4363212D01*
X13222040Y-4444901D01*
X13141460Y-4525341D01*
X12992270Y-4884630D01*
X12991931Y-5273663D01*
X13140493Y-5633212D01*
X13222040Y-5714901D01*
X13141460Y-5795341D01*
X12992270Y-6154630D01*
X12991931Y-6543663D01*
X13050330Y-6685000D01*
X3696023Y-6685000D01*
X3619147Y-6569946D01*
X3289974Y-6350000D01*
X3619147Y-6130054D01*
X3941054Y-5648285D01*
X4054093Y-5080000D01*
X3941054Y-4511715D01*
X3619147Y-4029946D01*
X3577548Y-4002150D01*
X3625317Y-3993162D01*
X3841441Y-3854090D01*
X3986431Y-3641890D01*
X4037440Y-3390000D01*
X4037440Y-1690000D01*
X3993162Y-1454683D01*
X3854090Y-1238559D01*
X3641890Y-1093569D01*
X3390000Y-1042560D01*
X1690000Y-1042560D01*
X1529937Y-1072678D01*
X1845011Y-862152D01*
X2609931Y-710000D01*
X27870069Y-710000D01*
X28634989Y-862152D01*
M02*
