G04 #@! TF.FileFunction,Legend,Top*
%FSLAX46Y46*%
G04 Gerber Fmt 4.6, Leading zero omitted, Abs format (unit mm)*
G04 Created by KiCad (PCBNEW 4.0.6-e0-6349~53~ubuntu16.04.1) date Fri Apr 14 17:40:12 2017*
%MOMM*%
%LPD*%
G01*
G04 APERTURE LIST*
%ADD10C,0.100000*%
%ADD11C,0.150000*%
%ADD12C,0.120000*%
G04 APERTURE END LIST*
D10*
D11*
X186371667Y-95228332D02*
X185671667Y-95228332D01*
X186171667Y-94994999D01*
X185671667Y-94761666D01*
X186371667Y-94761666D01*
X186371667Y-94328332D02*
X186338333Y-94394999D01*
X186305000Y-94428332D01*
X186238333Y-94461666D01*
X186038333Y-94461666D01*
X185971667Y-94428332D01*
X185938333Y-94394999D01*
X185905000Y-94328332D01*
X185905000Y-94228332D01*
X185938333Y-94161666D01*
X185971667Y-94128332D01*
X186038333Y-94094999D01*
X186238333Y-94094999D01*
X186305000Y-94128332D01*
X186338333Y-94161666D01*
X186371667Y-94228332D01*
X186371667Y-94328332D01*
X185905000Y-93894999D02*
X185905000Y-93628333D01*
X185671667Y-93794999D02*
X186271667Y-93794999D01*
X186338333Y-93761666D01*
X186371667Y-93694999D01*
X186371667Y-93628333D01*
X186371667Y-93294999D02*
X186338333Y-93361666D01*
X186305000Y-93394999D01*
X186238333Y-93428333D01*
X186038333Y-93428333D01*
X185971667Y-93394999D01*
X185938333Y-93361666D01*
X185905000Y-93294999D01*
X185905000Y-93194999D01*
X185938333Y-93128333D01*
X185971667Y-93094999D01*
X186038333Y-93061666D01*
X186238333Y-93061666D01*
X186305000Y-93094999D01*
X186338333Y-93128333D01*
X186371667Y-93194999D01*
X186371667Y-93294999D01*
X186371667Y-92761666D02*
X185905000Y-92761666D01*
X186038333Y-92761666D02*
X185971667Y-92728333D01*
X185938333Y-92695000D01*
X185905000Y-92628333D01*
X185905000Y-92561666D01*
X185738333Y-91828334D02*
X185705000Y-91795000D01*
X185671667Y-91728334D01*
X185671667Y-91561667D01*
X185705000Y-91495000D01*
X185738333Y-91461667D01*
X185805000Y-91428334D01*
X185871667Y-91428334D01*
X185971667Y-91461667D01*
X186371667Y-91861667D01*
X186371667Y-91428334D01*
X186371667Y-86338332D02*
X185671667Y-86338332D01*
X186171667Y-86104999D01*
X185671667Y-85871666D01*
X186371667Y-85871666D01*
X186371667Y-85438332D02*
X186338333Y-85504999D01*
X186305000Y-85538332D01*
X186238333Y-85571666D01*
X186038333Y-85571666D01*
X185971667Y-85538332D01*
X185938333Y-85504999D01*
X185905000Y-85438332D01*
X185905000Y-85338332D01*
X185938333Y-85271666D01*
X185971667Y-85238332D01*
X186038333Y-85204999D01*
X186238333Y-85204999D01*
X186305000Y-85238332D01*
X186338333Y-85271666D01*
X186371667Y-85338332D01*
X186371667Y-85438332D01*
X185905000Y-85004999D02*
X185905000Y-84738333D01*
X185671667Y-84904999D02*
X186271667Y-84904999D01*
X186338333Y-84871666D01*
X186371667Y-84804999D01*
X186371667Y-84738333D01*
X186371667Y-84404999D02*
X186338333Y-84471666D01*
X186305000Y-84504999D01*
X186238333Y-84538333D01*
X186038333Y-84538333D01*
X185971667Y-84504999D01*
X185938333Y-84471666D01*
X185905000Y-84404999D01*
X185905000Y-84304999D01*
X185938333Y-84238333D01*
X185971667Y-84204999D01*
X186038333Y-84171666D01*
X186238333Y-84171666D01*
X186305000Y-84204999D01*
X186338333Y-84238333D01*
X186371667Y-84304999D01*
X186371667Y-84404999D01*
X186371667Y-83871666D02*
X185905000Y-83871666D01*
X186038333Y-83871666D02*
X185971667Y-83838333D01*
X185938333Y-83805000D01*
X185905000Y-83738333D01*
X185905000Y-83671666D01*
X186371667Y-82538334D02*
X186371667Y-82938334D01*
X186371667Y-82738334D02*
X185671667Y-82738334D01*
X185771667Y-82805000D01*
X185838333Y-82871667D01*
X185871667Y-82938334D01*
D12*
X167855000Y-89400000D02*
X167855000Y-88400000D01*
X166155000Y-88400000D02*
X166155000Y-89400000D01*
X170395000Y-89400000D02*
X170395000Y-88400000D01*
X168695000Y-88400000D02*
X168695000Y-89400000D01*
X180760000Y-82685000D02*
X180760000Y-83685000D01*
X182460000Y-83685000D02*
X182460000Y-82685000D01*
X180760000Y-94115000D02*
X180760000Y-95115000D01*
X182460000Y-95115000D02*
X182460000Y-94115000D01*
X171555000Y-88200000D02*
X171555000Y-89600000D01*
X171555000Y-89600000D02*
X174355000Y-89600000D01*
X171555000Y-88200000D02*
X174355000Y-88200000D01*
X162440000Y-83820000D02*
X162440000Y-96640000D01*
X162440000Y-96640000D02*
X165220000Y-96640000D01*
X165220000Y-96640000D02*
X165220000Y-83820000D01*
X165220000Y-83820000D02*
X162440000Y-83820000D01*
X162440000Y-82550000D02*
X162440000Y-81160000D01*
X162440000Y-81160000D02*
X163830000Y-81160000D01*
D11*
X177200000Y-88025000D02*
X178400000Y-88025000D01*
X178400000Y-89775000D02*
X177200000Y-89775000D01*
X167880000Y-83220000D02*
X167880000Y-84420000D01*
X166130000Y-84420000D02*
X166130000Y-83220000D01*
X170420000Y-83220000D02*
X170420000Y-84420000D01*
X168670000Y-84420000D02*
X168670000Y-83220000D01*
X168670000Y-95215000D02*
X168670000Y-94015000D01*
X170420000Y-94015000D02*
X170420000Y-95215000D01*
X166130000Y-95215000D02*
X166130000Y-94015000D01*
X167880000Y-94015000D02*
X167880000Y-95215000D01*
X172974000Y-86995000D02*
X172974000Y-81915000D01*
X172974000Y-81915000D02*
X177546000Y-81915000D01*
X177546000Y-81915000D02*
X177546000Y-86995000D01*
X177546000Y-86995000D02*
X172974000Y-86995000D01*
X174498000Y-86995000D02*
X174498000Y-86487000D01*
X174498000Y-86487000D02*
X175768000Y-86487000D01*
X175768000Y-86487000D02*
X175768000Y-86995000D01*
X172974000Y-95885000D02*
X172974000Y-90805000D01*
X172974000Y-90805000D02*
X177546000Y-90805000D01*
X177546000Y-90805000D02*
X177546000Y-95885000D01*
X177546000Y-95885000D02*
X172974000Y-95885000D01*
X174498000Y-95885000D02*
X174498000Y-95377000D01*
X174498000Y-95377000D02*
X175768000Y-95377000D01*
X175768000Y-95377000D02*
X175768000Y-95885000D01*
M02*
