G04 #@! TF.FileFunction,Copper,L1,Top,Signal*
%FSLAX46Y46*%
G04 Gerber Fmt 4.6, Leading zero omitted, Abs format (unit mm)*
G04 Created by KiCad (PCBNEW 4.0.6-e0-6349~53~ubuntu16.04.1) date Fri Apr 14 17:40:12 2017*
%MOMM*%
%LPD*%
G01*
G04 APERTURE LIST*
%ADD10C,0.100000*%
%ADD11R,1.700000X1.200000*%
%ADD12O,1.700000X1.200000*%
%ADD13R,1.250000X1.500000*%
%ADD14R,1.200000X1.200000*%
%ADD15R,1.700000X1.700000*%
%ADD16O,1.700000X1.700000*%
%ADD17R,1.500000X1.300000*%
%ADD18R,1.300000X1.500000*%
%ADD19R,1.143000X0.508000*%
%ADD20C,0.685800*%
%ADD21C,0.600000*%
%ADD22C,0.250000*%
%ADD23C,0.400000*%
%ADD24C,0.254000*%
G04 APERTURE END LIST*
D10*
D11*
X188595000Y-93980000D03*
D12*
X188595000Y-91980000D03*
D11*
X188595000Y-85725000D03*
D12*
X188595000Y-83725000D03*
D13*
X167005000Y-87650000D03*
X167005000Y-90150000D03*
X169545000Y-87650000D03*
X169545000Y-90150000D03*
X181610000Y-84435000D03*
X181610000Y-81935000D03*
X181610000Y-95865000D03*
X181610000Y-93365000D03*
D14*
X174455000Y-88900000D03*
X172255000Y-88900000D03*
D15*
X163830000Y-82550000D03*
D16*
X163830000Y-85090000D03*
X163830000Y-87630000D03*
X163830000Y-90170000D03*
X163830000Y-92710000D03*
X163830000Y-95250000D03*
D17*
X179150000Y-88900000D03*
X176450000Y-88900000D03*
D18*
X167005000Y-85170000D03*
X167005000Y-82470000D03*
X169545000Y-85170000D03*
X169545000Y-82470000D03*
X169545000Y-93265000D03*
X169545000Y-95965000D03*
X167005000Y-93265000D03*
X167005000Y-95965000D03*
D19*
X172085000Y-86360000D03*
X172085000Y-85090000D03*
X172085000Y-83820000D03*
X172085000Y-82550000D03*
X178435000Y-82550000D03*
X178435000Y-83820000D03*
X178435000Y-85090000D03*
X178435000Y-86360000D03*
X172085000Y-95250000D03*
X172085000Y-93980000D03*
X172085000Y-92710000D03*
X172085000Y-91440000D03*
X178435000Y-91440000D03*
X178435000Y-92710000D03*
X178435000Y-93980000D03*
X178435000Y-95250000D03*
D20*
X175260000Y-95250000D03*
X175260000Y-92710000D03*
X175260000Y-86360000D03*
X175260000Y-83820000D03*
X175260000Y-93980000D03*
X175260000Y-91440000D03*
X175260000Y-85090000D03*
X175260000Y-82550000D03*
X165100000Y-91440000D03*
X176530000Y-93345000D03*
X176530000Y-84455000D03*
X171246800Y-96367600D03*
X176530000Y-81280000D03*
X170815000Y-81915000D03*
X184150000Y-85090000D03*
X184150000Y-92710000D03*
D21*
X167005000Y-93265000D02*
X166925000Y-93265000D01*
X166925000Y-93265000D02*
X165100000Y-91440000D01*
X176530000Y-93345000D02*
X177165000Y-93980000D01*
X177165000Y-83820000D02*
X178435000Y-83820000D01*
X176530000Y-84455000D02*
X177165000Y-83820000D01*
X167005000Y-85170000D02*
X169545000Y-85170000D01*
X169545000Y-87650000D02*
X169545000Y-85170000D01*
X167005000Y-87650000D02*
X167005000Y-85170000D01*
X167005000Y-93265000D02*
X169545000Y-93265000D01*
X163830000Y-87630000D02*
X166985000Y-87630000D01*
X166985000Y-87630000D02*
X167005000Y-87650000D01*
D22*
X179150000Y-88900000D02*
X179150000Y-89455000D01*
X179150000Y-89455000D02*
X178435000Y-90170000D01*
D21*
X178435000Y-83820000D02*
X178435000Y-85090000D01*
X177165000Y-93980000D02*
X178435000Y-93980000D01*
X178435000Y-92710000D02*
X178435000Y-93980000D01*
D22*
X177165000Y-92710000D02*
X178435000Y-92710000D01*
X178435000Y-90170000D02*
X177165000Y-90170000D01*
X177165000Y-90170000D02*
X176530000Y-90805000D01*
X176530000Y-90805000D02*
X176530000Y-92075000D01*
X176530000Y-92075000D02*
X177165000Y-92710000D01*
D23*
X172085000Y-95250000D02*
X172085000Y-95834200D01*
X171551600Y-96367600D02*
X171246800Y-96367600D01*
X172085000Y-95834200D02*
X171551600Y-96367600D01*
D21*
X172085000Y-82550000D02*
X171450000Y-82550000D01*
X171450000Y-82550000D02*
X170815000Y-81915000D01*
X167005000Y-90150000D02*
X169545000Y-90150000D01*
X169545000Y-90150000D02*
X170835000Y-91440000D01*
X170835000Y-91440000D02*
X172085000Y-91440000D01*
X163830000Y-90170000D02*
X166985000Y-90170000D01*
X166985000Y-90170000D02*
X167005000Y-90150000D01*
D22*
X172085000Y-86360000D02*
X172085000Y-88730000D01*
X172085000Y-88730000D02*
X172255000Y-88900000D01*
X172085000Y-91440000D02*
X172085000Y-89070000D01*
X172085000Y-89070000D02*
X172255000Y-88900000D01*
X172085000Y-91440000D02*
X170835000Y-91440000D01*
D21*
X183495000Y-84435000D02*
X181610000Y-84435000D01*
X184150000Y-85090000D02*
X183495000Y-84435000D01*
X178435000Y-86360000D02*
X180975000Y-86360000D01*
X181610000Y-85725000D02*
X181610000Y-84435000D01*
X180975000Y-86360000D02*
X181610000Y-85725000D01*
X181610000Y-81935000D02*
X182900000Y-81935000D01*
X186690000Y-85725000D02*
X188595000Y-85725000D01*
X182900000Y-81935000D02*
X186690000Y-85725000D01*
X178435000Y-82550000D02*
X179705000Y-82550000D01*
X180320000Y-81935000D02*
X181610000Y-81935000D01*
X179705000Y-82550000D02*
X180320000Y-81935000D01*
X178435000Y-95250000D02*
X179705000Y-95250000D01*
X180320000Y-95865000D02*
X181610000Y-95865000D01*
X179705000Y-95250000D02*
X180320000Y-95865000D01*
X181610000Y-95865000D02*
X182860000Y-95865000D01*
X186650000Y-92075000D02*
X188500000Y-92075000D01*
X182860000Y-95865000D02*
X186650000Y-92075000D01*
X188500000Y-92075000D02*
X188595000Y-91980000D01*
X181610000Y-93365000D02*
X183495000Y-93365000D01*
X183495000Y-93365000D02*
X184150000Y-92710000D01*
X178435000Y-91440000D02*
X180975000Y-91440000D01*
X181610000Y-92075000D02*
X181610000Y-93365000D01*
X180975000Y-91440000D02*
X181610000Y-92075000D01*
D22*
X174455000Y-88900000D02*
X176450000Y-88900000D01*
X167005000Y-82470000D02*
X167085000Y-82470000D01*
X167085000Y-82470000D02*
X168275000Y-81280000D01*
X173355000Y-85090000D02*
X172085000Y-85090000D01*
X173990000Y-84455000D02*
X173355000Y-85090000D01*
X173990000Y-82550000D02*
X173990000Y-84455000D01*
X172720000Y-81280000D02*
X173990000Y-82550000D01*
X168275000Y-81280000D02*
X172720000Y-81280000D01*
X163830000Y-82550000D02*
X166925000Y-82550000D01*
X166925000Y-82550000D02*
X167005000Y-82470000D01*
X172085000Y-83820000D02*
X171450000Y-83820000D01*
X171450000Y-83820000D02*
X170100000Y-82470000D01*
X170100000Y-82470000D02*
X169545000Y-82470000D01*
X163830000Y-85090000D02*
X164465000Y-85090000D01*
X164465000Y-85090000D02*
X165735000Y-83820000D01*
X165735000Y-83820000D02*
X168195000Y-83820000D01*
X168195000Y-83820000D02*
X169545000Y-82470000D01*
X169545000Y-95965000D02*
X169545000Y-95250000D01*
X169545000Y-95250000D02*
X170180000Y-94615000D01*
X171450000Y-93980000D02*
X172085000Y-93980000D01*
X170815000Y-94615000D02*
X171450000Y-93980000D01*
X170180000Y-94615000D02*
X170815000Y-94615000D01*
X163830000Y-92710000D02*
X165735000Y-94615000D01*
X168195000Y-94615000D02*
X169545000Y-95965000D01*
X165735000Y-94615000D02*
X168195000Y-94615000D01*
X163830000Y-95250000D02*
X165100000Y-95250000D01*
X165815000Y-95965000D02*
X167005000Y-95965000D01*
X165100000Y-95250000D02*
X165815000Y-95965000D01*
X167005000Y-95965000D02*
X167005000Y-95885000D01*
X167005000Y-95885000D02*
X168275000Y-97155000D01*
X168275000Y-97155000D02*
X172720000Y-97155000D01*
X172720000Y-97155000D02*
X173990000Y-95885000D01*
X173990000Y-95885000D02*
X173990000Y-93345000D01*
X173990000Y-93345000D02*
X173355000Y-92710000D01*
X173355000Y-92710000D02*
X172085000Y-92710000D01*
D24*
G36*
X189924989Y-80872152D02*
X190514170Y-81265830D01*
X190907848Y-81855011D01*
X191060000Y-82619931D01*
X191060000Y-95180069D01*
X190907848Y-95944989D01*
X190514170Y-96534170D01*
X189924989Y-96927848D01*
X189160069Y-97080000D01*
X182685027Y-97080000D01*
X182686441Y-97079090D01*
X182831431Y-96866890D01*
X182844977Y-96800000D01*
X182860000Y-96800000D01*
X183217809Y-96728827D01*
X183521145Y-96526145D01*
X187037290Y-93010000D01*
X187229270Y-93010000D01*
X187148569Y-93128110D01*
X187097560Y-93380000D01*
X187097560Y-94580000D01*
X187141838Y-94815317D01*
X187280910Y-95031441D01*
X187493110Y-95176431D01*
X187745000Y-95227440D01*
X189445000Y-95227440D01*
X189680317Y-95183162D01*
X189896441Y-95044090D01*
X190041431Y-94831890D01*
X190092440Y-94580000D01*
X190092440Y-93380000D01*
X190048162Y-93144683D01*
X189909090Y-92928559D01*
X189763525Y-92829099D01*
X190015084Y-92452614D01*
X190109093Y-91980000D01*
X190015084Y-91507386D01*
X189747370Y-91106723D01*
X189346707Y-90839009D01*
X188874093Y-90745000D01*
X188315907Y-90745000D01*
X187843293Y-90839009D01*
X187442630Y-91106723D01*
X187420395Y-91140000D01*
X186650000Y-91140000D01*
X186292191Y-91211173D01*
X185988855Y-91413855D01*
X185057402Y-92345308D01*
X184979507Y-92156788D01*
X184704659Y-91881460D01*
X184345370Y-91732270D01*
X183956337Y-91731931D01*
X183596788Y-91880493D01*
X183321460Y-92155341D01*
X183278209Y-92259501D01*
X183107710Y-92430000D01*
X182847630Y-92430000D01*
X182838162Y-92379683D01*
X182699090Y-92163559D01*
X182541150Y-92055643D01*
X182473827Y-91717191D01*
X182271145Y-91413855D01*
X181636145Y-90778855D01*
X181332809Y-90576173D01*
X180975000Y-90505000D01*
X179174802Y-90505000D01*
X179482362Y-90197440D01*
X179900000Y-90197440D01*
X180135317Y-90153162D01*
X180351441Y-90014090D01*
X180496431Y-89801890D01*
X180547440Y-89550000D01*
X180547440Y-89342619D01*
X181279613Y-89342619D01*
X181619155Y-90164372D01*
X182247321Y-90793636D01*
X183068481Y-91134611D01*
X183957619Y-91135387D01*
X184779372Y-90795845D01*
X185408636Y-90167679D01*
X185749611Y-89346519D01*
X185750387Y-88457381D01*
X185410845Y-87635628D01*
X184782679Y-87006364D01*
X183961519Y-86665389D01*
X183072381Y-86664613D01*
X182250628Y-87004155D01*
X181621364Y-87632321D01*
X181280389Y-88453481D01*
X181279613Y-89342619D01*
X180547440Y-89342619D01*
X180547440Y-88250000D01*
X180503162Y-88014683D01*
X180364090Y-87798559D01*
X180151890Y-87653569D01*
X179900000Y-87602560D01*
X178400000Y-87602560D01*
X178164683Y-87646838D01*
X177948559Y-87785910D01*
X177803569Y-87998110D01*
X177800919Y-88011197D01*
X177664090Y-87798559D01*
X177451890Y-87653569D01*
X177200000Y-87602560D01*
X175700000Y-87602560D01*
X175464683Y-87646838D01*
X175340661Y-87726644D01*
X175306890Y-87703569D01*
X175055000Y-87652560D01*
X173855000Y-87652560D01*
X173619683Y-87696838D01*
X173403559Y-87835910D01*
X173357031Y-87904006D01*
X173214698Y-87761673D01*
X172981309Y-87665000D01*
X172540750Y-87665000D01*
X172382000Y-87823750D01*
X172382000Y-88773000D01*
X172402000Y-88773000D01*
X172402000Y-89027000D01*
X172382000Y-89027000D01*
X172382000Y-89976250D01*
X172540750Y-90135000D01*
X172981309Y-90135000D01*
X173214698Y-90038327D01*
X173355936Y-89897090D01*
X173390910Y-89951441D01*
X173603110Y-90096431D01*
X173855000Y-90147440D01*
X175055000Y-90147440D01*
X175290317Y-90103162D01*
X175338967Y-90071857D01*
X175448110Y-90146431D01*
X175700000Y-90197440D01*
X176062758Y-90197440D01*
X175992599Y-90267599D01*
X175827852Y-90514161D01*
X175808968Y-90609097D01*
X175455370Y-90462270D01*
X175066337Y-90461931D01*
X174706788Y-90610493D01*
X174431460Y-90885341D01*
X174282270Y-91244630D01*
X174281931Y-91633663D01*
X174430493Y-91993212D01*
X174512040Y-92074901D01*
X174431460Y-92155341D01*
X174282270Y-92514630D01*
X174282228Y-92562426D01*
X173892401Y-92172599D01*
X173645839Y-92007852D01*
X173355000Y-91950000D01*
X173237780Y-91950000D01*
X173291500Y-91820309D01*
X173291500Y-91725750D01*
X173132750Y-91567000D01*
X172212000Y-91567000D01*
X172212000Y-91587000D01*
X171958000Y-91587000D01*
X171958000Y-91567000D01*
X171037250Y-91567000D01*
X170878500Y-91725750D01*
X170878500Y-91820309D01*
X170975173Y-92053698D01*
X171001709Y-92080235D01*
X170917069Y-92204110D01*
X170866060Y-92456000D01*
X170866060Y-92964000D01*
X170910338Y-93199317D01*
X171004666Y-93345907D01*
X170960442Y-93410631D01*
X170912599Y-93442599D01*
X170842440Y-93512758D01*
X170842440Y-92515000D01*
X170798162Y-92279683D01*
X170659090Y-92063559D01*
X170446890Y-91918569D01*
X170195000Y-91867560D01*
X168895000Y-91867560D01*
X168659683Y-91911838D01*
X168443559Y-92050910D01*
X168298569Y-92263110D01*
X168285023Y-92330000D01*
X168267630Y-92330000D01*
X168258162Y-92279683D01*
X168119090Y-92063559D01*
X167906890Y-91918569D01*
X167655000Y-91867560D01*
X166849850Y-91867560D01*
X166517290Y-91535000D01*
X166719250Y-91535000D01*
X166878000Y-91376250D01*
X166878000Y-90277000D01*
X167132000Y-90277000D01*
X167132000Y-91376250D01*
X167290750Y-91535000D01*
X167756310Y-91535000D01*
X167989699Y-91438327D01*
X168168327Y-91259698D01*
X168265000Y-91026309D01*
X168265000Y-90435750D01*
X168285000Y-90435750D01*
X168285000Y-91026309D01*
X168381673Y-91259698D01*
X168560301Y-91438327D01*
X168793690Y-91535000D01*
X169259250Y-91535000D01*
X169418000Y-91376250D01*
X169418000Y-90277000D01*
X169672000Y-90277000D01*
X169672000Y-91376250D01*
X169830750Y-91535000D01*
X170296310Y-91535000D01*
X170529699Y-91438327D01*
X170708327Y-91259698D01*
X170791172Y-91059691D01*
X170878500Y-91059691D01*
X170878500Y-91154250D01*
X171037250Y-91313000D01*
X171958000Y-91313000D01*
X171958000Y-90709750D01*
X172212000Y-90709750D01*
X172212000Y-91313000D01*
X173132750Y-91313000D01*
X173291500Y-91154250D01*
X173291500Y-91059691D01*
X173194827Y-90826302D01*
X173016199Y-90647673D01*
X172782810Y-90551000D01*
X172370750Y-90551000D01*
X172212000Y-90709750D01*
X171958000Y-90709750D01*
X171799250Y-90551000D01*
X171387190Y-90551000D01*
X171153801Y-90647673D01*
X170975173Y-90826302D01*
X170878500Y-91059691D01*
X170791172Y-91059691D01*
X170805000Y-91026309D01*
X170805000Y-90435750D01*
X170646250Y-90277000D01*
X169672000Y-90277000D01*
X169418000Y-90277000D01*
X168443750Y-90277000D01*
X168285000Y-90435750D01*
X168265000Y-90435750D01*
X168106250Y-90277000D01*
X167132000Y-90277000D01*
X166878000Y-90277000D01*
X165903750Y-90277000D01*
X165745000Y-90435750D01*
X165745000Y-90701959D01*
X165654659Y-90611460D01*
X165295370Y-90462270D01*
X165237347Y-90462219D01*
X165150155Y-90297000D01*
X163957000Y-90297000D01*
X163957000Y-90317000D01*
X163703000Y-90317000D01*
X163703000Y-90297000D01*
X162509845Y-90297000D01*
X162388524Y-90526890D01*
X162558355Y-90936924D01*
X162948642Y-91365183D01*
X163091553Y-91432298D01*
X162750853Y-91659946D01*
X162428946Y-92141715D01*
X162315907Y-92710000D01*
X162428946Y-93278285D01*
X162750853Y-93760054D01*
X163080026Y-93980000D01*
X162750853Y-94199946D01*
X162428946Y-94681715D01*
X162315907Y-95250000D01*
X162428946Y-95818285D01*
X162750853Y-96300054D01*
X163232622Y-96621961D01*
X163800907Y-96735000D01*
X163859093Y-96735000D01*
X164427378Y-96621961D01*
X164909147Y-96300054D01*
X164975679Y-96200481D01*
X165277599Y-96502401D01*
X165524161Y-96667148D01*
X165707560Y-96703629D01*
X165707560Y-96715000D01*
X165751838Y-96950317D01*
X165835287Y-97080000D01*
X163899931Y-97080000D01*
X163135011Y-96927848D01*
X162545830Y-96534170D01*
X162152152Y-95944989D01*
X162000000Y-95180069D01*
X162000000Y-82619931D01*
X162152152Y-81855011D01*
X162365972Y-81535007D01*
X162332560Y-81700000D01*
X162332560Y-83400000D01*
X162376838Y-83635317D01*
X162515910Y-83851441D01*
X162728110Y-83996431D01*
X162795541Y-84010086D01*
X162750853Y-84039946D01*
X162428946Y-84521715D01*
X162315907Y-85090000D01*
X162428946Y-85658285D01*
X162750853Y-86140054D01*
X163080026Y-86360000D01*
X162750853Y-86579946D01*
X162428946Y-87061715D01*
X162315907Y-87630000D01*
X162428946Y-88198285D01*
X162750853Y-88680054D01*
X163091553Y-88907702D01*
X162948642Y-88974817D01*
X162558355Y-89403076D01*
X162388524Y-89813110D01*
X162509845Y-90043000D01*
X163703000Y-90043000D01*
X163703000Y-90023000D01*
X163957000Y-90023000D01*
X163957000Y-90043000D01*
X165150155Y-90043000D01*
X165271476Y-89813110D01*
X165101645Y-89403076D01*
X164711358Y-88974817D01*
X164568447Y-88907702D01*
X164909147Y-88680054D01*
X164986023Y-88565000D01*
X165763607Y-88565000D01*
X165776838Y-88635317D01*
X165915910Y-88851441D01*
X165984006Y-88897969D01*
X165841673Y-89040302D01*
X165745000Y-89273691D01*
X165745000Y-89864250D01*
X165903750Y-90023000D01*
X166878000Y-90023000D01*
X166878000Y-90003000D01*
X167132000Y-90003000D01*
X167132000Y-90023000D01*
X168106250Y-90023000D01*
X168265000Y-89864250D01*
X168265000Y-89273691D01*
X168168327Y-89040302D01*
X168027090Y-88899064D01*
X168081441Y-88864090D01*
X168226431Y-88651890D01*
X168274910Y-88412491D01*
X168316838Y-88635317D01*
X168455910Y-88851441D01*
X168524006Y-88897969D01*
X168381673Y-89040302D01*
X168285000Y-89273691D01*
X168285000Y-89864250D01*
X168443750Y-90023000D01*
X169418000Y-90023000D01*
X169418000Y-90003000D01*
X169672000Y-90003000D01*
X169672000Y-90023000D01*
X170646250Y-90023000D01*
X170805000Y-89864250D01*
X170805000Y-89273691D01*
X170768574Y-89185750D01*
X171020000Y-89185750D01*
X171020000Y-89626310D01*
X171116673Y-89859699D01*
X171295302Y-90038327D01*
X171528691Y-90135000D01*
X171969250Y-90135000D01*
X172128000Y-89976250D01*
X172128000Y-89027000D01*
X171178750Y-89027000D01*
X171020000Y-89185750D01*
X170768574Y-89185750D01*
X170708327Y-89040302D01*
X170567090Y-88899064D01*
X170621441Y-88864090D01*
X170766431Y-88651890D01*
X170817440Y-88400000D01*
X170817440Y-88173690D01*
X171020000Y-88173690D01*
X171020000Y-88614250D01*
X171178750Y-88773000D01*
X172128000Y-88773000D01*
X172128000Y-87823750D01*
X171969250Y-87665000D01*
X171528691Y-87665000D01*
X171295302Y-87761673D01*
X171116673Y-87940301D01*
X171020000Y-88173690D01*
X170817440Y-88173690D01*
X170817440Y-86900000D01*
X170773162Y-86664683D01*
X170760979Y-86645750D01*
X170878500Y-86645750D01*
X170878500Y-86740309D01*
X170975173Y-86973698D01*
X171153801Y-87152327D01*
X171387190Y-87249000D01*
X171799250Y-87249000D01*
X171958000Y-87090250D01*
X171958000Y-86487000D01*
X172212000Y-86487000D01*
X172212000Y-87090250D01*
X172370750Y-87249000D01*
X172782810Y-87249000D01*
X173016199Y-87152327D01*
X173194827Y-86973698D01*
X173291500Y-86740309D01*
X173291500Y-86645750D01*
X173132750Y-86487000D01*
X172212000Y-86487000D01*
X171958000Y-86487000D01*
X171037250Y-86487000D01*
X170878500Y-86645750D01*
X170760979Y-86645750D01*
X170634090Y-86448559D01*
X170591489Y-86419451D01*
X170646441Y-86384090D01*
X170791431Y-86171890D01*
X170842440Y-85920000D01*
X170842440Y-84420000D01*
X170811670Y-84256472D01*
X170912599Y-84357401D01*
X170962912Y-84391019D01*
X171004666Y-84455907D01*
X170917069Y-84584110D01*
X170866060Y-84836000D01*
X170866060Y-85344000D01*
X170910338Y-85579317D01*
X171001104Y-85720371D01*
X170975173Y-85746302D01*
X170878500Y-85979691D01*
X170878500Y-86074250D01*
X171037250Y-86233000D01*
X171958000Y-86233000D01*
X171958000Y-86213000D01*
X172212000Y-86213000D01*
X172212000Y-86233000D01*
X173132750Y-86233000D01*
X173291500Y-86074250D01*
X173291500Y-85979691D01*
X173237780Y-85850000D01*
X173355000Y-85850000D01*
X173645839Y-85792148D01*
X173892401Y-85627401D01*
X174281971Y-85237831D01*
X174281931Y-85283663D01*
X174430493Y-85643212D01*
X174512040Y-85724901D01*
X174431460Y-85805341D01*
X174282270Y-86164630D01*
X174281931Y-86553663D01*
X174430493Y-86913212D01*
X174705341Y-87188540D01*
X175064630Y-87337730D01*
X175453663Y-87338069D01*
X175813212Y-87189507D01*
X176088540Y-86914659D01*
X176237730Y-86555370D01*
X176238069Y-86166337D01*
X176089507Y-85806788D01*
X176007960Y-85725099D01*
X176088540Y-85644659D01*
X176199790Y-85376739D01*
X176334630Y-85432730D01*
X176723663Y-85433069D01*
X177083212Y-85284507D01*
X177216060Y-85151891D01*
X177216060Y-85344000D01*
X177260338Y-85579317D01*
X177354666Y-85725907D01*
X177267069Y-85854110D01*
X177216060Y-86106000D01*
X177216060Y-86614000D01*
X177260338Y-86849317D01*
X177399410Y-87065441D01*
X177611610Y-87210431D01*
X177863500Y-87261440D01*
X178266283Y-87261440D01*
X178435000Y-87295000D01*
X180975000Y-87295000D01*
X181332809Y-87223827D01*
X181636145Y-87021145D01*
X182271145Y-86386145D01*
X182414305Y-86171890D01*
X182473827Y-86082809D01*
X182541554Y-85742322D01*
X182686441Y-85649090D01*
X182831431Y-85436890D01*
X182844977Y-85370000D01*
X183107710Y-85370000D01*
X183277943Y-85540233D01*
X183320493Y-85643212D01*
X183595341Y-85918540D01*
X183954630Y-86067730D01*
X184343663Y-86068069D01*
X184703212Y-85919507D01*
X184978540Y-85644659D01*
X185069152Y-85426442D01*
X186028855Y-86386145D01*
X186332191Y-86588827D01*
X186690000Y-86660000D01*
X187205982Y-86660000D01*
X187280910Y-86776441D01*
X187493110Y-86921431D01*
X187745000Y-86972440D01*
X189445000Y-86972440D01*
X189680317Y-86928162D01*
X189896441Y-86789090D01*
X190041431Y-86576890D01*
X190092440Y-86325000D01*
X190092440Y-85125000D01*
X190048162Y-84889683D01*
X189909090Y-84673559D01*
X189763525Y-84574099D01*
X190015084Y-84197614D01*
X190109093Y-83725000D01*
X190015084Y-83252386D01*
X189747370Y-82851723D01*
X189346707Y-82584009D01*
X188874093Y-82490000D01*
X188315907Y-82490000D01*
X187843293Y-82584009D01*
X187442630Y-82851723D01*
X187174916Y-83252386D01*
X187080907Y-83725000D01*
X187174916Y-84197614D01*
X187427074Y-84574996D01*
X187293559Y-84660910D01*
X187205356Y-84790000D01*
X187077290Y-84790000D01*
X183561145Y-81273855D01*
X183257809Y-81071173D01*
X182900000Y-81000000D01*
X182847630Y-81000000D01*
X182838162Y-80949683D01*
X182699090Y-80733559D01*
X182679246Y-80720000D01*
X189160069Y-80720000D01*
X189924989Y-80872152D01*
X189924989Y-80872152D01*
G37*
X189924989Y-80872152D02*
X190514170Y-81265830D01*
X190907848Y-81855011D01*
X191060000Y-82619931D01*
X191060000Y-95180069D01*
X190907848Y-95944989D01*
X190514170Y-96534170D01*
X189924989Y-96927848D01*
X189160069Y-97080000D01*
X182685027Y-97080000D01*
X182686441Y-97079090D01*
X182831431Y-96866890D01*
X182844977Y-96800000D01*
X182860000Y-96800000D01*
X183217809Y-96728827D01*
X183521145Y-96526145D01*
X187037290Y-93010000D01*
X187229270Y-93010000D01*
X187148569Y-93128110D01*
X187097560Y-93380000D01*
X187097560Y-94580000D01*
X187141838Y-94815317D01*
X187280910Y-95031441D01*
X187493110Y-95176431D01*
X187745000Y-95227440D01*
X189445000Y-95227440D01*
X189680317Y-95183162D01*
X189896441Y-95044090D01*
X190041431Y-94831890D01*
X190092440Y-94580000D01*
X190092440Y-93380000D01*
X190048162Y-93144683D01*
X189909090Y-92928559D01*
X189763525Y-92829099D01*
X190015084Y-92452614D01*
X190109093Y-91980000D01*
X190015084Y-91507386D01*
X189747370Y-91106723D01*
X189346707Y-90839009D01*
X188874093Y-90745000D01*
X188315907Y-90745000D01*
X187843293Y-90839009D01*
X187442630Y-91106723D01*
X187420395Y-91140000D01*
X186650000Y-91140000D01*
X186292191Y-91211173D01*
X185988855Y-91413855D01*
X185057402Y-92345308D01*
X184979507Y-92156788D01*
X184704659Y-91881460D01*
X184345370Y-91732270D01*
X183956337Y-91731931D01*
X183596788Y-91880493D01*
X183321460Y-92155341D01*
X183278209Y-92259501D01*
X183107710Y-92430000D01*
X182847630Y-92430000D01*
X182838162Y-92379683D01*
X182699090Y-92163559D01*
X182541150Y-92055643D01*
X182473827Y-91717191D01*
X182271145Y-91413855D01*
X181636145Y-90778855D01*
X181332809Y-90576173D01*
X180975000Y-90505000D01*
X179174802Y-90505000D01*
X179482362Y-90197440D01*
X179900000Y-90197440D01*
X180135317Y-90153162D01*
X180351441Y-90014090D01*
X180496431Y-89801890D01*
X180547440Y-89550000D01*
X180547440Y-89342619D01*
X181279613Y-89342619D01*
X181619155Y-90164372D01*
X182247321Y-90793636D01*
X183068481Y-91134611D01*
X183957619Y-91135387D01*
X184779372Y-90795845D01*
X185408636Y-90167679D01*
X185749611Y-89346519D01*
X185750387Y-88457381D01*
X185410845Y-87635628D01*
X184782679Y-87006364D01*
X183961519Y-86665389D01*
X183072381Y-86664613D01*
X182250628Y-87004155D01*
X181621364Y-87632321D01*
X181280389Y-88453481D01*
X181279613Y-89342619D01*
X180547440Y-89342619D01*
X180547440Y-88250000D01*
X180503162Y-88014683D01*
X180364090Y-87798559D01*
X180151890Y-87653569D01*
X179900000Y-87602560D01*
X178400000Y-87602560D01*
X178164683Y-87646838D01*
X177948559Y-87785910D01*
X177803569Y-87998110D01*
X177800919Y-88011197D01*
X177664090Y-87798559D01*
X177451890Y-87653569D01*
X177200000Y-87602560D01*
X175700000Y-87602560D01*
X175464683Y-87646838D01*
X175340661Y-87726644D01*
X175306890Y-87703569D01*
X175055000Y-87652560D01*
X173855000Y-87652560D01*
X173619683Y-87696838D01*
X173403559Y-87835910D01*
X173357031Y-87904006D01*
X173214698Y-87761673D01*
X172981309Y-87665000D01*
X172540750Y-87665000D01*
X172382000Y-87823750D01*
X172382000Y-88773000D01*
X172402000Y-88773000D01*
X172402000Y-89027000D01*
X172382000Y-89027000D01*
X172382000Y-89976250D01*
X172540750Y-90135000D01*
X172981309Y-90135000D01*
X173214698Y-90038327D01*
X173355936Y-89897090D01*
X173390910Y-89951441D01*
X173603110Y-90096431D01*
X173855000Y-90147440D01*
X175055000Y-90147440D01*
X175290317Y-90103162D01*
X175338967Y-90071857D01*
X175448110Y-90146431D01*
X175700000Y-90197440D01*
X176062758Y-90197440D01*
X175992599Y-90267599D01*
X175827852Y-90514161D01*
X175808968Y-90609097D01*
X175455370Y-90462270D01*
X175066337Y-90461931D01*
X174706788Y-90610493D01*
X174431460Y-90885341D01*
X174282270Y-91244630D01*
X174281931Y-91633663D01*
X174430493Y-91993212D01*
X174512040Y-92074901D01*
X174431460Y-92155341D01*
X174282270Y-92514630D01*
X174282228Y-92562426D01*
X173892401Y-92172599D01*
X173645839Y-92007852D01*
X173355000Y-91950000D01*
X173237780Y-91950000D01*
X173291500Y-91820309D01*
X173291500Y-91725750D01*
X173132750Y-91567000D01*
X172212000Y-91567000D01*
X172212000Y-91587000D01*
X171958000Y-91587000D01*
X171958000Y-91567000D01*
X171037250Y-91567000D01*
X170878500Y-91725750D01*
X170878500Y-91820309D01*
X170975173Y-92053698D01*
X171001709Y-92080235D01*
X170917069Y-92204110D01*
X170866060Y-92456000D01*
X170866060Y-92964000D01*
X170910338Y-93199317D01*
X171004666Y-93345907D01*
X170960442Y-93410631D01*
X170912599Y-93442599D01*
X170842440Y-93512758D01*
X170842440Y-92515000D01*
X170798162Y-92279683D01*
X170659090Y-92063559D01*
X170446890Y-91918569D01*
X170195000Y-91867560D01*
X168895000Y-91867560D01*
X168659683Y-91911838D01*
X168443559Y-92050910D01*
X168298569Y-92263110D01*
X168285023Y-92330000D01*
X168267630Y-92330000D01*
X168258162Y-92279683D01*
X168119090Y-92063559D01*
X167906890Y-91918569D01*
X167655000Y-91867560D01*
X166849850Y-91867560D01*
X166517290Y-91535000D01*
X166719250Y-91535000D01*
X166878000Y-91376250D01*
X166878000Y-90277000D01*
X167132000Y-90277000D01*
X167132000Y-91376250D01*
X167290750Y-91535000D01*
X167756310Y-91535000D01*
X167989699Y-91438327D01*
X168168327Y-91259698D01*
X168265000Y-91026309D01*
X168265000Y-90435750D01*
X168285000Y-90435750D01*
X168285000Y-91026309D01*
X168381673Y-91259698D01*
X168560301Y-91438327D01*
X168793690Y-91535000D01*
X169259250Y-91535000D01*
X169418000Y-91376250D01*
X169418000Y-90277000D01*
X169672000Y-90277000D01*
X169672000Y-91376250D01*
X169830750Y-91535000D01*
X170296310Y-91535000D01*
X170529699Y-91438327D01*
X170708327Y-91259698D01*
X170791172Y-91059691D01*
X170878500Y-91059691D01*
X170878500Y-91154250D01*
X171037250Y-91313000D01*
X171958000Y-91313000D01*
X171958000Y-90709750D01*
X172212000Y-90709750D01*
X172212000Y-91313000D01*
X173132750Y-91313000D01*
X173291500Y-91154250D01*
X173291500Y-91059691D01*
X173194827Y-90826302D01*
X173016199Y-90647673D01*
X172782810Y-90551000D01*
X172370750Y-90551000D01*
X172212000Y-90709750D01*
X171958000Y-90709750D01*
X171799250Y-90551000D01*
X171387190Y-90551000D01*
X171153801Y-90647673D01*
X170975173Y-90826302D01*
X170878500Y-91059691D01*
X170791172Y-91059691D01*
X170805000Y-91026309D01*
X170805000Y-90435750D01*
X170646250Y-90277000D01*
X169672000Y-90277000D01*
X169418000Y-90277000D01*
X168443750Y-90277000D01*
X168285000Y-90435750D01*
X168265000Y-90435750D01*
X168106250Y-90277000D01*
X167132000Y-90277000D01*
X166878000Y-90277000D01*
X165903750Y-90277000D01*
X165745000Y-90435750D01*
X165745000Y-90701959D01*
X165654659Y-90611460D01*
X165295370Y-90462270D01*
X165237347Y-90462219D01*
X165150155Y-90297000D01*
X163957000Y-90297000D01*
X163957000Y-90317000D01*
X163703000Y-90317000D01*
X163703000Y-90297000D01*
X162509845Y-90297000D01*
X162388524Y-90526890D01*
X162558355Y-90936924D01*
X162948642Y-91365183D01*
X163091553Y-91432298D01*
X162750853Y-91659946D01*
X162428946Y-92141715D01*
X162315907Y-92710000D01*
X162428946Y-93278285D01*
X162750853Y-93760054D01*
X163080026Y-93980000D01*
X162750853Y-94199946D01*
X162428946Y-94681715D01*
X162315907Y-95250000D01*
X162428946Y-95818285D01*
X162750853Y-96300054D01*
X163232622Y-96621961D01*
X163800907Y-96735000D01*
X163859093Y-96735000D01*
X164427378Y-96621961D01*
X164909147Y-96300054D01*
X164975679Y-96200481D01*
X165277599Y-96502401D01*
X165524161Y-96667148D01*
X165707560Y-96703629D01*
X165707560Y-96715000D01*
X165751838Y-96950317D01*
X165835287Y-97080000D01*
X163899931Y-97080000D01*
X163135011Y-96927848D01*
X162545830Y-96534170D01*
X162152152Y-95944989D01*
X162000000Y-95180069D01*
X162000000Y-82619931D01*
X162152152Y-81855011D01*
X162365972Y-81535007D01*
X162332560Y-81700000D01*
X162332560Y-83400000D01*
X162376838Y-83635317D01*
X162515910Y-83851441D01*
X162728110Y-83996431D01*
X162795541Y-84010086D01*
X162750853Y-84039946D01*
X162428946Y-84521715D01*
X162315907Y-85090000D01*
X162428946Y-85658285D01*
X162750853Y-86140054D01*
X163080026Y-86360000D01*
X162750853Y-86579946D01*
X162428946Y-87061715D01*
X162315907Y-87630000D01*
X162428946Y-88198285D01*
X162750853Y-88680054D01*
X163091553Y-88907702D01*
X162948642Y-88974817D01*
X162558355Y-89403076D01*
X162388524Y-89813110D01*
X162509845Y-90043000D01*
X163703000Y-90043000D01*
X163703000Y-90023000D01*
X163957000Y-90023000D01*
X163957000Y-90043000D01*
X165150155Y-90043000D01*
X165271476Y-89813110D01*
X165101645Y-89403076D01*
X164711358Y-88974817D01*
X164568447Y-88907702D01*
X164909147Y-88680054D01*
X164986023Y-88565000D01*
X165763607Y-88565000D01*
X165776838Y-88635317D01*
X165915910Y-88851441D01*
X165984006Y-88897969D01*
X165841673Y-89040302D01*
X165745000Y-89273691D01*
X165745000Y-89864250D01*
X165903750Y-90023000D01*
X166878000Y-90023000D01*
X166878000Y-90003000D01*
X167132000Y-90003000D01*
X167132000Y-90023000D01*
X168106250Y-90023000D01*
X168265000Y-89864250D01*
X168265000Y-89273691D01*
X168168327Y-89040302D01*
X168027090Y-88899064D01*
X168081441Y-88864090D01*
X168226431Y-88651890D01*
X168274910Y-88412491D01*
X168316838Y-88635317D01*
X168455910Y-88851441D01*
X168524006Y-88897969D01*
X168381673Y-89040302D01*
X168285000Y-89273691D01*
X168285000Y-89864250D01*
X168443750Y-90023000D01*
X169418000Y-90023000D01*
X169418000Y-90003000D01*
X169672000Y-90003000D01*
X169672000Y-90023000D01*
X170646250Y-90023000D01*
X170805000Y-89864250D01*
X170805000Y-89273691D01*
X170768574Y-89185750D01*
X171020000Y-89185750D01*
X171020000Y-89626310D01*
X171116673Y-89859699D01*
X171295302Y-90038327D01*
X171528691Y-90135000D01*
X171969250Y-90135000D01*
X172128000Y-89976250D01*
X172128000Y-89027000D01*
X171178750Y-89027000D01*
X171020000Y-89185750D01*
X170768574Y-89185750D01*
X170708327Y-89040302D01*
X170567090Y-88899064D01*
X170621441Y-88864090D01*
X170766431Y-88651890D01*
X170817440Y-88400000D01*
X170817440Y-88173690D01*
X171020000Y-88173690D01*
X171020000Y-88614250D01*
X171178750Y-88773000D01*
X172128000Y-88773000D01*
X172128000Y-87823750D01*
X171969250Y-87665000D01*
X171528691Y-87665000D01*
X171295302Y-87761673D01*
X171116673Y-87940301D01*
X171020000Y-88173690D01*
X170817440Y-88173690D01*
X170817440Y-86900000D01*
X170773162Y-86664683D01*
X170760979Y-86645750D01*
X170878500Y-86645750D01*
X170878500Y-86740309D01*
X170975173Y-86973698D01*
X171153801Y-87152327D01*
X171387190Y-87249000D01*
X171799250Y-87249000D01*
X171958000Y-87090250D01*
X171958000Y-86487000D01*
X172212000Y-86487000D01*
X172212000Y-87090250D01*
X172370750Y-87249000D01*
X172782810Y-87249000D01*
X173016199Y-87152327D01*
X173194827Y-86973698D01*
X173291500Y-86740309D01*
X173291500Y-86645750D01*
X173132750Y-86487000D01*
X172212000Y-86487000D01*
X171958000Y-86487000D01*
X171037250Y-86487000D01*
X170878500Y-86645750D01*
X170760979Y-86645750D01*
X170634090Y-86448559D01*
X170591489Y-86419451D01*
X170646441Y-86384090D01*
X170791431Y-86171890D01*
X170842440Y-85920000D01*
X170842440Y-84420000D01*
X170811670Y-84256472D01*
X170912599Y-84357401D01*
X170962912Y-84391019D01*
X171004666Y-84455907D01*
X170917069Y-84584110D01*
X170866060Y-84836000D01*
X170866060Y-85344000D01*
X170910338Y-85579317D01*
X171001104Y-85720371D01*
X170975173Y-85746302D01*
X170878500Y-85979691D01*
X170878500Y-86074250D01*
X171037250Y-86233000D01*
X171958000Y-86233000D01*
X171958000Y-86213000D01*
X172212000Y-86213000D01*
X172212000Y-86233000D01*
X173132750Y-86233000D01*
X173291500Y-86074250D01*
X173291500Y-85979691D01*
X173237780Y-85850000D01*
X173355000Y-85850000D01*
X173645839Y-85792148D01*
X173892401Y-85627401D01*
X174281971Y-85237831D01*
X174281931Y-85283663D01*
X174430493Y-85643212D01*
X174512040Y-85724901D01*
X174431460Y-85805341D01*
X174282270Y-86164630D01*
X174281931Y-86553663D01*
X174430493Y-86913212D01*
X174705341Y-87188540D01*
X175064630Y-87337730D01*
X175453663Y-87338069D01*
X175813212Y-87189507D01*
X176088540Y-86914659D01*
X176237730Y-86555370D01*
X176238069Y-86166337D01*
X176089507Y-85806788D01*
X176007960Y-85725099D01*
X176088540Y-85644659D01*
X176199790Y-85376739D01*
X176334630Y-85432730D01*
X176723663Y-85433069D01*
X177083212Y-85284507D01*
X177216060Y-85151891D01*
X177216060Y-85344000D01*
X177260338Y-85579317D01*
X177354666Y-85725907D01*
X177267069Y-85854110D01*
X177216060Y-86106000D01*
X177216060Y-86614000D01*
X177260338Y-86849317D01*
X177399410Y-87065441D01*
X177611610Y-87210431D01*
X177863500Y-87261440D01*
X178266283Y-87261440D01*
X178435000Y-87295000D01*
X180975000Y-87295000D01*
X181332809Y-87223827D01*
X181636145Y-87021145D01*
X182271145Y-86386145D01*
X182414305Y-86171890D01*
X182473827Y-86082809D01*
X182541554Y-85742322D01*
X182686441Y-85649090D01*
X182831431Y-85436890D01*
X182844977Y-85370000D01*
X183107710Y-85370000D01*
X183277943Y-85540233D01*
X183320493Y-85643212D01*
X183595341Y-85918540D01*
X183954630Y-86067730D01*
X184343663Y-86068069D01*
X184703212Y-85919507D01*
X184978540Y-85644659D01*
X185069152Y-85426442D01*
X186028855Y-86386145D01*
X186332191Y-86588827D01*
X186690000Y-86660000D01*
X187205982Y-86660000D01*
X187280910Y-86776441D01*
X187493110Y-86921431D01*
X187745000Y-86972440D01*
X189445000Y-86972440D01*
X189680317Y-86928162D01*
X189896441Y-86789090D01*
X190041431Y-86576890D01*
X190092440Y-86325000D01*
X190092440Y-85125000D01*
X190048162Y-84889683D01*
X189909090Y-84673559D01*
X189763525Y-84574099D01*
X190015084Y-84197614D01*
X190109093Y-83725000D01*
X190015084Y-83252386D01*
X189747370Y-82851723D01*
X189346707Y-82584009D01*
X188874093Y-82490000D01*
X188315907Y-82490000D01*
X187843293Y-82584009D01*
X187442630Y-82851723D01*
X187174916Y-83252386D01*
X187080907Y-83725000D01*
X187174916Y-84197614D01*
X187427074Y-84574996D01*
X187293559Y-84660910D01*
X187205356Y-84790000D01*
X187077290Y-84790000D01*
X183561145Y-81273855D01*
X183257809Y-81071173D01*
X182900000Y-81000000D01*
X182847630Y-81000000D01*
X182838162Y-80949683D01*
X182699090Y-80733559D01*
X182679246Y-80720000D01*
X189160069Y-80720000D01*
X189924989Y-80872152D01*
G36*
X172212000Y-95123000D02*
X172232000Y-95123000D01*
X172232000Y-95377000D01*
X172212000Y-95377000D01*
X172212000Y-95980250D01*
X172370750Y-96139000D01*
X172661198Y-96139000D01*
X172405198Y-96395000D01*
X170842440Y-96395000D01*
X170842440Y-95369542D01*
X170878500Y-95362369D01*
X170878500Y-95377002D01*
X171037248Y-95377002D01*
X170878500Y-95535750D01*
X170878500Y-95630309D01*
X170975173Y-95863698D01*
X171153801Y-96042327D01*
X171387190Y-96139000D01*
X171799250Y-96139000D01*
X171958000Y-95980250D01*
X171958000Y-95377000D01*
X171938000Y-95377000D01*
X171938000Y-95123000D01*
X171958000Y-95123000D01*
X171958000Y-95103000D01*
X172212000Y-95103000D01*
X172212000Y-95123000D01*
X172212000Y-95123000D01*
G37*
X172212000Y-95123000D02*
X172232000Y-95123000D01*
X172232000Y-95377000D01*
X172212000Y-95377000D01*
X172212000Y-95980250D01*
X172370750Y-96139000D01*
X172661198Y-96139000D01*
X172405198Y-96395000D01*
X170842440Y-96395000D01*
X170842440Y-95369542D01*
X170878500Y-95362369D01*
X170878500Y-95377002D01*
X171037248Y-95377002D01*
X170878500Y-95535750D01*
X170878500Y-95630309D01*
X170975173Y-95863698D01*
X171153801Y-96042327D01*
X171387190Y-96139000D01*
X171799250Y-96139000D01*
X171958000Y-95980250D01*
X171958000Y-95377000D01*
X171938000Y-95377000D01*
X171938000Y-95123000D01*
X171958000Y-95123000D01*
X171958000Y-95103000D01*
X172212000Y-95103000D01*
X172212000Y-95123000D01*
G36*
X180533559Y-80720910D02*
X180388569Y-80933110D01*
X180375023Y-81000000D01*
X180320000Y-81000000D01*
X179962191Y-81071173D01*
X179658855Y-81273855D01*
X179317710Y-81615000D01*
X178435000Y-81615000D01*
X178266283Y-81648560D01*
X177863500Y-81648560D01*
X177628183Y-81692838D01*
X177412059Y-81831910D01*
X177267069Y-82044110D01*
X177216060Y-82296000D01*
X177216060Y-82804000D01*
X177231301Y-82885000D01*
X177165000Y-82885000D01*
X176807191Y-82956173D01*
X176570149Y-83114559D01*
X176503855Y-83158855D01*
X176179097Y-83483613D01*
X176089507Y-83266788D01*
X176007960Y-83185099D01*
X176088540Y-83104659D01*
X176237730Y-82745370D01*
X176238069Y-82356337D01*
X176089507Y-81996788D01*
X175814659Y-81721460D01*
X175455370Y-81572270D01*
X175066337Y-81571931D01*
X174706788Y-81720493D01*
X174470836Y-81956034D01*
X173257401Y-80742599D01*
X173223579Y-80720000D01*
X180534973Y-80720000D01*
X180533559Y-80720910D01*
X180533559Y-80720910D01*
G37*
X180533559Y-80720910D02*
X180388569Y-80933110D01*
X180375023Y-81000000D01*
X180320000Y-81000000D01*
X179962191Y-81071173D01*
X179658855Y-81273855D01*
X179317710Y-81615000D01*
X178435000Y-81615000D01*
X178266283Y-81648560D01*
X177863500Y-81648560D01*
X177628183Y-81692838D01*
X177412059Y-81831910D01*
X177267069Y-82044110D01*
X177216060Y-82296000D01*
X177216060Y-82804000D01*
X177231301Y-82885000D01*
X177165000Y-82885000D01*
X176807191Y-82956173D01*
X176570149Y-83114559D01*
X176503855Y-83158855D01*
X176179097Y-83483613D01*
X176089507Y-83266788D01*
X176007960Y-83185099D01*
X176088540Y-83104659D01*
X176237730Y-82745370D01*
X176238069Y-82356337D01*
X176089507Y-81996788D01*
X175814659Y-81721460D01*
X175455370Y-81572270D01*
X175066337Y-81571931D01*
X174706788Y-81720493D01*
X174470836Y-81956034D01*
X173257401Y-80742599D01*
X173223579Y-80720000D01*
X180534973Y-80720000D01*
X180533559Y-80720910D01*
G36*
X172212000Y-82423000D02*
X172232000Y-82423000D01*
X172232000Y-82677000D01*
X172212000Y-82677000D01*
X172212000Y-82697000D01*
X171958000Y-82697000D01*
X171958000Y-82677000D01*
X171938000Y-82677000D01*
X171938000Y-82423000D01*
X171958000Y-82423000D01*
X171958000Y-82403000D01*
X172212000Y-82403000D01*
X172212000Y-82423000D01*
X172212000Y-82423000D01*
G37*
X172212000Y-82423000D02*
X172232000Y-82423000D01*
X172232000Y-82677000D01*
X172212000Y-82677000D01*
X172212000Y-82697000D01*
X171958000Y-82697000D01*
X171958000Y-82677000D01*
X171938000Y-82677000D01*
X171938000Y-82423000D01*
X171958000Y-82423000D01*
X171958000Y-82403000D01*
X172212000Y-82403000D01*
X172212000Y-82423000D01*
M02*
