M48
;DRILL file {KiCad 4.0.6-e0-6349~53~ubuntu16.04.1} date Fri Apr 14 17:41:21 2017
;FORMAT={-:-/ absolute / inch / decimal}
FMAT,2
INCH,TZ
T1C0.013
T2C0.028
T3C0.039
T4C0.126
%
G90
G05
M72
T1
X6.5Y-3.6
X6.725Y-3.225
X6.742Y-3.794
X6.9Y-3.25
X6.9Y-3.3
X6.9Y-3.35
X6.9Y-3.4
X6.9Y-3.6
X6.9Y-3.65
X6.9Y-3.7
X6.9Y-3.75
X6.95Y-3.2
X6.95Y-3.325
X6.95Y-3.675
X7.25Y-3.35
X7.25Y-3.65
T2
X7.425Y-3.2963
X7.425Y-3.375
X7.425Y-3.6213
X7.425Y-3.7
T3
X6.45Y-3.25
X6.45Y-3.35
X6.45Y-3.45
X6.45Y-3.55
X6.45Y-3.65
X6.45Y-3.75
T4
X7.225Y-3.5
T0
M30
