G04 #@! TF.FileFunction,Soldermask,Top*
%FSLAX46Y46*%
G04 Gerber Fmt 4.6, Leading zero omitted, Abs format (unit mm)*
G04 Created by KiCad (PCBNEW 4.0.6-e0-6349~53~ubuntu16.04.1) date Fri Apr 14 17:40:12 2017*
%MOMM*%
%LPD*%
G01*
G04 APERTURE LIST*
%ADD10C,0.100000*%
%ADD11R,2.100000X1.600000*%
%ADD12O,2.100000X1.600000*%
%ADD13R,1.650000X1.900000*%
%ADD14R,1.600000X1.600000*%
%ADD15R,2.100000X2.100000*%
%ADD16O,2.100000X2.100000*%
%ADD17R,1.900000X1.700000*%
%ADD18R,1.700000X1.900000*%
%ADD19C,3.600000*%
%ADD20R,1.543000X0.908000*%
G04 APERTURE END LIST*
D10*
D11*
X188595000Y-93980000D03*
D12*
X188595000Y-91980000D03*
D11*
X188595000Y-85725000D03*
D12*
X188595000Y-83725000D03*
D13*
X167005000Y-87650000D03*
X167005000Y-90150000D03*
X169545000Y-87650000D03*
X169545000Y-90150000D03*
X181610000Y-84435000D03*
X181610000Y-81935000D03*
X181610000Y-95865000D03*
X181610000Y-93365000D03*
D14*
X174455000Y-88900000D03*
X172255000Y-88900000D03*
D15*
X163830000Y-82550000D03*
D16*
X163830000Y-85090000D03*
X163830000Y-87630000D03*
X163830000Y-90170000D03*
X163830000Y-92710000D03*
X163830000Y-95250000D03*
D17*
X179150000Y-88900000D03*
X176450000Y-88900000D03*
D18*
X167005000Y-85170000D03*
X167005000Y-82470000D03*
X169545000Y-85170000D03*
X169545000Y-82470000D03*
X169545000Y-93265000D03*
X169545000Y-95965000D03*
X167005000Y-93265000D03*
X167005000Y-95965000D03*
D19*
X183515000Y-88900000D03*
D20*
X172085000Y-86360000D03*
X172085000Y-85090000D03*
X172085000Y-83820000D03*
X172085000Y-82550000D03*
X178435000Y-82550000D03*
X178435000Y-83820000D03*
X178435000Y-85090000D03*
X178435000Y-86360000D03*
X172085000Y-95250000D03*
X172085000Y-93980000D03*
X172085000Y-92710000D03*
X172085000Y-91440000D03*
X178435000Y-91440000D03*
X178435000Y-92710000D03*
X178435000Y-93980000D03*
X178435000Y-95250000D03*
M02*
