%TF.GenerationSoftware,KiCad,Pcbnew,4.0.7*%
%TF.CreationDate,2018-07-15T19:42:36+02:00*%
%TF.ProjectId,MotorController,4D6F746F72436F6E74726F6C6C65722E,rev?*%
%TF.FileFunction,Legend,Bot*%
%FSLAX46Y46*%
G04 Gerber Fmt 4.6, Leading zero omitted, Abs format (unit mm)*
G04 Created by KiCad (PCBNEW 4.0.7) date 07/15/18 19:42:36*
%MOMM*%
%LPD*%
G01*
G04 APERTURE LIST*
%ADD10C,0.100000*%
%ADD11C,0.175000*%
%ADD12C,0.010000*%
G04 APERTURE END LIST*
D10*
D11*
X6380000Y-15556667D02*
X6380000Y-14856667D01*
X6146667Y-15356667D01*
X5913334Y-14856667D01*
X5913334Y-15556667D01*
X5613334Y-14923333D02*
X5580000Y-14890000D01*
X5513334Y-14856667D01*
X5346667Y-14856667D01*
X5280000Y-14890000D01*
X5246667Y-14923333D01*
X5213334Y-14990000D01*
X5213334Y-15056667D01*
X5246667Y-15156667D01*
X5646667Y-15556667D01*
X5213334Y-15556667D01*
X4913333Y-15290000D02*
X4380000Y-15290000D01*
X4080000Y-15356667D02*
X3746666Y-15356667D01*
X4146666Y-15556667D02*
X3913333Y-14856667D01*
X3680000Y-15556667D01*
X6430000Y-13016667D02*
X6430000Y-12316667D01*
X6196667Y-12816667D01*
X5963334Y-12316667D01*
X5963334Y-13016667D01*
X5663334Y-12383333D02*
X5630000Y-12350000D01*
X5563334Y-12316667D01*
X5396667Y-12316667D01*
X5330000Y-12350000D01*
X5296667Y-12383333D01*
X5263334Y-12450000D01*
X5263334Y-12516667D01*
X5296667Y-12616667D01*
X5696667Y-13016667D01*
X5263334Y-13016667D01*
X4963333Y-12750000D02*
X4430000Y-12750000D01*
X3863333Y-12650000D02*
X3763333Y-12683333D01*
X3730000Y-12716667D01*
X3696666Y-12783333D01*
X3696666Y-12883333D01*
X3730000Y-12950000D01*
X3763333Y-12983333D01*
X3830000Y-13016667D01*
X4096666Y-13016667D01*
X4096666Y-12316667D01*
X3863333Y-12316667D01*
X3796666Y-12350000D01*
X3763333Y-12383333D01*
X3730000Y-12450000D01*
X3730000Y-12516667D01*
X3763333Y-12583333D01*
X3796666Y-12616667D01*
X3863333Y-12650000D01*
X4096666Y-12650000D01*
X6430000Y-2856667D02*
X6430000Y-2156667D01*
X6196667Y-2656667D01*
X5963334Y-2156667D01*
X5963334Y-2856667D01*
X5263334Y-2856667D02*
X5663334Y-2856667D01*
X5463334Y-2856667D02*
X5463334Y-2156667D01*
X5530000Y-2256667D01*
X5596667Y-2323333D01*
X5663334Y-2356667D01*
X4963333Y-2590000D02*
X4430000Y-2590000D01*
X3863333Y-2490000D02*
X3763333Y-2523333D01*
X3730000Y-2556667D01*
X3696666Y-2623333D01*
X3696666Y-2723333D01*
X3730000Y-2790000D01*
X3763333Y-2823333D01*
X3830000Y-2856667D01*
X4096666Y-2856667D01*
X4096666Y-2156667D01*
X3863333Y-2156667D01*
X3796666Y-2190000D01*
X3763333Y-2223333D01*
X3730000Y-2290000D01*
X3730000Y-2356667D01*
X3763333Y-2423333D01*
X3796666Y-2456667D01*
X3863333Y-2490000D01*
X4096666Y-2490000D01*
X6380000Y-5396667D02*
X6380000Y-4696667D01*
X6146667Y-5196667D01*
X5913334Y-4696667D01*
X5913334Y-5396667D01*
X5213334Y-5396667D02*
X5613334Y-5396667D01*
X5413334Y-5396667D02*
X5413334Y-4696667D01*
X5480000Y-4796667D01*
X5546667Y-4863333D01*
X5613334Y-4896667D01*
X4913333Y-5130000D02*
X4380000Y-5130000D01*
X4080000Y-5196667D02*
X3746666Y-5196667D01*
X4146666Y-5396667D02*
X3913333Y-4696667D01*
X3680000Y-5396667D01*
X6013333Y-7236667D02*
X5780000Y-7936667D01*
X5546667Y-7236667D01*
X4913333Y-7870000D02*
X4946667Y-7903333D01*
X5046667Y-7936667D01*
X5113333Y-7936667D01*
X5213333Y-7903333D01*
X5280000Y-7836667D01*
X5313333Y-7770000D01*
X5346667Y-7636667D01*
X5346667Y-7536667D01*
X5313333Y-7403333D01*
X5280000Y-7336667D01*
X5213333Y-7270000D01*
X5113333Y-7236667D01*
X5046667Y-7236667D01*
X4946667Y-7270000D01*
X4913333Y-7303333D01*
X4213333Y-7870000D02*
X4246667Y-7903333D01*
X4346667Y-7936667D01*
X4413333Y-7936667D01*
X4513333Y-7903333D01*
X4580000Y-7836667D01*
X4613333Y-7770000D01*
X4646667Y-7636667D01*
X4646667Y-7536667D01*
X4613333Y-7403333D01*
X4580000Y-7336667D01*
X4513333Y-7270000D01*
X4413333Y-7236667D01*
X4346667Y-7236667D01*
X4246667Y-7270000D01*
X4213333Y-7303333D01*
X5613333Y-9810000D02*
X5679999Y-9776667D01*
X5779999Y-9776667D01*
X5879999Y-9810000D01*
X5946666Y-9876667D01*
X5979999Y-9943333D01*
X6013333Y-10076667D01*
X6013333Y-10176667D01*
X5979999Y-10310000D01*
X5946666Y-10376667D01*
X5879999Y-10443333D01*
X5779999Y-10476667D01*
X5713333Y-10476667D01*
X5613333Y-10443333D01*
X5579999Y-10410000D01*
X5579999Y-10176667D01*
X5713333Y-10176667D01*
X5279999Y-10476667D02*
X5279999Y-9776667D01*
X4879999Y-10476667D01*
X4879999Y-9776667D01*
X4546666Y-10476667D02*
X4546666Y-9776667D01*
X4380000Y-9776667D01*
X4280000Y-9810000D01*
X4213333Y-9876667D01*
X4180000Y-9943333D01*
X4146666Y-10076667D01*
X4146666Y-10176667D01*
X4180000Y-10310000D01*
X4213333Y-10376667D01*
X4280000Y-10443333D01*
X4380000Y-10476667D01*
X4546666Y-10476667D01*
D12*
G36*
X6830288Y-8926576D02*
X6831077Y-8956713D01*
X6832786Y-8980319D01*
X6835755Y-9000477D01*
X6840325Y-9020271D01*
X6846836Y-9042784D01*
X6847570Y-9045183D01*
X6879826Y-9128960D01*
X6924448Y-9210681D01*
X6981252Y-9290215D01*
X7050052Y-9367431D01*
X7130661Y-9442199D01*
X7222894Y-9514388D01*
X7326566Y-9583868D01*
X7441489Y-9650507D01*
X7567479Y-9714176D01*
X7704349Y-9774743D01*
X7851913Y-9832078D01*
X8009986Y-9886050D01*
X8070850Y-9905065D01*
X8104963Y-9915767D01*
X8134319Y-9925546D01*
X8156975Y-9933707D01*
X8170988Y-9939557D01*
X8174665Y-9942148D01*
X8172990Y-9949709D01*
X8168927Y-9967577D01*
X8162947Y-9993688D01*
X8155523Y-10025975D01*
X8147808Y-10059432D01*
X8109231Y-10243866D01*
X8079743Y-10423290D01*
X8069983Y-10498131D01*
X8064977Y-10548436D01*
X8060951Y-10606115D01*
X8057937Y-10668690D01*
X8055968Y-10733685D01*
X8055076Y-10798622D01*
X8055293Y-10861025D01*
X8056652Y-10918415D01*
X8059185Y-10968315D01*
X8062925Y-11008249D01*
X8063272Y-11010900D01*
X8082098Y-11123463D01*
X8106987Y-11225284D01*
X8138160Y-11316894D01*
X8175841Y-11398828D01*
X8220249Y-11471620D01*
X8271609Y-11535802D01*
X8289464Y-11554525D01*
X8352739Y-11609608D01*
X8421645Y-11653518D01*
X8495922Y-11686333D01*
X8575311Y-11708132D01*
X8659552Y-11718991D01*
X8748386Y-11718990D01*
X8841553Y-11708207D01*
X8938793Y-11686720D01*
X9039847Y-11654606D01*
X9144456Y-11611945D01*
X9252360Y-11558815D01*
X9363300Y-11495293D01*
X9477015Y-11421458D01*
X9593247Y-11337389D01*
X9711736Y-11243162D01*
X9832222Y-11138857D01*
X9911283Y-11065883D01*
X9937343Y-11041489D01*
X9960277Y-11020480D01*
X9978483Y-11004288D01*
X9990356Y-10994345D01*
X9994174Y-10991850D01*
X10000848Y-10996071D01*
X10012785Y-11006838D01*
X10020641Y-11014769D01*
X10033357Y-11027496D01*
X10053034Y-11046482D01*
X10077255Y-11069425D01*
X10103600Y-11094021D01*
X10111116Y-11100970D01*
X10179707Y-11164252D01*
X10203916Y-11127263D01*
X10219680Y-11104964D01*
X10236308Y-11084203D01*
X10248176Y-11071491D01*
X10268227Y-11052708D01*
X10180802Y-10969283D01*
X10093378Y-10885857D01*
X10160495Y-10813441D01*
X10302937Y-10653494D01*
X10444753Y-10481675D01*
X10586276Y-10297582D01*
X10594236Y-10286852D01*
X10627078Y-10242471D01*
X10653221Y-10207210D01*
X10673579Y-10180025D01*
X10689068Y-10159873D01*
X10700603Y-10145711D01*
X10709101Y-10136494D01*
X10715475Y-10131179D01*
X10720642Y-10128722D01*
X10725517Y-10128081D01*
X10731015Y-10128211D01*
X10733358Y-10128246D01*
X10756446Y-10127241D01*
X10790364Y-10124384D01*
X10833413Y-10119905D01*
X10883893Y-10114029D01*
X10940106Y-10106987D01*
X11000353Y-10099005D01*
X11062934Y-10090311D01*
X11126151Y-10081134D01*
X11188305Y-10071701D01*
X11247697Y-10062241D01*
X11302628Y-10052980D01*
X11328400Y-10048404D01*
X11368050Y-10041014D01*
X11412034Y-10032468D01*
X11458206Y-10023217D01*
X11504423Y-10013713D01*
X11548537Y-10004407D01*
X11588405Y-9995751D01*
X11621880Y-9988197D01*
X11646818Y-9982196D01*
X11659553Y-9978700D01*
X11664324Y-9979144D01*
X11668879Y-9984849D01*
X11673875Y-9997546D01*
X11679972Y-10018968D01*
X11687830Y-10050848D01*
X11689189Y-10056585D01*
X11719002Y-10190608D01*
X11742910Y-10315641D01*
X11761169Y-10433803D01*
X11774034Y-10547209D01*
X11781761Y-10657976D01*
X11784607Y-10768222D01*
X11783958Y-10840678D01*
X11781523Y-10914532D01*
X11777486Y-10978512D01*
X11771486Y-11035381D01*
X11763165Y-11087905D01*
X11752162Y-11138847D01*
X11738649Y-11189153D01*
X11709485Y-11272102D01*
X11673070Y-11346035D01*
X11629821Y-11410483D01*
X11580152Y-11464975D01*
X11524478Y-11509041D01*
X11463214Y-11542212D01*
X11410950Y-11560454D01*
X11351231Y-11571498D01*
X11283656Y-11574832D01*
X11210390Y-11570541D01*
X11133599Y-11558714D01*
X11083404Y-11547179D01*
X11057304Y-11540518D01*
X11035915Y-11535283D01*
X11022148Y-11532176D01*
X11018758Y-11531623D01*
X11013822Y-11536974D01*
X11006558Y-11550547D01*
X11002557Y-11559657D01*
X10992623Y-11581086D01*
X10979337Y-11606374D01*
X10970148Y-11622361D01*
X10949257Y-11657054D01*
X11013416Y-11676743D01*
X11069231Y-11692929D01*
X11117610Y-11704530D01*
X11162689Y-11712189D01*
X11208606Y-11716551D01*
X11259498Y-11718259D01*
X11280775Y-11718347D01*
X11331751Y-11717444D01*
X11374032Y-11714496D01*
X11411548Y-11708811D01*
X11448230Y-11699698D01*
X11488010Y-11686465D01*
X11510881Y-11677858D01*
X11581553Y-11643798D01*
X11646860Y-11598638D01*
X11706365Y-11542984D01*
X11759633Y-11477442D01*
X11806228Y-11402615D01*
X11845714Y-11319110D01*
X11877656Y-11227531D01*
X11899756Y-11137900D01*
X11908197Y-11094463D01*
X11914838Y-11055605D01*
X11919882Y-11018822D01*
X11923530Y-10981610D01*
X11925986Y-10941465D01*
X11927451Y-10895882D01*
X11928128Y-10842359D01*
X11928231Y-10785475D01*
X11926603Y-10683495D01*
X11921788Y-10585754D01*
X11913454Y-10489556D01*
X11901269Y-10392206D01*
X11884903Y-10291010D01*
X11864024Y-10183272D01*
X11841589Y-10080625D01*
X11833109Y-10043428D01*
X11825475Y-10009846D01*
X11819192Y-9982107D01*
X11814766Y-9962444D01*
X11812760Y-9953362D01*
X11812799Y-9946668D01*
X11817638Y-9941197D01*
X11829478Y-9935725D01*
X11850521Y-9929029D01*
X11862900Y-9925481D01*
X11998893Y-9884328D01*
X12132222Y-9838523D01*
X12261456Y-9788718D01*
X12385162Y-9735561D01*
X12501908Y-9679702D01*
X12610263Y-9621791D01*
X12708794Y-9562476D01*
X12796069Y-9502408D01*
X12796761Y-9501894D01*
X12888000Y-9428364D01*
X12967066Y-9352429D01*
X13033879Y-9274190D01*
X13088363Y-9193748D01*
X13130439Y-9111203D01*
X13157389Y-9036050D01*
X13164865Y-9001574D01*
X13170289Y-8959119D01*
X13173516Y-8912549D01*
X13174402Y-8865725D01*
X13172804Y-8822512D01*
X13168578Y-8786774D01*
X13166960Y-8778875D01*
X13141532Y-8694380D01*
X13104797Y-8612735D01*
X13056543Y-8533676D01*
X12996555Y-8456936D01*
X12924621Y-8382252D01*
X12840528Y-8309358D01*
X12744061Y-8237990D01*
X12715862Y-8218945D01*
X12622452Y-8161248D01*
X12518050Y-8104467D01*
X12404364Y-8049346D01*
X12283099Y-7996626D01*
X12155963Y-7947052D01*
X12024663Y-7901365D01*
X11893550Y-7861068D01*
X11864635Y-7852516D01*
X11840171Y-7844815D01*
X11822771Y-7838819D01*
X11815088Y-7835419D01*
X11814605Y-7827932D01*
X11816864Y-7810385D01*
X11821478Y-7785022D01*
X11828059Y-7754092D01*
X11832148Y-7736483D01*
X11852793Y-7645438D01*
X11871606Y-7553548D01*
X11887645Y-7465580D01*
X11896485Y-7410450D01*
X11900933Y-7380914D01*
X11904957Y-7354491D01*
X11908015Y-7334709D01*
X11909265Y-7326871D01*
X11912058Y-7309968D01*
X11839334Y-7310996D01*
X11772157Y-7311946D01*
X11772157Y-7975600D01*
X11781442Y-7977504D01*
X11800804Y-7982801D01*
X11828271Y-7990871D01*
X11861872Y-8001090D01*
X11899634Y-8012838D01*
X11939587Y-8025493D01*
X11979758Y-8038432D01*
X12018177Y-8051034D01*
X12052870Y-8062678D01*
X12081867Y-8072741D01*
X12093363Y-8076893D01*
X12233952Y-8131839D01*
X12363944Y-8189257D01*
X12483123Y-8248986D01*
X12591272Y-8310866D01*
X12688173Y-8374737D01*
X12773610Y-8440437D01*
X12847365Y-8507805D01*
X12909223Y-8576681D01*
X12958965Y-8646905D01*
X12996375Y-8718315D01*
X13011274Y-8757018D01*
X13028190Y-8824736D01*
X13032984Y-8892524D01*
X13025723Y-8962155D01*
X13020071Y-8988425D01*
X12997509Y-9055666D01*
X12962598Y-9123211D01*
X12915673Y-9190671D01*
X12857068Y-9257662D01*
X12787116Y-9323797D01*
X12706150Y-9388688D01*
X12626975Y-9443855D01*
X12584137Y-9470336D01*
X12532060Y-9499978D01*
X12473382Y-9531454D01*
X12410744Y-9563435D01*
X12346786Y-9594593D01*
X12284146Y-9623599D01*
X12225466Y-9649126D01*
X12192000Y-9662714D01*
X12151666Y-9678118D01*
X12107196Y-9694377D01*
X12060120Y-9711000D01*
X12011970Y-9727497D01*
X11964276Y-9743376D01*
X11918569Y-9758147D01*
X11876380Y-9771319D01*
X11839240Y-9782402D01*
X11808679Y-9790904D01*
X11786230Y-9796335D01*
X11773422Y-9798204D01*
X11771100Y-9797633D01*
X11768694Y-9791154D01*
X11762805Y-9774050D01*
X11753917Y-9747762D01*
X11742513Y-9713730D01*
X11729077Y-9673394D01*
X11714092Y-9628195D01*
X11704125Y-9598025D01*
X11661166Y-9472477D01*
X11614370Y-9344172D01*
X11565240Y-9217002D01*
X11515276Y-9094861D01*
X11469509Y-8989491D01*
X11424413Y-8888958D01*
X11465892Y-8795816D01*
X11496820Y-8724866D01*
X11528748Y-8648845D01*
X11561062Y-8569400D01*
X11593149Y-8488180D01*
X11624393Y-8406835D01*
X11654181Y-8327012D01*
X11681899Y-8250359D01*
X11706931Y-8178527D01*
X11728665Y-8113162D01*
X11746485Y-8055914D01*
X11759778Y-8008432D01*
X11760870Y-8004144D01*
X11765916Y-7987273D01*
X11770520Y-7977028D01*
X11772157Y-7975600D01*
X11772157Y-7311946D01*
X11766609Y-7312025D01*
X11763389Y-7331075D01*
X11760808Y-7347178D01*
X11757218Y-7370600D01*
X11753645Y-7394575D01*
X11745346Y-7446176D01*
X11734519Y-7506024D01*
X11721959Y-7570105D01*
X11708454Y-7634408D01*
X11694798Y-7694919D01*
X11692457Y-7704793D01*
X11669923Y-7799112D01*
X11653149Y-7795586D01*
X11641792Y-7793158D01*
X11620296Y-7788525D01*
X11590935Y-7782179D01*
X11555979Y-7774611D01*
X11517702Y-7766312D01*
X11517524Y-7766274D01*
X11412999Y-7744785D01*
X11300578Y-7723843D01*
X11185062Y-7704309D01*
X11093270Y-7690218D01*
X11068188Y-7686730D01*
X11035292Y-7682418D01*
X10996574Y-7677517D01*
X10954028Y-7672265D01*
X10909644Y-7666895D01*
X10865418Y-7661646D01*
X10823340Y-7656751D01*
X10813988Y-7655691D01*
X10813988Y-7799935D01*
X10885456Y-7808345D01*
X11020454Y-7825626D01*
X11156373Y-7845695D01*
X11289755Y-7867975D01*
X11417143Y-7891893D01*
X11527890Y-7915254D01*
X11561625Y-7922778D01*
X11590763Y-7929214D01*
X11613161Y-7934094D01*
X11626680Y-7936950D01*
X11629682Y-7937500D01*
X11629258Y-7943320D01*
X11625009Y-7960064D01*
X11617265Y-7986652D01*
X11606355Y-8022005D01*
X11592610Y-8065046D01*
X11576359Y-8114695D01*
X11565705Y-8146721D01*
X11513156Y-8296843D01*
X11455204Y-8449774D01*
X11395826Y-8595384D01*
X11346917Y-8710916D01*
X11346917Y-9067423D01*
X11347545Y-9068196D01*
X11352736Y-9079097D01*
X11361839Y-9099907D01*
X11374079Y-9128733D01*
X11388679Y-9163684D01*
X11404860Y-9202865D01*
X11421846Y-9244384D01*
X11438861Y-9286348D01*
X11455126Y-9326865D01*
X11469865Y-9364042D01*
X11482300Y-9395985D01*
X11484762Y-9402418D01*
X11497467Y-9436504D01*
X11511867Y-9476417D01*
X11527406Y-9520486D01*
X11543524Y-9567038D01*
X11559664Y-9614403D01*
X11575267Y-9660907D01*
X11589776Y-9704879D01*
X11602632Y-9744647D01*
X11613278Y-9778538D01*
X11621154Y-9804881D01*
X11625704Y-9822004D01*
X11626612Y-9827371D01*
X11624423Y-9836210D01*
X11615503Y-9842155D01*
X11596902Y-9847161D01*
X11596687Y-9847207D01*
X11499563Y-9867552D01*
X11412649Y-9885224D01*
X11333828Y-9900595D01*
X11260980Y-9914038D01*
X11191988Y-9925926D01*
X11124732Y-9936631D01*
X11057095Y-9946528D01*
X10986959Y-9955989D01*
X10957073Y-9959818D01*
X10918016Y-9964706D01*
X10883041Y-9968994D01*
X10854188Y-9972437D01*
X10833493Y-9974795D01*
X10822995Y-9975824D01*
X10822349Y-9975850D01*
X10822873Y-9970879D01*
X10829483Y-9957167D01*
X10841185Y-9936516D01*
X10856983Y-9910724D01*
X10867130Y-9894887D01*
X10948064Y-9767482D01*
X11029331Y-9633910D01*
X11109037Y-9497458D01*
X11185291Y-9361413D01*
X11256199Y-9229063D01*
X11302821Y-9138025D01*
X11320228Y-9104294D01*
X11333124Y-9081683D01*
X11341893Y-9069592D01*
X11346917Y-9067423D01*
X11346917Y-8710916D01*
X11344203Y-8717327D01*
X11277564Y-8589351D01*
X11168013Y-8384943D01*
X11056304Y-8188719D01*
X10939797Y-7996174D01*
X10824741Y-7816330D01*
X10813988Y-7799935D01*
X10813988Y-7655691D01*
X10785404Y-7652449D01*
X10753602Y-7648973D01*
X10729927Y-7646562D01*
X10716372Y-7645449D01*
X10714824Y-7645402D01*
X10708959Y-7640485D01*
X10697119Y-7626848D01*
X10680636Y-7606156D01*
X10660844Y-7580074D01*
X10642415Y-7554912D01*
X10555562Y-7437518D01*
X10464168Y-7319651D01*
X10370877Y-7204596D01*
X10278335Y-7095639D01*
X10217786Y-7027374D01*
X10191377Y-6998109D01*
X10165930Y-6969792D01*
X10143524Y-6944748D01*
X10126241Y-6925299D01*
X10118830Y-6916864D01*
X10093536Y-6887804D01*
X10153755Y-6831305D01*
X10279886Y-6717086D01*
X10402937Y-6613964D01*
X10522738Y-6522045D01*
X10639120Y-6441434D01*
X10751914Y-6372237D01*
X10860949Y-6314560D01*
X10966057Y-6268508D01*
X11067069Y-6234187D01*
X11140136Y-6216189D01*
X11207327Y-6206131D01*
X11275009Y-6202769D01*
X11340604Y-6205906D01*
X11401535Y-6215342D01*
X11455224Y-6230879D01*
X11481873Y-6242527D01*
X11542463Y-6279985D01*
X11596224Y-6326806D01*
X11640867Y-6380965D01*
X11644421Y-6386223D01*
X11656732Y-6403638D01*
X11666751Y-6415789D01*
X11671889Y-6419850D01*
X11680388Y-6418354D01*
X11697131Y-6414479D01*
X11713599Y-6410325D01*
X11741049Y-6404805D01*
X11770190Y-6401367D01*
X11783759Y-6400800D01*
X11802468Y-6399970D01*
X11814662Y-6397837D01*
X11817350Y-6395936D01*
X11813891Y-6386284D01*
X11804591Y-6368897D01*
X11791059Y-6346326D01*
X11774907Y-6321118D01*
X11757745Y-6295823D01*
X11741186Y-6272990D01*
X11733062Y-6262583D01*
X11684894Y-6211508D01*
X11627553Y-6164863D01*
X11564388Y-6124956D01*
X11498749Y-6094098D01*
X11477625Y-6086463D01*
X11417607Y-6070998D01*
X11349794Y-6061383D01*
X11277759Y-6057815D01*
X11205079Y-6060489D01*
X11143781Y-6068102D01*
X11037926Y-6091900D01*
X10928579Y-6127809D01*
X10815727Y-6175836D01*
X10699354Y-6235992D01*
X10579447Y-6308283D01*
X10455991Y-6392718D01*
X10328973Y-6489307D01*
X10198378Y-6598057D01*
X10074646Y-6709238D01*
X9993084Y-6785007D01*
X9993084Y-6992007D01*
X10066277Y-7072641D01*
X10118466Y-7130624D01*
X10165557Y-7184106D01*
X10210633Y-7236687D01*
X10256778Y-7291969D01*
X10307075Y-7353553D01*
X10312009Y-7359650D01*
X10341454Y-7396376D01*
X10371602Y-7434555D01*
X10401416Y-7472817D01*
X10429858Y-7509791D01*
X10455893Y-7544107D01*
X10478482Y-7574396D01*
X10496589Y-7599288D01*
X10509177Y-7617411D01*
X10515210Y-7627397D01*
X10515586Y-7628625D01*
X10510436Y-7631564D01*
X10501312Y-7630624D01*
X10491600Y-7629537D01*
X10470856Y-7628093D01*
X10440741Y-7626378D01*
X10402917Y-7624479D01*
X10359044Y-7622481D01*
X10310783Y-7620469D01*
X10287000Y-7619542D01*
X10213081Y-7617314D01*
X10131384Y-7615890D01*
X10044493Y-7615248D01*
X10019337Y-7615280D01*
X10019337Y-7762716D01*
X10103734Y-7762857D01*
X10186237Y-7763474D01*
X10265563Y-7764566D01*
X10340428Y-7766133D01*
X10409547Y-7768175D01*
X10471638Y-7770693D01*
X10525415Y-7773686D01*
X10569596Y-7777154D01*
X10602896Y-7781097D01*
X10613109Y-7782851D01*
X10619666Y-7785346D01*
X10627292Y-7791141D01*
X10636898Y-7801419D01*
X10649398Y-7817364D01*
X10665704Y-7840159D01*
X10686729Y-7870990D01*
X10713387Y-7911038D01*
X10721852Y-7923864D01*
X10803462Y-8050611D01*
X10886126Y-8184581D01*
X10966910Y-8320943D01*
X11027060Y-8426450D01*
X11041568Y-8452795D01*
X11059414Y-8485882D01*
X11079856Y-8524275D01*
X11102155Y-8566539D01*
X11125569Y-8611241D01*
X11149357Y-8656945D01*
X11172778Y-8702217D01*
X11195092Y-8745622D01*
X11215556Y-8785726D01*
X11233431Y-8821093D01*
X11247974Y-8850291D01*
X11258446Y-8871882D01*
X11264105Y-8884435D01*
X11264900Y-8886919D01*
X11262152Y-8893280D01*
X11254378Y-8909549D01*
X11242279Y-8934301D01*
X11226560Y-8966108D01*
X11207922Y-9003544D01*
X11187068Y-9045184D01*
X11179564Y-9060113D01*
X11093416Y-9227116D01*
X11007201Y-9385430D01*
X10918709Y-9538886D01*
X10825731Y-9691313D01*
X10726057Y-9846539D01*
X10724023Y-9849633D01*
X10629544Y-9993291D01*
X10580509Y-9997238D01*
X10501813Y-10002965D01*
X10494150Y-10003401D01*
X10494150Y-10148326D01*
X10509516Y-10148408D01*
X10515595Y-10149930D01*
X10515600Y-10149994D01*
X10511971Y-10156258D01*
X10501969Y-10170772D01*
X10486916Y-10191683D01*
X10468135Y-10217140D01*
X10457232Y-10231696D01*
X10398232Y-10308710D01*
X10335654Y-10387922D01*
X10271335Y-10467121D01*
X10207116Y-10544097D01*
X10144833Y-10616639D01*
X10086326Y-10682538D01*
X10044699Y-10727687D01*
X9991523Y-10784200D01*
X9908770Y-10692762D01*
X9834494Y-10609665D01*
X9766801Y-10531589D01*
X9702822Y-10455070D01*
X9639690Y-10376645D01*
X9574537Y-10292850D01*
X9539190Y-10246379D01*
X9516866Y-10216517D01*
X9497680Y-10190232D01*
X9482775Y-10169142D01*
X9473293Y-10154862D01*
X9470376Y-10149010D01*
X9470392Y-10148990D01*
X9477222Y-10148537D01*
X9494999Y-10148699D01*
X9521989Y-10149421D01*
X9556456Y-10150650D01*
X9596664Y-10152333D01*
X9632034Y-10153982D01*
X9668307Y-10155350D01*
X9714189Y-10156451D01*
X9768105Y-10157291D01*
X9828483Y-10157880D01*
X9893749Y-10158225D01*
X9962330Y-10158333D01*
X10032652Y-10158214D01*
X10103141Y-10157875D01*
X10172224Y-10157324D01*
X10238329Y-10156569D01*
X10299880Y-10155618D01*
X10355306Y-10154479D01*
X10403032Y-10153160D01*
X10441485Y-10151670D01*
X10469091Y-10150015D01*
X10472737Y-10149705D01*
X10494150Y-10148326D01*
X10494150Y-10003401D01*
X10421400Y-10007547D01*
X10337221Y-10011051D01*
X10247228Y-10013541D01*
X10149372Y-10015084D01*
X10041605Y-10015745D01*
X10001250Y-10015780D01*
X9916321Y-10015591D01*
X9841247Y-10015026D01*
X9773188Y-10013996D01*
X9709302Y-10012409D01*
X9646747Y-10010176D01*
X9582683Y-10007206D01*
X9514268Y-10003409D01*
X9438660Y-9998696D01*
X9415839Y-9997201D01*
X9354303Y-9993136D01*
X9272419Y-9868605D01*
X9149733Y-9676774D01*
X9035177Y-9486458D01*
X8926312Y-9293426D01*
X8820702Y-9093448D01*
X8783075Y-9019070D01*
X8718973Y-8890966D01*
X8754626Y-8815870D01*
X8808657Y-8705816D01*
X8869664Y-8588282D01*
X8936394Y-8465462D01*
X9007593Y-8339551D01*
X9082008Y-8212742D01*
X9158388Y-8087229D01*
X9235479Y-7965208D01*
X9274713Y-7904955D01*
X9352561Y-7786686D01*
X9386393Y-7782833D01*
X9430058Y-7778696D01*
X9483384Y-7775035D01*
X9545087Y-7771849D01*
X9613884Y-7769138D01*
X9688491Y-7766903D01*
X9767623Y-7765143D01*
X9849998Y-7763859D01*
X9934330Y-7763049D01*
X10019337Y-7762716D01*
X10019337Y-7615280D01*
X9954991Y-7615364D01*
X9865461Y-7616213D01*
X9778487Y-7617773D01*
X9696653Y-7620019D01*
X9622540Y-7622928D01*
X9563341Y-7626173D01*
X9530593Y-7628106D01*
X9502616Y-7629398D01*
X9481726Y-7629970D01*
X9470239Y-7629744D01*
X9468785Y-7629402D01*
X9471169Y-7623172D01*
X9480776Y-7608232D01*
X9496758Y-7585681D01*
X9518270Y-7556615D01*
X9544464Y-7522133D01*
X9574494Y-7483331D01*
X9607514Y-7441308D01*
X9642677Y-7397162D01*
X9679135Y-7351989D01*
X9716043Y-7306887D01*
X9738087Y-7280275D01*
X9778761Y-7231638D01*
X9813983Y-7190109D01*
X9846220Y-7152869D01*
X9877944Y-7117098D01*
X9911623Y-7079979D01*
X9949727Y-7038693D01*
X9950635Y-7037716D01*
X9993084Y-6992007D01*
X9993084Y-6785007D01*
X9991698Y-6786295D01*
X9925036Y-6723057D01*
X9795363Y-6604721D01*
X9667522Y-6497426D01*
X9541752Y-6401322D01*
X9418294Y-6316559D01*
X9297386Y-6243287D01*
X9179270Y-6181656D01*
X9064185Y-6131817D01*
X8952371Y-6093920D01*
X8896350Y-6079160D01*
X8848127Y-6069995D01*
X8793498Y-6063343D01*
X8736401Y-6059405D01*
X8685268Y-6058465D01*
X8685268Y-6203135D01*
X8741620Y-6204053D01*
X8797827Y-6208880D01*
X8843439Y-6216219D01*
X8938119Y-6240752D01*
X9037368Y-6276546D01*
X9140584Y-6323263D01*
X9247168Y-6380563D01*
X9356519Y-6448107D01*
X9468038Y-6525556D01*
X9581123Y-6612571D01*
X9658350Y-6676808D01*
X9693059Y-6706909D01*
X9728453Y-6738240D01*
X9763240Y-6769594D01*
X9796130Y-6799765D01*
X9825831Y-6827544D01*
X9851053Y-6851727D01*
X9870505Y-6871106D01*
X9882895Y-6884474D01*
X9886950Y-6890483D01*
X9882830Y-6897261D01*
X9871646Y-6911086D01*
X9855159Y-6929872D01*
X9837310Y-6949228D01*
X9763075Y-7030290D01*
X9684622Y-7120128D01*
X9603866Y-7216401D01*
X9522724Y-7316764D01*
X9443113Y-7418874D01*
X9366949Y-7520389D01*
X9340962Y-7556035D01*
X9316878Y-7589002D01*
X9298630Y-7612961D01*
X9284873Y-7629377D01*
X9274260Y-7639716D01*
X9265446Y-7645442D01*
X9257084Y-7648023D01*
X9256367Y-7648141D01*
X9242921Y-7649934D01*
X9219683Y-7652704D01*
X9189494Y-7656126D01*
X9157612Y-7659609D01*
X9157612Y-7804150D01*
X9160295Y-7806652D01*
X9158065Y-7814884D01*
X9150346Y-7829931D01*
X9136566Y-7852877D01*
X9116148Y-7884809D01*
X9109734Y-7894637D01*
X9087549Y-7929006D01*
X9061047Y-7970829D01*
X9032395Y-8016638D01*
X9003761Y-8062968D01*
X8977311Y-8106352D01*
X8975758Y-8108922D01*
X8924461Y-8195251D01*
X8872364Y-8285464D01*
X8821169Y-8376507D01*
X8772575Y-8465329D01*
X8728284Y-8548876D01*
X8700724Y-8602639D01*
X8683445Y-8636533D01*
X8667966Y-8666164D01*
X8655226Y-8689797D01*
X8646160Y-8705695D01*
X8641709Y-8712122D01*
X8641557Y-8712176D01*
X8640783Y-8711040D01*
X8640783Y-9060404D01*
X8702817Y-9179989D01*
X8777412Y-9320591D01*
X8855037Y-9460858D01*
X8934077Y-9597998D01*
X9012913Y-9729218D01*
X9089930Y-9851726D01*
X9106518Y-9877306D01*
X9126340Y-9907865D01*
X9143399Y-9934494D01*
X9156617Y-9955486D01*
X9164917Y-9969132D01*
X9167288Y-9973727D01*
X9160899Y-9973363D01*
X9143842Y-9971592D01*
X9118049Y-9968634D01*
X9085447Y-9964714D01*
X9047965Y-9960052D01*
X9042286Y-9959333D01*
X8911316Y-9941556D01*
X8786911Y-9922125D01*
X8662954Y-9900058D01*
X8608421Y-9889544D01*
X8563082Y-9880443D01*
X8518206Y-9871121D01*
X8475564Y-9861978D01*
X8436924Y-9853409D01*
X8404058Y-9845815D01*
X8378735Y-9839593D01*
X8362724Y-9835142D01*
X8357844Y-9833161D01*
X8358633Y-9826317D01*
X8362893Y-9809329D01*
X8370040Y-9784089D01*
X8379490Y-9752488D01*
X8390657Y-9716417D01*
X8402958Y-9677768D01*
X8415809Y-9638432D01*
X8428624Y-9600300D01*
X8439335Y-9569450D01*
X8469463Y-9485883D01*
X8501127Y-9401030D01*
X8533315Y-9317464D01*
X8565017Y-9237761D01*
X8595221Y-9164495D01*
X8622916Y-9100242D01*
X8628418Y-9087914D01*
X8640783Y-9060404D01*
X8640783Y-8711040D01*
X8637704Y-8706517D01*
X8629883Y-8690524D01*
X8618717Y-8665705D01*
X8604830Y-8633567D01*
X8588846Y-8595617D01*
X8571390Y-8553362D01*
X8553085Y-8508309D01*
X8534555Y-8461966D01*
X8516424Y-8415839D01*
X8499317Y-8371435D01*
X8487583Y-8340304D01*
X8468785Y-8289041D01*
X8450128Y-8236648D01*
X8432064Y-8184529D01*
X8415043Y-8134091D01*
X8399516Y-8086737D01*
X8385934Y-8043873D01*
X8374749Y-8006904D01*
X8366411Y-7977235D01*
X8361371Y-7956271D01*
X8360080Y-7945417D01*
X8360492Y-7944342D01*
X8368128Y-7941588D01*
X8386292Y-7936725D01*
X8413068Y-7930184D01*
X8446541Y-7922393D01*
X8484795Y-7913781D01*
X8525914Y-7904778D01*
X8567982Y-7895813D01*
X8609084Y-7887316D01*
X8647303Y-7879716D01*
X8658225Y-7877617D01*
X8697015Y-7870531D01*
X8742312Y-7862746D01*
X8792330Y-7854525D01*
X8845284Y-7846131D01*
X8899388Y-7837827D01*
X8952857Y-7829876D01*
X9003905Y-7822539D01*
X9050749Y-7816080D01*
X9091602Y-7810761D01*
X9124678Y-7806845D01*
X9148194Y-7804595D01*
X9157612Y-7804150D01*
X9157612Y-7659609D01*
X9155195Y-7659874D01*
X9140825Y-7661406D01*
X8997978Y-7678426D01*
X8849452Y-7699680D01*
X8700134Y-7724374D01*
X8554909Y-7751712D01*
X8451850Y-7773423D01*
X8414475Y-7781638D01*
X8381044Y-7788870D01*
X8353660Y-7794672D01*
X8334427Y-7798598D01*
X8325450Y-7800203D01*
X8325402Y-7800208D01*
X8320318Y-7796524D01*
X8314268Y-7784249D01*
X8307078Y-7762736D01*
X8298577Y-7731341D01*
X8288590Y-7689420D01*
X8276945Y-7636328D01*
X8263470Y-7571419D01*
X8261730Y-7562850D01*
X8233899Y-7409086D01*
X8213939Y-7261797D01*
X8201859Y-7121511D01*
X8197668Y-6988755D01*
X8201374Y-6864057D01*
X8212985Y-6747946D01*
X8232510Y-6640949D01*
X8246068Y-6588125D01*
X8274556Y-6506058D01*
X8310524Y-6432640D01*
X8353489Y-6368402D01*
X8402965Y-6313875D01*
X8458467Y-6269590D01*
X8519511Y-6236077D01*
X8585612Y-6213867D01*
X8588375Y-6213217D01*
X8632833Y-6206174D01*
X8685268Y-6203135D01*
X8685268Y-6058465D01*
X8680775Y-6058382D01*
X8630558Y-6060473D01*
X8599620Y-6064074D01*
X8542900Y-6076751D01*
X8483622Y-6096133D01*
X8427643Y-6120135D01*
X8398337Y-6135734D01*
X8350542Y-6168774D01*
X8302231Y-6211663D01*
X8255673Y-6261863D01*
X8213135Y-6316833D01*
X8176887Y-6374031D01*
X8164159Y-6397959D01*
X8143333Y-6445411D01*
X8122984Y-6502721D01*
X8103895Y-6567052D01*
X8086848Y-6635566D01*
X8072626Y-6705427D01*
X8063481Y-6762750D01*
X8060581Y-6792144D01*
X8058328Y-6831795D01*
X8056724Y-6879275D01*
X8055768Y-6932159D01*
X8055459Y-6988020D01*
X8055797Y-7044430D01*
X8056783Y-7098963D01*
X8058415Y-7149193D01*
X8060694Y-7192692D01*
X8063537Y-7226300D01*
X8071383Y-7290475D01*
X8081434Y-7362216D01*
X8092960Y-7436878D01*
X8105234Y-7509820D01*
X8117527Y-7576399D01*
X8121780Y-7597734D01*
X8130218Y-7638162D01*
X8139243Y-7679841D01*
X8148341Y-7720548D01*
X8156998Y-7758061D01*
X8164700Y-7790156D01*
X8170931Y-7814610D01*
X8175177Y-7829200D01*
X8175629Y-7830445D01*
X8174911Y-7836251D01*
X8166803Y-7842005D01*
X8149460Y-7848685D01*
X8129878Y-7854717D01*
X8101341Y-7863298D01*
X8067325Y-7873885D01*
X8029867Y-7885807D01*
X7991009Y-7898387D01*
X7952790Y-7910954D01*
X7917248Y-7922832D01*
X7886424Y-7933348D01*
X7862357Y-7941828D01*
X7847086Y-7947599D01*
X7842906Y-7949535D01*
X7838929Y-7954524D01*
X7839147Y-7963623D01*
X7844008Y-7979534D01*
X7850737Y-7996986D01*
X7860006Y-8022359D01*
X7867584Y-8047071D01*
X7871463Y-8063887D01*
X7875491Y-8089076D01*
X7952533Y-8061794D01*
X7984234Y-8050866D01*
X8019859Y-8039076D01*
X8057435Y-8027021D01*
X8094983Y-8015302D01*
X8130530Y-8004517D01*
X8162100Y-7995264D01*
X8187716Y-7988141D01*
X8205403Y-7983748D01*
X8213186Y-7982683D01*
X8213335Y-7982772D01*
X8215797Y-7989142D01*
X8221778Y-8006143D01*
X8230791Y-8032351D01*
X8242353Y-8066345D01*
X8255978Y-8106702D01*
X8271183Y-8151999D01*
X8282262Y-8185150D01*
X8339645Y-8350006D01*
X8401502Y-8514436D01*
X8466101Y-8673958D01*
X8514614Y-8786129D01*
X8560275Y-8888634D01*
X8518004Y-8982979D01*
X8468470Y-9097007D01*
X8418791Y-9217940D01*
X8370366Y-9342113D01*
X8324592Y-9465864D01*
X8320660Y-9477140D01*
X8320660Y-9975850D01*
X8328831Y-9977189D01*
X8347264Y-9980909D01*
X8373839Y-9986558D01*
X8406436Y-9993688D01*
X8438929Y-10000945D01*
X8559235Y-10026408D01*
X8688286Y-10050708D01*
X8822136Y-10073205D01*
X8956841Y-10093261D01*
X9088456Y-10110237D01*
X9169882Y-10119256D01*
X9275139Y-10130082D01*
X9352349Y-10235528D01*
X9451083Y-10367651D01*
X9547350Y-10490760D01*
X9643401Y-10607629D01*
X9741491Y-10721035D01*
X9793656Y-10779125D01*
X9827137Y-10816318D01*
X9852381Y-10845252D01*
X9870032Y-10866743D01*
X9880738Y-10881607D01*
X9885143Y-10890662D01*
X9884608Y-10894229D01*
X9877663Y-10900886D01*
X9863230Y-10914544D01*
X9843092Y-10933522D01*
X9819030Y-10956139D01*
X9804861Y-10969434D01*
X9696865Y-11067058D01*
X9588462Y-11157918D01*
X9480861Y-11241122D01*
X9375275Y-11315775D01*
X9272916Y-11380985D01*
X9174994Y-11435858D01*
X9165861Y-11440554D01*
X9097202Y-11474271D01*
X9035348Y-11501665D01*
X8976963Y-11524061D01*
X8918714Y-11542782D01*
X8884450Y-11552275D01*
X8854652Y-11559824D01*
X8829851Y-11565137D01*
X8806527Y-11568610D01*
X8781157Y-11570635D01*
X8750223Y-11571608D01*
X8710202Y-11571923D01*
X8709025Y-11571926D01*
X8669657Y-11571861D01*
X8640060Y-11571234D01*
X8617303Y-11569723D01*
X8598460Y-11567007D01*
X8580602Y-11562763D01*
X8560800Y-11556671D01*
X8556127Y-11555128D01*
X8489631Y-11526561D01*
X8429513Y-11487528D01*
X8377143Y-11439035D01*
X8347069Y-11401748D01*
X8305673Y-11335414D01*
X8271259Y-11261929D01*
X8243691Y-11180666D01*
X8222832Y-11090992D01*
X8208544Y-10992277D01*
X8200690Y-10883893D01*
X8199133Y-10765207D01*
X8199927Y-10725537D01*
X8205366Y-10611457D01*
X8215647Y-10497495D01*
X8231132Y-10380973D01*
X8252186Y-10259213D01*
X8279174Y-10129537D01*
X8283765Y-10109200D01*
X8291738Y-10074155D01*
X8298965Y-10042288D01*
X8304857Y-10016198D01*
X8308827Y-9998484D01*
X8309966Y-9993312D01*
X8314860Y-9980662D01*
X8320660Y-9975850D01*
X8320660Y-9477140D01*
X8282866Y-9585530D01*
X8251868Y-9680529D01*
X8240544Y-9716367D01*
X8230524Y-9747761D01*
X8222424Y-9772810D01*
X8216859Y-9789613D01*
X8214444Y-9796266D01*
X8214423Y-9796293D01*
X8207799Y-9795283D01*
X8190956Y-9790824D01*
X8165720Y-9783485D01*
X8133919Y-9773834D01*
X8097381Y-9762441D01*
X8057933Y-9749874D01*
X8017403Y-9736702D01*
X7977619Y-9723495D01*
X7945702Y-9712647D01*
X7844356Y-9675917D01*
X7748274Y-9637040D01*
X7652363Y-9593854D01*
X7561908Y-9549474D01*
X7445784Y-9486470D01*
X7342227Y-9421665D01*
X7251237Y-9355058D01*
X7172816Y-9286652D01*
X7106964Y-9216447D01*
X7053683Y-9144443D01*
X7026445Y-9097919D01*
X7005180Y-9055015D01*
X6990161Y-9017730D01*
X6979898Y-8981609D01*
X6972900Y-8942199D01*
X6971940Y-8934950D01*
X6969232Y-8869084D01*
X6978058Y-8803305D01*
X6998623Y-8737042D01*
X7031129Y-8669724D01*
X7075779Y-8600780D01*
X7103749Y-8564239D01*
X7138469Y-8521053D01*
X7110637Y-8494389D01*
X7090983Y-8474477D01*
X7071479Y-8453028D01*
X7062500Y-8442325D01*
X7042194Y-8416925D01*
X7010280Y-8451850D01*
X6987677Y-8478694D01*
X6962518Y-8511987D01*
X6937012Y-8548464D01*
X6913365Y-8584863D01*
X6893783Y-8617922D01*
X6881246Y-8642605D01*
X6871797Y-8665584D01*
X6860655Y-8695045D01*
X6849937Y-8725355D01*
X6847943Y-8731284D01*
X6841099Y-8752714D01*
X6836255Y-8771125D01*
X6833072Y-8789481D01*
X6831209Y-8810751D01*
X6830325Y-8837898D01*
X6830079Y-8873891D01*
X6830078Y-8886825D01*
X6830288Y-8926576D01*
X6830288Y-8926576D01*
G37*
X6830288Y-8926576D02*
X6831077Y-8956713D01*
X6832786Y-8980319D01*
X6835755Y-9000477D01*
X6840325Y-9020271D01*
X6846836Y-9042784D01*
X6847570Y-9045183D01*
X6879826Y-9128960D01*
X6924448Y-9210681D01*
X6981252Y-9290215D01*
X7050052Y-9367431D01*
X7130661Y-9442199D01*
X7222894Y-9514388D01*
X7326566Y-9583868D01*
X7441489Y-9650507D01*
X7567479Y-9714176D01*
X7704349Y-9774743D01*
X7851913Y-9832078D01*
X8009986Y-9886050D01*
X8070850Y-9905065D01*
X8104963Y-9915767D01*
X8134319Y-9925546D01*
X8156975Y-9933707D01*
X8170988Y-9939557D01*
X8174665Y-9942148D01*
X8172990Y-9949709D01*
X8168927Y-9967577D01*
X8162947Y-9993688D01*
X8155523Y-10025975D01*
X8147808Y-10059432D01*
X8109231Y-10243866D01*
X8079743Y-10423290D01*
X8069983Y-10498131D01*
X8064977Y-10548436D01*
X8060951Y-10606115D01*
X8057937Y-10668690D01*
X8055968Y-10733685D01*
X8055076Y-10798622D01*
X8055293Y-10861025D01*
X8056652Y-10918415D01*
X8059185Y-10968315D01*
X8062925Y-11008249D01*
X8063272Y-11010900D01*
X8082098Y-11123463D01*
X8106987Y-11225284D01*
X8138160Y-11316894D01*
X8175841Y-11398828D01*
X8220249Y-11471620D01*
X8271609Y-11535802D01*
X8289464Y-11554525D01*
X8352739Y-11609608D01*
X8421645Y-11653518D01*
X8495922Y-11686333D01*
X8575311Y-11708132D01*
X8659552Y-11718991D01*
X8748386Y-11718990D01*
X8841553Y-11708207D01*
X8938793Y-11686720D01*
X9039847Y-11654606D01*
X9144456Y-11611945D01*
X9252360Y-11558815D01*
X9363300Y-11495293D01*
X9477015Y-11421458D01*
X9593247Y-11337389D01*
X9711736Y-11243162D01*
X9832222Y-11138857D01*
X9911283Y-11065883D01*
X9937343Y-11041489D01*
X9960277Y-11020480D01*
X9978483Y-11004288D01*
X9990356Y-10994345D01*
X9994174Y-10991850D01*
X10000848Y-10996071D01*
X10012785Y-11006838D01*
X10020641Y-11014769D01*
X10033357Y-11027496D01*
X10053034Y-11046482D01*
X10077255Y-11069425D01*
X10103600Y-11094021D01*
X10111116Y-11100970D01*
X10179707Y-11164252D01*
X10203916Y-11127263D01*
X10219680Y-11104964D01*
X10236308Y-11084203D01*
X10248176Y-11071491D01*
X10268227Y-11052708D01*
X10180802Y-10969283D01*
X10093378Y-10885857D01*
X10160495Y-10813441D01*
X10302937Y-10653494D01*
X10444753Y-10481675D01*
X10586276Y-10297582D01*
X10594236Y-10286852D01*
X10627078Y-10242471D01*
X10653221Y-10207210D01*
X10673579Y-10180025D01*
X10689068Y-10159873D01*
X10700603Y-10145711D01*
X10709101Y-10136494D01*
X10715475Y-10131179D01*
X10720642Y-10128722D01*
X10725517Y-10128081D01*
X10731015Y-10128211D01*
X10733358Y-10128246D01*
X10756446Y-10127241D01*
X10790364Y-10124384D01*
X10833413Y-10119905D01*
X10883893Y-10114029D01*
X10940106Y-10106987D01*
X11000353Y-10099005D01*
X11062934Y-10090311D01*
X11126151Y-10081134D01*
X11188305Y-10071701D01*
X11247697Y-10062241D01*
X11302628Y-10052980D01*
X11328400Y-10048404D01*
X11368050Y-10041014D01*
X11412034Y-10032468D01*
X11458206Y-10023217D01*
X11504423Y-10013713D01*
X11548537Y-10004407D01*
X11588405Y-9995751D01*
X11621880Y-9988197D01*
X11646818Y-9982196D01*
X11659553Y-9978700D01*
X11664324Y-9979144D01*
X11668879Y-9984849D01*
X11673875Y-9997546D01*
X11679972Y-10018968D01*
X11687830Y-10050848D01*
X11689189Y-10056585D01*
X11719002Y-10190608D01*
X11742910Y-10315641D01*
X11761169Y-10433803D01*
X11774034Y-10547209D01*
X11781761Y-10657976D01*
X11784607Y-10768222D01*
X11783958Y-10840678D01*
X11781523Y-10914532D01*
X11777486Y-10978512D01*
X11771486Y-11035381D01*
X11763165Y-11087905D01*
X11752162Y-11138847D01*
X11738649Y-11189153D01*
X11709485Y-11272102D01*
X11673070Y-11346035D01*
X11629821Y-11410483D01*
X11580152Y-11464975D01*
X11524478Y-11509041D01*
X11463214Y-11542212D01*
X11410950Y-11560454D01*
X11351231Y-11571498D01*
X11283656Y-11574832D01*
X11210390Y-11570541D01*
X11133599Y-11558714D01*
X11083404Y-11547179D01*
X11057304Y-11540518D01*
X11035915Y-11535283D01*
X11022148Y-11532176D01*
X11018758Y-11531623D01*
X11013822Y-11536974D01*
X11006558Y-11550547D01*
X11002557Y-11559657D01*
X10992623Y-11581086D01*
X10979337Y-11606374D01*
X10970148Y-11622361D01*
X10949257Y-11657054D01*
X11013416Y-11676743D01*
X11069231Y-11692929D01*
X11117610Y-11704530D01*
X11162689Y-11712189D01*
X11208606Y-11716551D01*
X11259498Y-11718259D01*
X11280775Y-11718347D01*
X11331751Y-11717444D01*
X11374032Y-11714496D01*
X11411548Y-11708811D01*
X11448230Y-11699698D01*
X11488010Y-11686465D01*
X11510881Y-11677858D01*
X11581553Y-11643798D01*
X11646860Y-11598638D01*
X11706365Y-11542984D01*
X11759633Y-11477442D01*
X11806228Y-11402615D01*
X11845714Y-11319110D01*
X11877656Y-11227531D01*
X11899756Y-11137900D01*
X11908197Y-11094463D01*
X11914838Y-11055605D01*
X11919882Y-11018822D01*
X11923530Y-10981610D01*
X11925986Y-10941465D01*
X11927451Y-10895882D01*
X11928128Y-10842359D01*
X11928231Y-10785475D01*
X11926603Y-10683495D01*
X11921788Y-10585754D01*
X11913454Y-10489556D01*
X11901269Y-10392206D01*
X11884903Y-10291010D01*
X11864024Y-10183272D01*
X11841589Y-10080625D01*
X11833109Y-10043428D01*
X11825475Y-10009846D01*
X11819192Y-9982107D01*
X11814766Y-9962444D01*
X11812760Y-9953362D01*
X11812799Y-9946668D01*
X11817638Y-9941197D01*
X11829478Y-9935725D01*
X11850521Y-9929029D01*
X11862900Y-9925481D01*
X11998893Y-9884328D01*
X12132222Y-9838523D01*
X12261456Y-9788718D01*
X12385162Y-9735561D01*
X12501908Y-9679702D01*
X12610263Y-9621791D01*
X12708794Y-9562476D01*
X12796069Y-9502408D01*
X12796761Y-9501894D01*
X12888000Y-9428364D01*
X12967066Y-9352429D01*
X13033879Y-9274190D01*
X13088363Y-9193748D01*
X13130439Y-9111203D01*
X13157389Y-9036050D01*
X13164865Y-9001574D01*
X13170289Y-8959119D01*
X13173516Y-8912549D01*
X13174402Y-8865725D01*
X13172804Y-8822512D01*
X13168578Y-8786774D01*
X13166960Y-8778875D01*
X13141532Y-8694380D01*
X13104797Y-8612735D01*
X13056543Y-8533676D01*
X12996555Y-8456936D01*
X12924621Y-8382252D01*
X12840528Y-8309358D01*
X12744061Y-8237990D01*
X12715862Y-8218945D01*
X12622452Y-8161248D01*
X12518050Y-8104467D01*
X12404364Y-8049346D01*
X12283099Y-7996626D01*
X12155963Y-7947052D01*
X12024663Y-7901365D01*
X11893550Y-7861068D01*
X11864635Y-7852516D01*
X11840171Y-7844815D01*
X11822771Y-7838819D01*
X11815088Y-7835419D01*
X11814605Y-7827932D01*
X11816864Y-7810385D01*
X11821478Y-7785022D01*
X11828059Y-7754092D01*
X11832148Y-7736483D01*
X11852793Y-7645438D01*
X11871606Y-7553548D01*
X11887645Y-7465580D01*
X11896485Y-7410450D01*
X11900933Y-7380914D01*
X11904957Y-7354491D01*
X11908015Y-7334709D01*
X11909265Y-7326871D01*
X11912058Y-7309968D01*
X11839334Y-7310996D01*
X11772157Y-7311946D01*
X11772157Y-7975600D01*
X11781442Y-7977504D01*
X11800804Y-7982801D01*
X11828271Y-7990871D01*
X11861872Y-8001090D01*
X11899634Y-8012838D01*
X11939587Y-8025493D01*
X11979758Y-8038432D01*
X12018177Y-8051034D01*
X12052870Y-8062678D01*
X12081867Y-8072741D01*
X12093363Y-8076893D01*
X12233952Y-8131839D01*
X12363944Y-8189257D01*
X12483123Y-8248986D01*
X12591272Y-8310866D01*
X12688173Y-8374737D01*
X12773610Y-8440437D01*
X12847365Y-8507805D01*
X12909223Y-8576681D01*
X12958965Y-8646905D01*
X12996375Y-8718315D01*
X13011274Y-8757018D01*
X13028190Y-8824736D01*
X13032984Y-8892524D01*
X13025723Y-8962155D01*
X13020071Y-8988425D01*
X12997509Y-9055666D01*
X12962598Y-9123211D01*
X12915673Y-9190671D01*
X12857068Y-9257662D01*
X12787116Y-9323797D01*
X12706150Y-9388688D01*
X12626975Y-9443855D01*
X12584137Y-9470336D01*
X12532060Y-9499978D01*
X12473382Y-9531454D01*
X12410744Y-9563435D01*
X12346786Y-9594593D01*
X12284146Y-9623599D01*
X12225466Y-9649126D01*
X12192000Y-9662714D01*
X12151666Y-9678118D01*
X12107196Y-9694377D01*
X12060120Y-9711000D01*
X12011970Y-9727497D01*
X11964276Y-9743376D01*
X11918569Y-9758147D01*
X11876380Y-9771319D01*
X11839240Y-9782402D01*
X11808679Y-9790904D01*
X11786230Y-9796335D01*
X11773422Y-9798204D01*
X11771100Y-9797633D01*
X11768694Y-9791154D01*
X11762805Y-9774050D01*
X11753917Y-9747762D01*
X11742513Y-9713730D01*
X11729077Y-9673394D01*
X11714092Y-9628195D01*
X11704125Y-9598025D01*
X11661166Y-9472477D01*
X11614370Y-9344172D01*
X11565240Y-9217002D01*
X11515276Y-9094861D01*
X11469509Y-8989491D01*
X11424413Y-8888958D01*
X11465892Y-8795816D01*
X11496820Y-8724866D01*
X11528748Y-8648845D01*
X11561062Y-8569400D01*
X11593149Y-8488180D01*
X11624393Y-8406835D01*
X11654181Y-8327012D01*
X11681899Y-8250359D01*
X11706931Y-8178527D01*
X11728665Y-8113162D01*
X11746485Y-8055914D01*
X11759778Y-8008432D01*
X11760870Y-8004144D01*
X11765916Y-7987273D01*
X11770520Y-7977028D01*
X11772157Y-7975600D01*
X11772157Y-7311946D01*
X11766609Y-7312025D01*
X11763389Y-7331075D01*
X11760808Y-7347178D01*
X11757218Y-7370600D01*
X11753645Y-7394575D01*
X11745346Y-7446176D01*
X11734519Y-7506024D01*
X11721959Y-7570105D01*
X11708454Y-7634408D01*
X11694798Y-7694919D01*
X11692457Y-7704793D01*
X11669923Y-7799112D01*
X11653149Y-7795586D01*
X11641792Y-7793158D01*
X11620296Y-7788525D01*
X11590935Y-7782179D01*
X11555979Y-7774611D01*
X11517702Y-7766312D01*
X11517524Y-7766274D01*
X11412999Y-7744785D01*
X11300578Y-7723843D01*
X11185062Y-7704309D01*
X11093270Y-7690218D01*
X11068188Y-7686730D01*
X11035292Y-7682418D01*
X10996574Y-7677517D01*
X10954028Y-7672265D01*
X10909644Y-7666895D01*
X10865418Y-7661646D01*
X10823340Y-7656751D01*
X10813988Y-7655691D01*
X10813988Y-7799935D01*
X10885456Y-7808345D01*
X11020454Y-7825626D01*
X11156373Y-7845695D01*
X11289755Y-7867975D01*
X11417143Y-7891893D01*
X11527890Y-7915254D01*
X11561625Y-7922778D01*
X11590763Y-7929214D01*
X11613161Y-7934094D01*
X11626680Y-7936950D01*
X11629682Y-7937500D01*
X11629258Y-7943320D01*
X11625009Y-7960064D01*
X11617265Y-7986652D01*
X11606355Y-8022005D01*
X11592610Y-8065046D01*
X11576359Y-8114695D01*
X11565705Y-8146721D01*
X11513156Y-8296843D01*
X11455204Y-8449774D01*
X11395826Y-8595384D01*
X11346917Y-8710916D01*
X11346917Y-9067423D01*
X11347545Y-9068196D01*
X11352736Y-9079097D01*
X11361839Y-9099907D01*
X11374079Y-9128733D01*
X11388679Y-9163684D01*
X11404860Y-9202865D01*
X11421846Y-9244384D01*
X11438861Y-9286348D01*
X11455126Y-9326865D01*
X11469865Y-9364042D01*
X11482300Y-9395985D01*
X11484762Y-9402418D01*
X11497467Y-9436504D01*
X11511867Y-9476417D01*
X11527406Y-9520486D01*
X11543524Y-9567038D01*
X11559664Y-9614403D01*
X11575267Y-9660907D01*
X11589776Y-9704879D01*
X11602632Y-9744647D01*
X11613278Y-9778538D01*
X11621154Y-9804881D01*
X11625704Y-9822004D01*
X11626612Y-9827371D01*
X11624423Y-9836210D01*
X11615503Y-9842155D01*
X11596902Y-9847161D01*
X11596687Y-9847207D01*
X11499563Y-9867552D01*
X11412649Y-9885224D01*
X11333828Y-9900595D01*
X11260980Y-9914038D01*
X11191988Y-9925926D01*
X11124732Y-9936631D01*
X11057095Y-9946528D01*
X10986959Y-9955989D01*
X10957073Y-9959818D01*
X10918016Y-9964706D01*
X10883041Y-9968994D01*
X10854188Y-9972437D01*
X10833493Y-9974795D01*
X10822995Y-9975824D01*
X10822349Y-9975850D01*
X10822873Y-9970879D01*
X10829483Y-9957167D01*
X10841185Y-9936516D01*
X10856983Y-9910724D01*
X10867130Y-9894887D01*
X10948064Y-9767482D01*
X11029331Y-9633910D01*
X11109037Y-9497458D01*
X11185291Y-9361413D01*
X11256199Y-9229063D01*
X11302821Y-9138025D01*
X11320228Y-9104294D01*
X11333124Y-9081683D01*
X11341893Y-9069592D01*
X11346917Y-9067423D01*
X11346917Y-8710916D01*
X11344203Y-8717327D01*
X11277564Y-8589351D01*
X11168013Y-8384943D01*
X11056304Y-8188719D01*
X10939797Y-7996174D01*
X10824741Y-7816330D01*
X10813988Y-7799935D01*
X10813988Y-7655691D01*
X10785404Y-7652449D01*
X10753602Y-7648973D01*
X10729927Y-7646562D01*
X10716372Y-7645449D01*
X10714824Y-7645402D01*
X10708959Y-7640485D01*
X10697119Y-7626848D01*
X10680636Y-7606156D01*
X10660844Y-7580074D01*
X10642415Y-7554912D01*
X10555562Y-7437518D01*
X10464168Y-7319651D01*
X10370877Y-7204596D01*
X10278335Y-7095639D01*
X10217786Y-7027374D01*
X10191377Y-6998109D01*
X10165930Y-6969792D01*
X10143524Y-6944748D01*
X10126241Y-6925299D01*
X10118830Y-6916864D01*
X10093536Y-6887804D01*
X10153755Y-6831305D01*
X10279886Y-6717086D01*
X10402937Y-6613964D01*
X10522738Y-6522045D01*
X10639120Y-6441434D01*
X10751914Y-6372237D01*
X10860949Y-6314560D01*
X10966057Y-6268508D01*
X11067069Y-6234187D01*
X11140136Y-6216189D01*
X11207327Y-6206131D01*
X11275009Y-6202769D01*
X11340604Y-6205906D01*
X11401535Y-6215342D01*
X11455224Y-6230879D01*
X11481873Y-6242527D01*
X11542463Y-6279985D01*
X11596224Y-6326806D01*
X11640867Y-6380965D01*
X11644421Y-6386223D01*
X11656732Y-6403638D01*
X11666751Y-6415789D01*
X11671889Y-6419850D01*
X11680388Y-6418354D01*
X11697131Y-6414479D01*
X11713599Y-6410325D01*
X11741049Y-6404805D01*
X11770190Y-6401367D01*
X11783759Y-6400800D01*
X11802468Y-6399970D01*
X11814662Y-6397837D01*
X11817350Y-6395936D01*
X11813891Y-6386284D01*
X11804591Y-6368897D01*
X11791059Y-6346326D01*
X11774907Y-6321118D01*
X11757745Y-6295823D01*
X11741186Y-6272990D01*
X11733062Y-6262583D01*
X11684894Y-6211508D01*
X11627553Y-6164863D01*
X11564388Y-6124956D01*
X11498749Y-6094098D01*
X11477625Y-6086463D01*
X11417607Y-6070998D01*
X11349794Y-6061383D01*
X11277759Y-6057815D01*
X11205079Y-6060489D01*
X11143781Y-6068102D01*
X11037926Y-6091900D01*
X10928579Y-6127809D01*
X10815727Y-6175836D01*
X10699354Y-6235992D01*
X10579447Y-6308283D01*
X10455991Y-6392718D01*
X10328973Y-6489307D01*
X10198378Y-6598057D01*
X10074646Y-6709238D01*
X9993084Y-6785007D01*
X9993084Y-6992007D01*
X10066277Y-7072641D01*
X10118466Y-7130624D01*
X10165557Y-7184106D01*
X10210633Y-7236687D01*
X10256778Y-7291969D01*
X10307075Y-7353553D01*
X10312009Y-7359650D01*
X10341454Y-7396376D01*
X10371602Y-7434555D01*
X10401416Y-7472817D01*
X10429858Y-7509791D01*
X10455893Y-7544107D01*
X10478482Y-7574396D01*
X10496589Y-7599288D01*
X10509177Y-7617411D01*
X10515210Y-7627397D01*
X10515586Y-7628625D01*
X10510436Y-7631564D01*
X10501312Y-7630624D01*
X10491600Y-7629537D01*
X10470856Y-7628093D01*
X10440741Y-7626378D01*
X10402917Y-7624479D01*
X10359044Y-7622481D01*
X10310783Y-7620469D01*
X10287000Y-7619542D01*
X10213081Y-7617314D01*
X10131384Y-7615890D01*
X10044493Y-7615248D01*
X10019337Y-7615280D01*
X10019337Y-7762716D01*
X10103734Y-7762857D01*
X10186237Y-7763474D01*
X10265563Y-7764566D01*
X10340428Y-7766133D01*
X10409547Y-7768175D01*
X10471638Y-7770693D01*
X10525415Y-7773686D01*
X10569596Y-7777154D01*
X10602896Y-7781097D01*
X10613109Y-7782851D01*
X10619666Y-7785346D01*
X10627292Y-7791141D01*
X10636898Y-7801419D01*
X10649398Y-7817364D01*
X10665704Y-7840159D01*
X10686729Y-7870990D01*
X10713387Y-7911038D01*
X10721852Y-7923864D01*
X10803462Y-8050611D01*
X10886126Y-8184581D01*
X10966910Y-8320943D01*
X11027060Y-8426450D01*
X11041568Y-8452795D01*
X11059414Y-8485882D01*
X11079856Y-8524275D01*
X11102155Y-8566539D01*
X11125569Y-8611241D01*
X11149357Y-8656945D01*
X11172778Y-8702217D01*
X11195092Y-8745622D01*
X11215556Y-8785726D01*
X11233431Y-8821093D01*
X11247974Y-8850291D01*
X11258446Y-8871882D01*
X11264105Y-8884435D01*
X11264900Y-8886919D01*
X11262152Y-8893280D01*
X11254378Y-8909549D01*
X11242279Y-8934301D01*
X11226560Y-8966108D01*
X11207922Y-9003544D01*
X11187068Y-9045184D01*
X11179564Y-9060113D01*
X11093416Y-9227116D01*
X11007201Y-9385430D01*
X10918709Y-9538886D01*
X10825731Y-9691313D01*
X10726057Y-9846539D01*
X10724023Y-9849633D01*
X10629544Y-9993291D01*
X10580509Y-9997238D01*
X10501813Y-10002965D01*
X10494150Y-10003401D01*
X10494150Y-10148326D01*
X10509516Y-10148408D01*
X10515595Y-10149930D01*
X10515600Y-10149994D01*
X10511971Y-10156258D01*
X10501969Y-10170772D01*
X10486916Y-10191683D01*
X10468135Y-10217140D01*
X10457232Y-10231696D01*
X10398232Y-10308710D01*
X10335654Y-10387922D01*
X10271335Y-10467121D01*
X10207116Y-10544097D01*
X10144833Y-10616639D01*
X10086326Y-10682538D01*
X10044699Y-10727687D01*
X9991523Y-10784200D01*
X9908770Y-10692762D01*
X9834494Y-10609665D01*
X9766801Y-10531589D01*
X9702822Y-10455070D01*
X9639690Y-10376645D01*
X9574537Y-10292850D01*
X9539190Y-10246379D01*
X9516866Y-10216517D01*
X9497680Y-10190232D01*
X9482775Y-10169142D01*
X9473293Y-10154862D01*
X9470376Y-10149010D01*
X9470392Y-10148990D01*
X9477222Y-10148537D01*
X9494999Y-10148699D01*
X9521989Y-10149421D01*
X9556456Y-10150650D01*
X9596664Y-10152333D01*
X9632034Y-10153982D01*
X9668307Y-10155350D01*
X9714189Y-10156451D01*
X9768105Y-10157291D01*
X9828483Y-10157880D01*
X9893749Y-10158225D01*
X9962330Y-10158333D01*
X10032652Y-10158214D01*
X10103141Y-10157875D01*
X10172224Y-10157324D01*
X10238329Y-10156569D01*
X10299880Y-10155618D01*
X10355306Y-10154479D01*
X10403032Y-10153160D01*
X10441485Y-10151670D01*
X10469091Y-10150015D01*
X10472737Y-10149705D01*
X10494150Y-10148326D01*
X10494150Y-10003401D01*
X10421400Y-10007547D01*
X10337221Y-10011051D01*
X10247228Y-10013541D01*
X10149372Y-10015084D01*
X10041605Y-10015745D01*
X10001250Y-10015780D01*
X9916321Y-10015591D01*
X9841247Y-10015026D01*
X9773188Y-10013996D01*
X9709302Y-10012409D01*
X9646747Y-10010176D01*
X9582683Y-10007206D01*
X9514268Y-10003409D01*
X9438660Y-9998696D01*
X9415839Y-9997201D01*
X9354303Y-9993136D01*
X9272419Y-9868605D01*
X9149733Y-9676774D01*
X9035177Y-9486458D01*
X8926312Y-9293426D01*
X8820702Y-9093448D01*
X8783075Y-9019070D01*
X8718973Y-8890966D01*
X8754626Y-8815870D01*
X8808657Y-8705816D01*
X8869664Y-8588282D01*
X8936394Y-8465462D01*
X9007593Y-8339551D01*
X9082008Y-8212742D01*
X9158388Y-8087229D01*
X9235479Y-7965208D01*
X9274713Y-7904955D01*
X9352561Y-7786686D01*
X9386393Y-7782833D01*
X9430058Y-7778696D01*
X9483384Y-7775035D01*
X9545087Y-7771849D01*
X9613884Y-7769138D01*
X9688491Y-7766903D01*
X9767623Y-7765143D01*
X9849998Y-7763859D01*
X9934330Y-7763049D01*
X10019337Y-7762716D01*
X10019337Y-7615280D01*
X9954991Y-7615364D01*
X9865461Y-7616213D01*
X9778487Y-7617773D01*
X9696653Y-7620019D01*
X9622540Y-7622928D01*
X9563341Y-7626173D01*
X9530593Y-7628106D01*
X9502616Y-7629398D01*
X9481726Y-7629970D01*
X9470239Y-7629744D01*
X9468785Y-7629402D01*
X9471169Y-7623172D01*
X9480776Y-7608232D01*
X9496758Y-7585681D01*
X9518270Y-7556615D01*
X9544464Y-7522133D01*
X9574494Y-7483331D01*
X9607514Y-7441308D01*
X9642677Y-7397162D01*
X9679135Y-7351989D01*
X9716043Y-7306887D01*
X9738087Y-7280275D01*
X9778761Y-7231638D01*
X9813983Y-7190109D01*
X9846220Y-7152869D01*
X9877944Y-7117098D01*
X9911623Y-7079979D01*
X9949727Y-7038693D01*
X9950635Y-7037716D01*
X9993084Y-6992007D01*
X9993084Y-6785007D01*
X9991698Y-6786295D01*
X9925036Y-6723057D01*
X9795363Y-6604721D01*
X9667522Y-6497426D01*
X9541752Y-6401322D01*
X9418294Y-6316559D01*
X9297386Y-6243287D01*
X9179270Y-6181656D01*
X9064185Y-6131817D01*
X8952371Y-6093920D01*
X8896350Y-6079160D01*
X8848127Y-6069995D01*
X8793498Y-6063343D01*
X8736401Y-6059405D01*
X8685268Y-6058465D01*
X8685268Y-6203135D01*
X8741620Y-6204053D01*
X8797827Y-6208880D01*
X8843439Y-6216219D01*
X8938119Y-6240752D01*
X9037368Y-6276546D01*
X9140584Y-6323263D01*
X9247168Y-6380563D01*
X9356519Y-6448107D01*
X9468038Y-6525556D01*
X9581123Y-6612571D01*
X9658350Y-6676808D01*
X9693059Y-6706909D01*
X9728453Y-6738240D01*
X9763240Y-6769594D01*
X9796130Y-6799765D01*
X9825831Y-6827544D01*
X9851053Y-6851727D01*
X9870505Y-6871106D01*
X9882895Y-6884474D01*
X9886950Y-6890483D01*
X9882830Y-6897261D01*
X9871646Y-6911086D01*
X9855159Y-6929872D01*
X9837310Y-6949228D01*
X9763075Y-7030290D01*
X9684622Y-7120128D01*
X9603866Y-7216401D01*
X9522724Y-7316764D01*
X9443113Y-7418874D01*
X9366949Y-7520389D01*
X9340962Y-7556035D01*
X9316878Y-7589002D01*
X9298630Y-7612961D01*
X9284873Y-7629377D01*
X9274260Y-7639716D01*
X9265446Y-7645442D01*
X9257084Y-7648023D01*
X9256367Y-7648141D01*
X9242921Y-7649934D01*
X9219683Y-7652704D01*
X9189494Y-7656126D01*
X9157612Y-7659609D01*
X9157612Y-7804150D01*
X9160295Y-7806652D01*
X9158065Y-7814884D01*
X9150346Y-7829931D01*
X9136566Y-7852877D01*
X9116148Y-7884809D01*
X9109734Y-7894637D01*
X9087549Y-7929006D01*
X9061047Y-7970829D01*
X9032395Y-8016638D01*
X9003761Y-8062968D01*
X8977311Y-8106352D01*
X8975758Y-8108922D01*
X8924461Y-8195251D01*
X8872364Y-8285464D01*
X8821169Y-8376507D01*
X8772575Y-8465329D01*
X8728284Y-8548876D01*
X8700724Y-8602639D01*
X8683445Y-8636533D01*
X8667966Y-8666164D01*
X8655226Y-8689797D01*
X8646160Y-8705695D01*
X8641709Y-8712122D01*
X8641557Y-8712176D01*
X8640783Y-8711040D01*
X8640783Y-9060404D01*
X8702817Y-9179989D01*
X8777412Y-9320591D01*
X8855037Y-9460858D01*
X8934077Y-9597998D01*
X9012913Y-9729218D01*
X9089930Y-9851726D01*
X9106518Y-9877306D01*
X9126340Y-9907865D01*
X9143399Y-9934494D01*
X9156617Y-9955486D01*
X9164917Y-9969132D01*
X9167288Y-9973727D01*
X9160899Y-9973363D01*
X9143842Y-9971592D01*
X9118049Y-9968634D01*
X9085447Y-9964714D01*
X9047965Y-9960052D01*
X9042286Y-9959333D01*
X8911316Y-9941556D01*
X8786911Y-9922125D01*
X8662954Y-9900058D01*
X8608421Y-9889544D01*
X8563082Y-9880443D01*
X8518206Y-9871121D01*
X8475564Y-9861978D01*
X8436924Y-9853409D01*
X8404058Y-9845815D01*
X8378735Y-9839593D01*
X8362724Y-9835142D01*
X8357844Y-9833161D01*
X8358633Y-9826317D01*
X8362893Y-9809329D01*
X8370040Y-9784089D01*
X8379490Y-9752488D01*
X8390657Y-9716417D01*
X8402958Y-9677768D01*
X8415809Y-9638432D01*
X8428624Y-9600300D01*
X8439335Y-9569450D01*
X8469463Y-9485883D01*
X8501127Y-9401030D01*
X8533315Y-9317464D01*
X8565017Y-9237761D01*
X8595221Y-9164495D01*
X8622916Y-9100242D01*
X8628418Y-9087914D01*
X8640783Y-9060404D01*
X8640783Y-8711040D01*
X8637704Y-8706517D01*
X8629883Y-8690524D01*
X8618717Y-8665705D01*
X8604830Y-8633567D01*
X8588846Y-8595617D01*
X8571390Y-8553362D01*
X8553085Y-8508309D01*
X8534555Y-8461966D01*
X8516424Y-8415839D01*
X8499317Y-8371435D01*
X8487583Y-8340304D01*
X8468785Y-8289041D01*
X8450128Y-8236648D01*
X8432064Y-8184529D01*
X8415043Y-8134091D01*
X8399516Y-8086737D01*
X8385934Y-8043873D01*
X8374749Y-8006904D01*
X8366411Y-7977235D01*
X8361371Y-7956271D01*
X8360080Y-7945417D01*
X8360492Y-7944342D01*
X8368128Y-7941588D01*
X8386292Y-7936725D01*
X8413068Y-7930184D01*
X8446541Y-7922393D01*
X8484795Y-7913781D01*
X8525914Y-7904778D01*
X8567982Y-7895813D01*
X8609084Y-7887316D01*
X8647303Y-7879716D01*
X8658225Y-7877617D01*
X8697015Y-7870531D01*
X8742312Y-7862746D01*
X8792330Y-7854525D01*
X8845284Y-7846131D01*
X8899388Y-7837827D01*
X8952857Y-7829876D01*
X9003905Y-7822539D01*
X9050749Y-7816080D01*
X9091602Y-7810761D01*
X9124678Y-7806845D01*
X9148194Y-7804595D01*
X9157612Y-7804150D01*
X9157612Y-7659609D01*
X9155195Y-7659874D01*
X9140825Y-7661406D01*
X8997978Y-7678426D01*
X8849452Y-7699680D01*
X8700134Y-7724374D01*
X8554909Y-7751712D01*
X8451850Y-7773423D01*
X8414475Y-7781638D01*
X8381044Y-7788870D01*
X8353660Y-7794672D01*
X8334427Y-7798598D01*
X8325450Y-7800203D01*
X8325402Y-7800208D01*
X8320318Y-7796524D01*
X8314268Y-7784249D01*
X8307078Y-7762736D01*
X8298577Y-7731341D01*
X8288590Y-7689420D01*
X8276945Y-7636328D01*
X8263470Y-7571419D01*
X8261730Y-7562850D01*
X8233899Y-7409086D01*
X8213939Y-7261797D01*
X8201859Y-7121511D01*
X8197668Y-6988755D01*
X8201374Y-6864057D01*
X8212985Y-6747946D01*
X8232510Y-6640949D01*
X8246068Y-6588125D01*
X8274556Y-6506058D01*
X8310524Y-6432640D01*
X8353489Y-6368402D01*
X8402965Y-6313875D01*
X8458467Y-6269590D01*
X8519511Y-6236077D01*
X8585612Y-6213867D01*
X8588375Y-6213217D01*
X8632833Y-6206174D01*
X8685268Y-6203135D01*
X8685268Y-6058465D01*
X8680775Y-6058382D01*
X8630558Y-6060473D01*
X8599620Y-6064074D01*
X8542900Y-6076751D01*
X8483622Y-6096133D01*
X8427643Y-6120135D01*
X8398337Y-6135734D01*
X8350542Y-6168774D01*
X8302231Y-6211663D01*
X8255673Y-6261863D01*
X8213135Y-6316833D01*
X8176887Y-6374031D01*
X8164159Y-6397959D01*
X8143333Y-6445411D01*
X8122984Y-6502721D01*
X8103895Y-6567052D01*
X8086848Y-6635566D01*
X8072626Y-6705427D01*
X8063481Y-6762750D01*
X8060581Y-6792144D01*
X8058328Y-6831795D01*
X8056724Y-6879275D01*
X8055768Y-6932159D01*
X8055459Y-6988020D01*
X8055797Y-7044430D01*
X8056783Y-7098963D01*
X8058415Y-7149193D01*
X8060694Y-7192692D01*
X8063537Y-7226300D01*
X8071383Y-7290475D01*
X8081434Y-7362216D01*
X8092960Y-7436878D01*
X8105234Y-7509820D01*
X8117527Y-7576399D01*
X8121780Y-7597734D01*
X8130218Y-7638162D01*
X8139243Y-7679841D01*
X8148341Y-7720548D01*
X8156998Y-7758061D01*
X8164700Y-7790156D01*
X8170931Y-7814610D01*
X8175177Y-7829200D01*
X8175629Y-7830445D01*
X8174911Y-7836251D01*
X8166803Y-7842005D01*
X8149460Y-7848685D01*
X8129878Y-7854717D01*
X8101341Y-7863298D01*
X8067325Y-7873885D01*
X8029867Y-7885807D01*
X7991009Y-7898387D01*
X7952790Y-7910954D01*
X7917248Y-7922832D01*
X7886424Y-7933348D01*
X7862357Y-7941828D01*
X7847086Y-7947599D01*
X7842906Y-7949535D01*
X7838929Y-7954524D01*
X7839147Y-7963623D01*
X7844008Y-7979534D01*
X7850737Y-7996986D01*
X7860006Y-8022359D01*
X7867584Y-8047071D01*
X7871463Y-8063887D01*
X7875491Y-8089076D01*
X7952533Y-8061794D01*
X7984234Y-8050866D01*
X8019859Y-8039076D01*
X8057435Y-8027021D01*
X8094983Y-8015302D01*
X8130530Y-8004517D01*
X8162100Y-7995264D01*
X8187716Y-7988141D01*
X8205403Y-7983748D01*
X8213186Y-7982683D01*
X8213335Y-7982772D01*
X8215797Y-7989142D01*
X8221778Y-8006143D01*
X8230791Y-8032351D01*
X8242353Y-8066345D01*
X8255978Y-8106702D01*
X8271183Y-8151999D01*
X8282262Y-8185150D01*
X8339645Y-8350006D01*
X8401502Y-8514436D01*
X8466101Y-8673958D01*
X8514614Y-8786129D01*
X8560275Y-8888634D01*
X8518004Y-8982979D01*
X8468470Y-9097007D01*
X8418791Y-9217940D01*
X8370366Y-9342113D01*
X8324592Y-9465864D01*
X8320660Y-9477140D01*
X8320660Y-9975850D01*
X8328831Y-9977189D01*
X8347264Y-9980909D01*
X8373839Y-9986558D01*
X8406436Y-9993688D01*
X8438929Y-10000945D01*
X8559235Y-10026408D01*
X8688286Y-10050708D01*
X8822136Y-10073205D01*
X8956841Y-10093261D01*
X9088456Y-10110237D01*
X9169882Y-10119256D01*
X9275139Y-10130082D01*
X9352349Y-10235528D01*
X9451083Y-10367651D01*
X9547350Y-10490760D01*
X9643401Y-10607629D01*
X9741491Y-10721035D01*
X9793656Y-10779125D01*
X9827137Y-10816318D01*
X9852381Y-10845252D01*
X9870032Y-10866743D01*
X9880738Y-10881607D01*
X9885143Y-10890662D01*
X9884608Y-10894229D01*
X9877663Y-10900886D01*
X9863230Y-10914544D01*
X9843092Y-10933522D01*
X9819030Y-10956139D01*
X9804861Y-10969434D01*
X9696865Y-11067058D01*
X9588462Y-11157918D01*
X9480861Y-11241122D01*
X9375275Y-11315775D01*
X9272916Y-11380985D01*
X9174994Y-11435858D01*
X9165861Y-11440554D01*
X9097202Y-11474271D01*
X9035348Y-11501665D01*
X8976963Y-11524061D01*
X8918714Y-11542782D01*
X8884450Y-11552275D01*
X8854652Y-11559824D01*
X8829851Y-11565137D01*
X8806527Y-11568610D01*
X8781157Y-11570635D01*
X8750223Y-11571608D01*
X8710202Y-11571923D01*
X8709025Y-11571926D01*
X8669657Y-11571861D01*
X8640060Y-11571234D01*
X8617303Y-11569723D01*
X8598460Y-11567007D01*
X8580602Y-11562763D01*
X8560800Y-11556671D01*
X8556127Y-11555128D01*
X8489631Y-11526561D01*
X8429513Y-11487528D01*
X8377143Y-11439035D01*
X8347069Y-11401748D01*
X8305673Y-11335414D01*
X8271259Y-11261929D01*
X8243691Y-11180666D01*
X8222832Y-11090992D01*
X8208544Y-10992277D01*
X8200690Y-10883893D01*
X8199133Y-10765207D01*
X8199927Y-10725537D01*
X8205366Y-10611457D01*
X8215647Y-10497495D01*
X8231132Y-10380973D01*
X8252186Y-10259213D01*
X8279174Y-10129537D01*
X8283765Y-10109200D01*
X8291738Y-10074155D01*
X8298965Y-10042288D01*
X8304857Y-10016198D01*
X8308827Y-9998484D01*
X8309966Y-9993312D01*
X8314860Y-9980662D01*
X8320660Y-9975850D01*
X8320660Y-9477140D01*
X8282866Y-9585530D01*
X8251868Y-9680529D01*
X8240544Y-9716367D01*
X8230524Y-9747761D01*
X8222424Y-9772810D01*
X8216859Y-9789613D01*
X8214444Y-9796266D01*
X8214423Y-9796293D01*
X8207799Y-9795283D01*
X8190956Y-9790824D01*
X8165720Y-9783485D01*
X8133919Y-9773834D01*
X8097381Y-9762441D01*
X8057933Y-9749874D01*
X8017403Y-9736702D01*
X7977619Y-9723495D01*
X7945702Y-9712647D01*
X7844356Y-9675917D01*
X7748274Y-9637040D01*
X7652363Y-9593854D01*
X7561908Y-9549474D01*
X7445784Y-9486470D01*
X7342227Y-9421665D01*
X7251237Y-9355058D01*
X7172816Y-9286652D01*
X7106964Y-9216447D01*
X7053683Y-9144443D01*
X7026445Y-9097919D01*
X7005180Y-9055015D01*
X6990161Y-9017730D01*
X6979898Y-8981609D01*
X6972900Y-8942199D01*
X6971940Y-8934950D01*
X6969232Y-8869084D01*
X6978058Y-8803305D01*
X6998623Y-8737042D01*
X7031129Y-8669724D01*
X7075779Y-8600780D01*
X7103749Y-8564239D01*
X7138469Y-8521053D01*
X7110637Y-8494389D01*
X7090983Y-8474477D01*
X7071479Y-8453028D01*
X7062500Y-8442325D01*
X7042194Y-8416925D01*
X7010280Y-8451850D01*
X6987677Y-8478694D01*
X6962518Y-8511987D01*
X6937012Y-8548464D01*
X6913365Y-8584863D01*
X6893783Y-8617922D01*
X6881246Y-8642605D01*
X6871797Y-8665584D01*
X6860655Y-8695045D01*
X6849937Y-8725355D01*
X6847943Y-8731284D01*
X6841099Y-8752714D01*
X6836255Y-8771125D01*
X6833072Y-8789481D01*
X6831209Y-8810751D01*
X6830325Y-8837898D01*
X6830079Y-8873891D01*
X6830078Y-8886825D01*
X6830288Y-8926576D01*
G36*
X16341724Y-9445790D02*
X16371405Y-9455572D01*
X16389350Y-9460637D01*
X16408684Y-9470742D01*
X16421100Y-9480550D01*
X16439508Y-9494729D01*
X16446500Y-9497802D01*
X16464847Y-9502977D01*
X16501872Y-9517349D01*
X16553301Y-9539236D01*
X16567150Y-9545347D01*
X16599478Y-9559437D01*
X16620801Y-9568234D01*
X16624300Y-9569450D01*
X16638800Y-9575110D01*
X16667777Y-9587525D01*
X16681450Y-9593552D01*
X16742572Y-9620492D01*
X16783208Y-9637942D01*
X16802064Y-9645347D01*
X16802100Y-9645357D01*
X16816606Y-9651198D01*
X16845593Y-9663722D01*
X16859250Y-9669752D01*
X16922352Y-9697557D01*
X16962605Y-9714779D01*
X16979900Y-9721425D01*
X16994202Y-9727257D01*
X17023570Y-9740220D01*
X17043400Y-9749192D01*
X17098040Y-9773199D01*
X17132537Y-9786056D01*
X17149144Y-9788588D01*
X17150149Y-9788177D01*
X17161915Y-9793602D01*
X17181766Y-9809543D01*
X17200647Y-9823608D01*
X17208500Y-9823450D01*
X17216178Y-9822637D01*
X17230725Y-9833276D01*
X17251756Y-9849541D01*
X17262341Y-9854642D01*
X17291074Y-9862826D01*
X17339826Y-9882623D01*
X17373600Y-9897707D01*
X17408347Y-9912952D01*
X17432997Y-9922661D01*
X17439216Y-9924410D01*
X17455387Y-9930465D01*
X17451870Y-9942277D01*
X17432698Y-9956516D01*
X17401901Y-9969850D01*
X17375783Y-9976823D01*
X17349538Y-9984868D01*
X17337683Y-9989649D01*
X17316431Y-9998748D01*
X17310100Y-10001217D01*
X17293297Y-10007629D01*
X17263550Y-10019416D01*
X17231429Y-10032356D01*
X17208500Y-10041804D01*
X17188143Y-10050142D01*
X17183100Y-10052050D01*
X17167374Y-10058486D01*
X17155516Y-10063650D01*
X17127801Y-10073312D01*
X17117416Y-10075610D01*
X17092046Y-10084399D01*
X17081500Y-10090139D01*
X17052203Y-10102582D01*
X17038046Y-10105910D01*
X17010329Y-10114476D01*
X16999946Y-10120497D01*
X16979758Y-10130955D01*
X16946310Y-10143735D01*
X16935450Y-10147300D01*
X16900522Y-10159653D01*
X16875786Y-10170805D01*
X16871950Y-10173275D01*
X16855687Y-10182861D01*
X16852900Y-10183500D01*
X16846146Y-10184655D01*
X16832715Y-10188819D01*
X16807870Y-10197649D01*
X16766871Y-10212805D01*
X16732250Y-10225736D01*
X16691960Y-10240692D01*
X16662037Y-10251582D01*
X16649700Y-10255812D01*
X16634272Y-10261317D01*
X16604835Y-10272749D01*
X16570874Y-10286375D01*
X16548100Y-10295804D01*
X16527768Y-10303754D01*
X16522700Y-10305349D01*
X16508696Y-10310369D01*
X16477137Y-10322375D01*
X16434101Y-10339047D01*
X16421100Y-10344127D01*
X16375547Y-10361204D01*
X16339232Y-10373416D01*
X16318452Y-10378690D01*
X16316325Y-10378655D01*
X16312582Y-10389388D01*
X16309530Y-10420630D01*
X16307495Y-10467494D01*
X16306800Y-10521949D01*
X16307768Y-10580945D01*
X16310422Y-10628041D01*
X16314379Y-10658562D01*
X16318673Y-10668000D01*
X16338880Y-10663827D01*
X16359948Y-10656821D01*
X16386283Y-10647697D01*
X16399008Y-10644378D01*
X16415999Y-10638151D01*
X16444197Y-10624733D01*
X16446500Y-10623550D01*
X16475097Y-10609783D01*
X16493340Y-10602833D01*
X16493991Y-10602721D01*
X16512199Y-10597790D01*
X16535400Y-10589901D01*
X16570364Y-10577332D01*
X16589477Y-10571055D01*
X16600690Y-10568499D01*
X16602208Y-10568274D01*
X16619193Y-10561980D01*
X16647419Y-10548522D01*
X16649833Y-10547281D01*
X16675129Y-10536412D01*
X16687542Y-10535418D01*
X16687800Y-10536292D01*
X16695658Y-10535417D01*
X16713200Y-10521950D01*
X16731527Y-10508038D01*
X16738600Y-10507607D01*
X16748315Y-10508343D01*
X16772144Y-10498847D01*
X16776566Y-10496618D01*
X16803077Y-10483664D01*
X16817383Y-10478112D01*
X16817841Y-10478135D01*
X16830802Y-10474928D01*
X16858346Y-10465591D01*
X16891433Y-10453321D01*
X16916400Y-10443295D01*
X16936723Y-10435456D01*
X16941800Y-10433952D01*
X16957306Y-10427064D01*
X16960850Y-10425021D01*
X16979237Y-10417169D01*
X17013379Y-10404911D01*
X17043400Y-10394950D01*
X17083672Y-10381433D01*
X17114412Y-10370055D01*
X17125950Y-10364878D01*
X17142893Y-10356576D01*
X17145000Y-10355980D01*
X17160071Y-10350853D01*
X17187866Y-10340164D01*
X17189450Y-10339534D01*
X17226455Y-10325085D01*
X17246905Y-10318230D01*
X17257695Y-10316800D01*
X17260523Y-10317191D01*
X17275649Y-10311644D01*
X17285923Y-10304555D01*
X17307445Y-10292972D01*
X17344006Y-10278164D01*
X17373600Y-10267950D01*
X17413904Y-10254150D01*
X17444651Y-10242046D01*
X17456150Y-10236174D01*
X17475622Y-10226652D01*
X17508590Y-10214397D01*
X17519650Y-10210787D01*
X17554527Y-10199000D01*
X17579263Y-10189236D01*
X17583150Y-10187264D01*
X17605907Y-10177983D01*
X17608550Y-10177398D01*
X17627569Y-10171209D01*
X17659145Y-10158749D01*
X17668814Y-10154670D01*
X17700168Y-10141965D01*
X17720342Y-10135116D01*
X17722922Y-10134712D01*
X17737560Y-10129720D01*
X17764432Y-10117021D01*
X17767300Y-10115550D01*
X17795897Y-10101783D01*
X17814140Y-10094833D01*
X17814791Y-10094721D01*
X17834326Y-10089302D01*
X17867028Y-10077948D01*
X17902537Y-10064286D01*
X17907000Y-10062454D01*
X17931659Y-10053398D01*
X17938750Y-10051297D01*
X17957479Y-10044431D01*
X17989270Y-10031117D01*
X18002250Y-10025412D01*
X18034563Y-10011365D01*
X18055888Y-10002730D01*
X18059400Y-10001599D01*
X18072651Y-9994396D01*
X18099819Y-9977197D01*
X18121624Y-9962728D01*
X18157428Y-9938699D01*
X18186883Y-9919129D01*
X18197258Y-9912350D01*
X18227123Y-9889961D01*
X18260667Y-9860195D01*
X18292155Y-9828795D01*
X18315857Y-9801503D01*
X18326040Y-9784060D01*
X18326100Y-9783283D01*
X18332561Y-9767739D01*
X18336899Y-9766300D01*
X18347128Y-9755853D01*
X18364307Y-9728972D01*
X18384876Y-9692349D01*
X18405276Y-9652672D01*
X18421947Y-9616633D01*
X18431330Y-9590922D01*
X18432040Y-9587476D01*
X18439528Y-9562079D01*
X18442185Y-9556750D01*
X18446226Y-9538418D01*
X18449770Y-9502376D01*
X18452069Y-9456313D01*
X18452112Y-9454820D01*
X18454619Y-9365590D01*
X18334119Y-9366068D01*
X18281443Y-9366887D01*
X18239078Y-9368695D01*
X18212919Y-9371180D01*
X18207551Y-9372748D01*
X18202750Y-9387813D01*
X18196794Y-9420068D01*
X18192749Y-9448800D01*
X18185616Y-9490596D01*
X18176671Y-9522966D01*
X18170953Y-9534525D01*
X18164349Y-9548072D01*
X18167350Y-9550400D01*
X18168261Y-9558288D01*
X18159875Y-9570804D01*
X18139977Y-9599482D01*
X18129641Y-9617887D01*
X18111393Y-9641096D01*
X18080764Y-9668717D01*
X18065645Y-9680028D01*
X18025462Y-9706229D01*
X17978462Y-9734012D01*
X17929896Y-9760647D01*
X17885020Y-9783404D01*
X17849086Y-9799552D01*
X17827349Y-9806363D01*
X17823695Y-9805761D01*
X17807628Y-9797447D01*
X17807516Y-9797438D01*
X17792487Y-9792099D01*
X17761410Y-9778725D01*
X17722850Y-9761065D01*
X17681633Y-9742374D01*
X17648692Y-9728619D01*
X17632056Y-9723020D01*
X17610022Y-9713416D01*
X17600306Y-9706498D01*
X17580568Y-9693367D01*
X17573758Y-9690832D01*
X17543636Y-9681978D01*
X17493090Y-9661285D01*
X17462500Y-9647592D01*
X17428248Y-9632354D01*
X17404609Y-9622549D01*
X17399000Y-9620694D01*
X17384135Y-9613984D01*
X17373600Y-9607712D01*
X17350258Y-9596032D01*
X17341850Y-9593607D01*
X17323581Y-9587526D01*
X17291428Y-9574269D01*
X17272000Y-9565638D01*
X17187730Y-9527483D01*
X17114942Y-9494925D01*
X17056451Y-9469201D01*
X17015070Y-9451546D01*
X16993615Y-9443198D01*
X16992600Y-9442902D01*
X16978695Y-9437040D01*
X16948477Y-9423329D01*
X16910050Y-9405465D01*
X16869196Y-9386843D01*
X16836994Y-9373171D01*
X16821150Y-9367619D01*
X16800056Y-9359447D01*
X16789400Y-9353387D01*
X16769856Y-9342446D01*
X16764000Y-9340272D01*
X16749510Y-9334969D01*
X16720555Y-9322767D01*
X16706850Y-9316747D01*
X16648563Y-9291039D01*
X16610632Y-9274757D01*
X16590324Y-9266741D01*
X16586200Y-9265519D01*
X16571310Y-9258429D01*
X16560800Y-9252112D01*
X16537449Y-9240362D01*
X16529050Y-9237880D01*
X16511704Y-9231725D01*
X16478801Y-9217681D01*
X16440150Y-9200034D01*
X16400119Y-9181719D01*
X16369554Y-9168612D01*
X16355483Y-9163661D01*
X16339464Y-9155353D01*
X16337491Y-9153525D01*
X16324899Y-9145206D01*
X16316138Y-9151443D01*
X16310604Y-9174898D01*
X16307694Y-9218232D01*
X16306802Y-9284108D01*
X16306799Y-9288807D01*
X16306799Y-9433615D01*
X16341724Y-9445790D01*
X16341724Y-9445790D01*
G37*
X16341724Y-9445790D02*
X16371405Y-9455572D01*
X16389350Y-9460637D01*
X16408684Y-9470742D01*
X16421100Y-9480550D01*
X16439508Y-9494729D01*
X16446500Y-9497802D01*
X16464847Y-9502977D01*
X16501872Y-9517349D01*
X16553301Y-9539236D01*
X16567150Y-9545347D01*
X16599478Y-9559437D01*
X16620801Y-9568234D01*
X16624300Y-9569450D01*
X16638800Y-9575110D01*
X16667777Y-9587525D01*
X16681450Y-9593552D01*
X16742572Y-9620492D01*
X16783208Y-9637942D01*
X16802064Y-9645347D01*
X16802100Y-9645357D01*
X16816606Y-9651198D01*
X16845593Y-9663722D01*
X16859250Y-9669752D01*
X16922352Y-9697557D01*
X16962605Y-9714779D01*
X16979900Y-9721425D01*
X16994202Y-9727257D01*
X17023570Y-9740220D01*
X17043400Y-9749192D01*
X17098040Y-9773199D01*
X17132537Y-9786056D01*
X17149144Y-9788588D01*
X17150149Y-9788177D01*
X17161915Y-9793602D01*
X17181766Y-9809543D01*
X17200647Y-9823608D01*
X17208500Y-9823450D01*
X17216178Y-9822637D01*
X17230725Y-9833276D01*
X17251756Y-9849541D01*
X17262341Y-9854642D01*
X17291074Y-9862826D01*
X17339826Y-9882623D01*
X17373600Y-9897707D01*
X17408347Y-9912952D01*
X17432997Y-9922661D01*
X17439216Y-9924410D01*
X17455387Y-9930465D01*
X17451870Y-9942277D01*
X17432698Y-9956516D01*
X17401901Y-9969850D01*
X17375783Y-9976823D01*
X17349538Y-9984868D01*
X17337683Y-9989649D01*
X17316431Y-9998748D01*
X17310100Y-10001217D01*
X17293297Y-10007629D01*
X17263550Y-10019416D01*
X17231429Y-10032356D01*
X17208500Y-10041804D01*
X17188143Y-10050142D01*
X17183100Y-10052050D01*
X17167374Y-10058486D01*
X17155516Y-10063650D01*
X17127801Y-10073312D01*
X17117416Y-10075610D01*
X17092046Y-10084399D01*
X17081500Y-10090139D01*
X17052203Y-10102582D01*
X17038046Y-10105910D01*
X17010329Y-10114476D01*
X16999946Y-10120497D01*
X16979758Y-10130955D01*
X16946310Y-10143735D01*
X16935450Y-10147300D01*
X16900522Y-10159653D01*
X16875786Y-10170805D01*
X16871950Y-10173275D01*
X16855687Y-10182861D01*
X16852900Y-10183500D01*
X16846146Y-10184655D01*
X16832715Y-10188819D01*
X16807870Y-10197649D01*
X16766871Y-10212805D01*
X16732250Y-10225736D01*
X16691960Y-10240692D01*
X16662037Y-10251582D01*
X16649700Y-10255812D01*
X16634272Y-10261317D01*
X16604835Y-10272749D01*
X16570874Y-10286375D01*
X16548100Y-10295804D01*
X16527768Y-10303754D01*
X16522700Y-10305349D01*
X16508696Y-10310369D01*
X16477137Y-10322375D01*
X16434101Y-10339047D01*
X16421100Y-10344127D01*
X16375547Y-10361204D01*
X16339232Y-10373416D01*
X16318452Y-10378690D01*
X16316325Y-10378655D01*
X16312582Y-10389388D01*
X16309530Y-10420630D01*
X16307495Y-10467494D01*
X16306800Y-10521949D01*
X16307768Y-10580945D01*
X16310422Y-10628041D01*
X16314379Y-10658562D01*
X16318673Y-10668000D01*
X16338880Y-10663827D01*
X16359948Y-10656821D01*
X16386283Y-10647697D01*
X16399008Y-10644378D01*
X16415999Y-10638151D01*
X16444197Y-10624733D01*
X16446500Y-10623550D01*
X16475097Y-10609783D01*
X16493340Y-10602833D01*
X16493991Y-10602721D01*
X16512199Y-10597790D01*
X16535400Y-10589901D01*
X16570364Y-10577332D01*
X16589477Y-10571055D01*
X16600690Y-10568499D01*
X16602208Y-10568274D01*
X16619193Y-10561980D01*
X16647419Y-10548522D01*
X16649833Y-10547281D01*
X16675129Y-10536412D01*
X16687542Y-10535418D01*
X16687800Y-10536292D01*
X16695658Y-10535417D01*
X16713200Y-10521950D01*
X16731527Y-10508038D01*
X16738600Y-10507607D01*
X16748315Y-10508343D01*
X16772144Y-10498847D01*
X16776566Y-10496618D01*
X16803077Y-10483664D01*
X16817383Y-10478112D01*
X16817841Y-10478135D01*
X16830802Y-10474928D01*
X16858346Y-10465591D01*
X16891433Y-10453321D01*
X16916400Y-10443295D01*
X16936723Y-10435456D01*
X16941800Y-10433952D01*
X16957306Y-10427064D01*
X16960850Y-10425021D01*
X16979237Y-10417169D01*
X17013379Y-10404911D01*
X17043400Y-10394950D01*
X17083672Y-10381433D01*
X17114412Y-10370055D01*
X17125950Y-10364878D01*
X17142893Y-10356576D01*
X17145000Y-10355980D01*
X17160071Y-10350853D01*
X17187866Y-10340164D01*
X17189450Y-10339534D01*
X17226455Y-10325085D01*
X17246905Y-10318230D01*
X17257695Y-10316800D01*
X17260523Y-10317191D01*
X17275649Y-10311644D01*
X17285923Y-10304555D01*
X17307445Y-10292972D01*
X17344006Y-10278164D01*
X17373600Y-10267950D01*
X17413904Y-10254150D01*
X17444651Y-10242046D01*
X17456150Y-10236174D01*
X17475622Y-10226652D01*
X17508590Y-10214397D01*
X17519650Y-10210787D01*
X17554527Y-10199000D01*
X17579263Y-10189236D01*
X17583150Y-10187264D01*
X17605907Y-10177983D01*
X17608550Y-10177398D01*
X17627569Y-10171209D01*
X17659145Y-10158749D01*
X17668814Y-10154670D01*
X17700168Y-10141965D01*
X17720342Y-10135116D01*
X17722922Y-10134712D01*
X17737560Y-10129720D01*
X17764432Y-10117021D01*
X17767300Y-10115550D01*
X17795897Y-10101783D01*
X17814140Y-10094833D01*
X17814791Y-10094721D01*
X17834326Y-10089302D01*
X17867028Y-10077948D01*
X17902537Y-10064286D01*
X17907000Y-10062454D01*
X17931659Y-10053398D01*
X17938750Y-10051297D01*
X17957479Y-10044431D01*
X17989270Y-10031117D01*
X18002250Y-10025412D01*
X18034563Y-10011365D01*
X18055888Y-10002730D01*
X18059400Y-10001599D01*
X18072651Y-9994396D01*
X18099819Y-9977197D01*
X18121624Y-9962728D01*
X18157428Y-9938699D01*
X18186883Y-9919129D01*
X18197258Y-9912350D01*
X18227123Y-9889961D01*
X18260667Y-9860195D01*
X18292155Y-9828795D01*
X18315857Y-9801503D01*
X18326040Y-9784060D01*
X18326100Y-9783283D01*
X18332561Y-9767739D01*
X18336899Y-9766300D01*
X18347128Y-9755853D01*
X18364307Y-9728972D01*
X18384876Y-9692349D01*
X18405276Y-9652672D01*
X18421947Y-9616633D01*
X18431330Y-9590922D01*
X18432040Y-9587476D01*
X18439528Y-9562079D01*
X18442185Y-9556750D01*
X18446226Y-9538418D01*
X18449770Y-9502376D01*
X18452069Y-9456313D01*
X18452112Y-9454820D01*
X18454619Y-9365590D01*
X18334119Y-9366068D01*
X18281443Y-9366887D01*
X18239078Y-9368695D01*
X18212919Y-9371180D01*
X18207551Y-9372748D01*
X18202750Y-9387813D01*
X18196794Y-9420068D01*
X18192749Y-9448800D01*
X18185616Y-9490596D01*
X18176671Y-9522966D01*
X18170953Y-9534525D01*
X18164349Y-9548072D01*
X18167350Y-9550400D01*
X18168261Y-9558288D01*
X18159875Y-9570804D01*
X18139977Y-9599482D01*
X18129641Y-9617887D01*
X18111393Y-9641096D01*
X18080764Y-9668717D01*
X18065645Y-9680028D01*
X18025462Y-9706229D01*
X17978462Y-9734012D01*
X17929896Y-9760647D01*
X17885020Y-9783404D01*
X17849086Y-9799552D01*
X17827349Y-9806363D01*
X17823695Y-9805761D01*
X17807628Y-9797447D01*
X17807516Y-9797438D01*
X17792487Y-9792099D01*
X17761410Y-9778725D01*
X17722850Y-9761065D01*
X17681633Y-9742374D01*
X17648692Y-9728619D01*
X17632056Y-9723020D01*
X17610022Y-9713416D01*
X17600306Y-9706498D01*
X17580568Y-9693367D01*
X17573758Y-9690832D01*
X17543636Y-9681978D01*
X17493090Y-9661285D01*
X17462500Y-9647592D01*
X17428248Y-9632354D01*
X17404609Y-9622549D01*
X17399000Y-9620694D01*
X17384135Y-9613984D01*
X17373600Y-9607712D01*
X17350258Y-9596032D01*
X17341850Y-9593607D01*
X17323581Y-9587526D01*
X17291428Y-9574269D01*
X17272000Y-9565638D01*
X17187730Y-9527483D01*
X17114942Y-9494925D01*
X17056451Y-9469201D01*
X17015070Y-9451546D01*
X16993615Y-9443198D01*
X16992600Y-9442902D01*
X16978695Y-9437040D01*
X16948477Y-9423329D01*
X16910050Y-9405465D01*
X16869196Y-9386843D01*
X16836994Y-9373171D01*
X16821150Y-9367619D01*
X16800056Y-9359447D01*
X16789400Y-9353387D01*
X16769856Y-9342446D01*
X16764000Y-9340272D01*
X16749510Y-9334969D01*
X16720555Y-9322767D01*
X16706850Y-9316747D01*
X16648563Y-9291039D01*
X16610632Y-9274757D01*
X16590324Y-9266741D01*
X16586200Y-9265519D01*
X16571310Y-9258429D01*
X16560800Y-9252112D01*
X16537449Y-9240362D01*
X16529050Y-9237880D01*
X16511704Y-9231725D01*
X16478801Y-9217681D01*
X16440150Y-9200034D01*
X16400119Y-9181719D01*
X16369554Y-9168612D01*
X16355483Y-9163661D01*
X16339464Y-9155353D01*
X16337491Y-9153525D01*
X16324899Y-9145206D01*
X16316138Y-9151443D01*
X16310604Y-9174898D01*
X16307694Y-9218232D01*
X16306802Y-9284108D01*
X16306799Y-9288807D01*
X16306799Y-9433615D01*
X16341724Y-9445790D01*
G36*
X18116550Y-9626600D02*
X18122900Y-9620250D01*
X18116550Y-9613900D01*
X18110200Y-9620250D01*
X18116550Y-9626600D01*
X18116550Y-9626600D01*
G37*
X18116550Y-9626600D02*
X18122900Y-9620250D01*
X18116550Y-9613900D01*
X18110200Y-9620250D01*
X18116550Y-9626600D01*
G36*
X17495494Y-10849299D02*
X17501460Y-10878961D01*
X17516350Y-10903637D01*
X17544256Y-10933528D01*
X17547379Y-10936656D01*
X17580768Y-10967495D01*
X17608686Y-10983897D01*
X17641969Y-10990900D01*
X17667790Y-10992630D01*
X17729945Y-10989463D01*
X17779777Y-10970843D01*
X17826905Y-10932853D01*
X17835068Y-10924472D01*
X17862623Y-10879879D01*
X17877546Y-10823265D01*
X17878404Y-10764985D01*
X17863985Y-10715806D01*
X17843048Y-10679730D01*
X17823859Y-10651008D01*
X17810099Y-10634716D01*
X17805400Y-10634979D01*
X17797567Y-10636934D01*
X17785111Y-10628872D01*
X17747127Y-10609712D01*
X17697818Y-10600637D01*
X17646974Y-10601907D01*
X17604386Y-10613781D01*
X17589369Y-10623667D01*
X17571181Y-10636663D01*
X17564100Y-10635270D01*
X17557815Y-10637942D01*
X17541747Y-10657130D01*
X17529175Y-10674576D01*
X17508394Y-10709672D01*
X17497829Y-10744603D01*
X17494444Y-10790697D01*
X17494362Y-10804450D01*
X17495494Y-10849299D01*
X17495494Y-10849299D01*
G37*
X17495494Y-10849299D02*
X17501460Y-10878961D01*
X17516350Y-10903637D01*
X17544256Y-10933528D01*
X17547379Y-10936656D01*
X17580768Y-10967495D01*
X17608686Y-10983897D01*
X17641969Y-10990900D01*
X17667790Y-10992630D01*
X17729945Y-10989463D01*
X17779777Y-10970843D01*
X17826905Y-10932853D01*
X17835068Y-10924472D01*
X17862623Y-10879879D01*
X17877546Y-10823265D01*
X17878404Y-10764985D01*
X17863985Y-10715806D01*
X17843048Y-10679730D01*
X17823859Y-10651008D01*
X17810099Y-10634716D01*
X17805400Y-10634979D01*
X17797567Y-10636934D01*
X17785111Y-10628872D01*
X17747127Y-10609712D01*
X17697818Y-10600637D01*
X17646974Y-10601907D01*
X17604386Y-10613781D01*
X17589369Y-10623667D01*
X17571181Y-10636663D01*
X17564100Y-10635270D01*
X17557815Y-10637942D01*
X17541747Y-10657130D01*
X17529175Y-10674576D01*
X17508394Y-10709672D01*
X17497829Y-10744603D01*
X17494444Y-10790697D01*
X17494362Y-10804450D01*
X17495494Y-10849299D01*
G36*
X16275238Y-12041951D02*
X16282120Y-12122714D01*
X16297784Y-12194718D01*
X16324162Y-12266045D01*
X16363186Y-12344774D01*
X16376952Y-12369800D01*
X16392481Y-12391067D01*
X16419960Y-12422935D01*
X16454975Y-12460883D01*
X16493114Y-12500390D01*
X16529963Y-12536936D01*
X16561110Y-12566001D01*
X16582142Y-12583066D01*
X16587732Y-12585700D01*
X16603567Y-12592274D01*
X16631462Y-12608797D01*
X16643739Y-12616894D01*
X16686852Y-12641385D01*
X16743081Y-12667177D01*
X16801411Y-12689689D01*
X16850827Y-12704341D01*
X16857239Y-12705663D01*
X16878876Y-12710582D01*
X16884650Y-12713016D01*
X16896338Y-12717439D01*
X16927369Y-12721138D01*
X16971694Y-12723974D01*
X17023262Y-12725807D01*
X17076022Y-12726496D01*
X17123925Y-12725901D01*
X17160922Y-12723884D01*
X17180960Y-12720302D01*
X17181744Y-12719887D01*
X17185257Y-12708653D01*
X17188224Y-12678967D01*
X17190668Y-12629820D01*
X17192609Y-12560204D01*
X17194071Y-12469110D01*
X17195075Y-12355528D01*
X17195643Y-12218451D01*
X17195800Y-12076769D01*
X17195800Y-11442337D01*
X17236555Y-11449517D01*
X17270273Y-11458628D01*
X17293705Y-11470304D01*
X17307617Y-11478470D01*
X17310100Y-11476758D01*
X17319083Y-11474844D01*
X17342610Y-11485598D01*
X17375548Y-11505625D01*
X17412764Y-11531530D01*
X17449124Y-11559919D01*
X17479496Y-11587398D01*
X17483202Y-11591215D01*
X17507074Y-11621682D01*
X17535058Y-11664966D01*
X17562497Y-11712894D01*
X17584736Y-11757293D01*
X17597118Y-11789988D01*
X17597563Y-11791950D01*
X17601884Y-11814378D01*
X17604744Y-11830050D01*
X17612433Y-11857678D01*
X17617525Y-11868628D01*
X17621226Y-11887092D01*
X17623599Y-11923635D01*
X17624667Y-11970972D01*
X17624455Y-12021819D01*
X17622988Y-12068890D01*
X17620291Y-12104901D01*
X17616661Y-12122150D01*
X17608462Y-12144945D01*
X17605551Y-12158851D01*
X17593619Y-12199020D01*
X17571770Y-12247249D01*
X17545896Y-12291713D01*
X17527575Y-12315293D01*
X17508534Y-12337373D01*
X17500600Y-12351116D01*
X17500600Y-12351126D01*
X17492675Y-12365362D01*
X17481550Y-12377964D01*
X17466566Y-12390191D01*
X17462500Y-12389841D01*
X17454320Y-12392061D01*
X17434409Y-12407110D01*
X17432225Y-12408991D01*
X17412315Y-12429288D01*
X17409833Y-12447479D01*
X17420330Y-12472154D01*
X17436333Y-12499841D01*
X17449522Y-12515671D01*
X17449790Y-12515844D01*
X17460919Y-12530183D01*
X17478517Y-12560422D01*
X17494791Y-12592018D01*
X17515015Y-12630463D01*
X17532020Y-12648961D01*
X17551717Y-12648217D01*
X17580014Y-12628935D01*
X17607350Y-12605451D01*
X17633683Y-12584529D01*
X17652520Y-12573503D01*
X17654975Y-12573000D01*
X17664212Y-12562554D01*
X17665700Y-12551833D01*
X17669324Y-12537651D01*
X17673561Y-12538528D01*
X17686907Y-12537429D01*
X17704059Y-12523320D01*
X17715558Y-12504853D01*
X17716500Y-12499262D01*
X17725217Y-12481808D01*
X17734986Y-12471867D01*
X17750117Y-12452401D01*
X17771141Y-12417014D01*
X17794497Y-12372845D01*
X17816626Y-12327030D01*
X17833967Y-12286705D01*
X17842961Y-12259010D01*
X17843500Y-12254329D01*
X17848530Y-12231263D01*
X17852334Y-12225499D01*
X17859276Y-12215210D01*
X17864419Y-12197637D01*
X17868200Y-12168754D01*
X17871053Y-12124539D01*
X17873416Y-12060965D01*
X17874553Y-12020550D01*
X17875274Y-11954495D01*
X17874154Y-11891889D01*
X17871432Y-11840410D01*
X17868013Y-11811000D01*
X17856840Y-11752395D01*
X17847904Y-11712130D01*
X17839261Y-11683490D01*
X17828968Y-11659762D01*
X17818736Y-11640683D01*
X17804650Y-11611928D01*
X17799596Y-11593789D01*
X17800257Y-11591776D01*
X17796789Y-11580320D01*
X17786656Y-11569954D01*
X17770401Y-11549341D01*
X17767300Y-11538363D01*
X17758647Y-11518883D01*
X17741900Y-11499850D01*
X17722860Y-11477543D01*
X17716500Y-11461928D01*
X17707862Y-11446513D01*
X17685032Y-11419434D01*
X17652632Y-11386092D01*
X17646650Y-11380328D01*
X17613689Y-11350031D01*
X17589108Y-11329647D01*
X17577264Y-11322727D01*
X17576800Y-11323407D01*
X17568848Y-11321730D01*
X17548841Y-11306013D01*
X17538700Y-11296650D01*
X17515499Y-11276648D01*
X17501997Y-11269315D01*
X17500600Y-11270842D01*
X17492771Y-11272249D01*
X17478375Y-11262448D01*
X17448329Y-11242253D01*
X17419539Y-11231154D01*
X17411700Y-11230562D01*
X17396962Y-11225618D01*
X17375950Y-11215358D01*
X17344948Y-11201421D01*
X17325150Y-11195222D01*
X17299446Y-11189641D01*
X17262125Y-11181233D01*
X17251572Y-11178814D01*
X17213539Y-11173580D01*
X17159244Y-11170552D01*
X17095192Y-11169599D01*
X17027892Y-11170589D01*
X16967200Y-11173243D01*
X16967200Y-11441174D01*
X16967200Y-11950793D01*
X16967172Y-12077813D01*
X16967013Y-12181710D01*
X16966608Y-12264761D01*
X16965843Y-12329244D01*
X16964601Y-12377437D01*
X16962768Y-12411615D01*
X16960231Y-12434058D01*
X16956873Y-12447041D01*
X16952579Y-12452841D01*
X16947236Y-12453738D01*
X16941908Y-12452384D01*
X16909542Y-12443851D01*
X16881978Y-12438076D01*
X16850053Y-12428602D01*
X16831069Y-12418292D01*
X16817231Y-12410210D01*
X16814800Y-12411941D01*
X16805672Y-12412280D01*
X16782133Y-12400990D01*
X16749945Y-12381872D01*
X16714871Y-12358728D01*
X16682675Y-12335358D01*
X16659120Y-12315565D01*
X16649971Y-12303221D01*
X16642211Y-12287953D01*
X16623829Y-12264044D01*
X16622995Y-12263080D01*
X16605874Y-12240277D01*
X16600560Y-12226612D01*
X16600770Y-12226217D01*
X16596972Y-12213226D01*
X16584823Y-12196508D01*
X16570007Y-12173947D01*
X16555724Y-12144067D01*
X16545104Y-12114994D01*
X16541274Y-12094853D01*
X16543965Y-12090400D01*
X16543689Y-12082658D01*
X16537624Y-12074029D01*
X16532224Y-12054708D01*
X16529080Y-12017348D01*
X16528149Y-11969208D01*
X16529387Y-11917545D01*
X16532751Y-11869617D01*
X16538198Y-11832682D01*
X16539092Y-11828925D01*
X16559449Y-11757385D01*
X16578603Y-11708336D01*
X16597688Y-11678978D01*
X16600848Y-11675886D01*
X16618849Y-11655758D01*
X16624300Y-11644028D01*
X16633912Y-11623933D01*
X16658496Y-11595707D01*
X16691676Y-11564839D01*
X16727072Y-11536823D01*
X16758307Y-11517148D01*
X16778541Y-11511219D01*
X16792904Y-11504574D01*
X16813466Y-11488356D01*
X16832393Y-11473818D01*
X16840200Y-11472928D01*
X16849524Y-11474535D01*
X16867350Y-11467162D01*
X16901098Y-11454005D01*
X16930850Y-11446903D01*
X16967200Y-11441174D01*
X16967200Y-11173243D01*
X16963849Y-11173390D01*
X16909571Y-11177871D01*
X16871564Y-11183899D01*
X16862425Y-11186695D01*
X16837903Y-11194735D01*
X16827502Y-11194487D01*
X16827500Y-11194409D01*
X16817730Y-11195219D01*
X16793774Y-11205529D01*
X16789400Y-11207750D01*
X16764049Y-11218654D01*
X16751570Y-11219696D01*
X16751300Y-11218807D01*
X16743441Y-11219682D01*
X16725900Y-11233150D01*
X16707622Y-11246529D01*
X16700500Y-11245850D01*
X16692776Y-11245200D01*
X16677244Y-11256609D01*
X16657406Y-11270285D01*
X16647533Y-11271199D01*
X16635487Y-11274592D01*
X16618020Y-11290222D01*
X16596949Y-11309199D01*
X16583315Y-11315700D01*
X16565640Y-11324780D01*
X16536671Y-11348854D01*
X16501090Y-11383167D01*
X16463580Y-11422967D01*
X16428824Y-11463502D01*
X16401505Y-11500017D01*
X16401068Y-11500672D01*
X16363993Y-11561902D01*
X16332266Y-11624610D01*
X16309704Y-11680733D01*
X16301585Y-11710798D01*
X16296646Y-11733904D01*
X16294072Y-11741150D01*
X16288203Y-11753560D01*
X16283079Y-11789646D01*
X16278861Y-11847690D01*
X16275706Y-11925974D01*
X16275206Y-11944350D01*
X16275238Y-12041951D01*
X16275238Y-12041951D01*
G37*
X16275238Y-12041951D02*
X16282120Y-12122714D01*
X16297784Y-12194718D01*
X16324162Y-12266045D01*
X16363186Y-12344774D01*
X16376952Y-12369800D01*
X16392481Y-12391067D01*
X16419960Y-12422935D01*
X16454975Y-12460883D01*
X16493114Y-12500390D01*
X16529963Y-12536936D01*
X16561110Y-12566001D01*
X16582142Y-12583066D01*
X16587732Y-12585700D01*
X16603567Y-12592274D01*
X16631462Y-12608797D01*
X16643739Y-12616894D01*
X16686852Y-12641385D01*
X16743081Y-12667177D01*
X16801411Y-12689689D01*
X16850827Y-12704341D01*
X16857239Y-12705663D01*
X16878876Y-12710582D01*
X16884650Y-12713016D01*
X16896338Y-12717439D01*
X16927369Y-12721138D01*
X16971694Y-12723974D01*
X17023262Y-12725807D01*
X17076022Y-12726496D01*
X17123925Y-12725901D01*
X17160922Y-12723884D01*
X17180960Y-12720302D01*
X17181744Y-12719887D01*
X17185257Y-12708653D01*
X17188224Y-12678967D01*
X17190668Y-12629820D01*
X17192609Y-12560204D01*
X17194071Y-12469110D01*
X17195075Y-12355528D01*
X17195643Y-12218451D01*
X17195800Y-12076769D01*
X17195800Y-11442337D01*
X17236555Y-11449517D01*
X17270273Y-11458628D01*
X17293705Y-11470304D01*
X17307617Y-11478470D01*
X17310100Y-11476758D01*
X17319083Y-11474844D01*
X17342610Y-11485598D01*
X17375548Y-11505625D01*
X17412764Y-11531530D01*
X17449124Y-11559919D01*
X17479496Y-11587398D01*
X17483202Y-11591215D01*
X17507074Y-11621682D01*
X17535058Y-11664966D01*
X17562497Y-11712894D01*
X17584736Y-11757293D01*
X17597118Y-11789988D01*
X17597563Y-11791950D01*
X17601884Y-11814378D01*
X17604744Y-11830050D01*
X17612433Y-11857678D01*
X17617525Y-11868628D01*
X17621226Y-11887092D01*
X17623599Y-11923635D01*
X17624667Y-11970972D01*
X17624455Y-12021819D01*
X17622988Y-12068890D01*
X17620291Y-12104901D01*
X17616661Y-12122150D01*
X17608462Y-12144945D01*
X17605551Y-12158851D01*
X17593619Y-12199020D01*
X17571770Y-12247249D01*
X17545896Y-12291713D01*
X17527575Y-12315293D01*
X17508534Y-12337373D01*
X17500600Y-12351116D01*
X17500600Y-12351126D01*
X17492675Y-12365362D01*
X17481550Y-12377964D01*
X17466566Y-12390191D01*
X17462500Y-12389841D01*
X17454320Y-12392061D01*
X17434409Y-12407110D01*
X17432225Y-12408991D01*
X17412315Y-12429288D01*
X17409833Y-12447479D01*
X17420330Y-12472154D01*
X17436333Y-12499841D01*
X17449522Y-12515671D01*
X17449790Y-12515844D01*
X17460919Y-12530183D01*
X17478517Y-12560422D01*
X17494791Y-12592018D01*
X17515015Y-12630463D01*
X17532020Y-12648961D01*
X17551717Y-12648217D01*
X17580014Y-12628935D01*
X17607350Y-12605451D01*
X17633683Y-12584529D01*
X17652520Y-12573503D01*
X17654975Y-12573000D01*
X17664212Y-12562554D01*
X17665700Y-12551833D01*
X17669324Y-12537651D01*
X17673561Y-12538528D01*
X17686907Y-12537429D01*
X17704059Y-12523320D01*
X17715558Y-12504853D01*
X17716500Y-12499262D01*
X17725217Y-12481808D01*
X17734986Y-12471867D01*
X17750117Y-12452401D01*
X17771141Y-12417014D01*
X17794497Y-12372845D01*
X17816626Y-12327030D01*
X17833967Y-12286705D01*
X17842961Y-12259010D01*
X17843500Y-12254329D01*
X17848530Y-12231263D01*
X17852334Y-12225499D01*
X17859276Y-12215210D01*
X17864419Y-12197637D01*
X17868200Y-12168754D01*
X17871053Y-12124539D01*
X17873416Y-12060965D01*
X17874553Y-12020550D01*
X17875274Y-11954495D01*
X17874154Y-11891889D01*
X17871432Y-11840410D01*
X17868013Y-11811000D01*
X17856840Y-11752395D01*
X17847904Y-11712130D01*
X17839261Y-11683490D01*
X17828968Y-11659762D01*
X17818736Y-11640683D01*
X17804650Y-11611928D01*
X17799596Y-11593789D01*
X17800257Y-11591776D01*
X17796789Y-11580320D01*
X17786656Y-11569954D01*
X17770401Y-11549341D01*
X17767300Y-11538363D01*
X17758647Y-11518883D01*
X17741900Y-11499850D01*
X17722860Y-11477543D01*
X17716500Y-11461928D01*
X17707862Y-11446513D01*
X17685032Y-11419434D01*
X17652632Y-11386092D01*
X17646650Y-11380328D01*
X17613689Y-11350031D01*
X17589108Y-11329647D01*
X17577264Y-11322727D01*
X17576800Y-11323407D01*
X17568848Y-11321730D01*
X17548841Y-11306013D01*
X17538700Y-11296650D01*
X17515499Y-11276648D01*
X17501997Y-11269315D01*
X17500600Y-11270842D01*
X17492771Y-11272249D01*
X17478375Y-11262448D01*
X17448329Y-11242253D01*
X17419539Y-11231154D01*
X17411700Y-11230562D01*
X17396962Y-11225618D01*
X17375950Y-11215358D01*
X17344948Y-11201421D01*
X17325150Y-11195222D01*
X17299446Y-11189641D01*
X17262125Y-11181233D01*
X17251572Y-11178814D01*
X17213539Y-11173580D01*
X17159244Y-11170552D01*
X17095192Y-11169599D01*
X17027892Y-11170589D01*
X16967200Y-11173243D01*
X16967200Y-11441174D01*
X16967200Y-11950793D01*
X16967172Y-12077813D01*
X16967013Y-12181710D01*
X16966608Y-12264761D01*
X16965843Y-12329244D01*
X16964601Y-12377437D01*
X16962768Y-12411615D01*
X16960231Y-12434058D01*
X16956873Y-12447041D01*
X16952579Y-12452841D01*
X16947236Y-12453738D01*
X16941908Y-12452384D01*
X16909542Y-12443851D01*
X16881978Y-12438076D01*
X16850053Y-12428602D01*
X16831069Y-12418292D01*
X16817231Y-12410210D01*
X16814800Y-12411941D01*
X16805672Y-12412280D01*
X16782133Y-12400990D01*
X16749945Y-12381872D01*
X16714871Y-12358728D01*
X16682675Y-12335358D01*
X16659120Y-12315565D01*
X16649971Y-12303221D01*
X16642211Y-12287953D01*
X16623829Y-12264044D01*
X16622995Y-12263080D01*
X16605874Y-12240277D01*
X16600560Y-12226612D01*
X16600770Y-12226217D01*
X16596972Y-12213226D01*
X16584823Y-12196508D01*
X16570007Y-12173947D01*
X16555724Y-12144067D01*
X16545104Y-12114994D01*
X16541274Y-12094853D01*
X16543965Y-12090400D01*
X16543689Y-12082658D01*
X16537624Y-12074029D01*
X16532224Y-12054708D01*
X16529080Y-12017348D01*
X16528149Y-11969208D01*
X16529387Y-11917545D01*
X16532751Y-11869617D01*
X16538198Y-11832682D01*
X16539092Y-11828925D01*
X16559449Y-11757385D01*
X16578603Y-11708336D01*
X16597688Y-11678978D01*
X16600848Y-11675886D01*
X16618849Y-11655758D01*
X16624300Y-11644028D01*
X16633912Y-11623933D01*
X16658496Y-11595707D01*
X16691676Y-11564839D01*
X16727072Y-11536823D01*
X16758307Y-11517148D01*
X16778541Y-11511219D01*
X16792904Y-11504574D01*
X16813466Y-11488356D01*
X16832393Y-11473818D01*
X16840200Y-11472928D01*
X16849524Y-11474535D01*
X16867350Y-11467162D01*
X16901098Y-11454005D01*
X16930850Y-11446903D01*
X16967200Y-11441174D01*
X16967200Y-11173243D01*
X16963849Y-11173390D01*
X16909571Y-11177871D01*
X16871564Y-11183899D01*
X16862425Y-11186695D01*
X16837903Y-11194735D01*
X16827502Y-11194487D01*
X16827500Y-11194409D01*
X16817730Y-11195219D01*
X16793774Y-11205529D01*
X16789400Y-11207750D01*
X16764049Y-11218654D01*
X16751570Y-11219696D01*
X16751300Y-11218807D01*
X16743441Y-11219682D01*
X16725900Y-11233150D01*
X16707622Y-11246529D01*
X16700500Y-11245850D01*
X16692776Y-11245200D01*
X16677244Y-11256609D01*
X16657406Y-11270285D01*
X16647533Y-11271199D01*
X16635487Y-11274592D01*
X16618020Y-11290222D01*
X16596949Y-11309199D01*
X16583315Y-11315700D01*
X16565640Y-11324780D01*
X16536671Y-11348854D01*
X16501090Y-11383167D01*
X16463580Y-11422967D01*
X16428824Y-11463502D01*
X16401505Y-11500017D01*
X16401068Y-11500672D01*
X16363993Y-11561902D01*
X16332266Y-11624610D01*
X16309704Y-11680733D01*
X16301585Y-11710798D01*
X16296646Y-11733904D01*
X16294072Y-11741150D01*
X16288203Y-11753560D01*
X16283079Y-11789646D01*
X16278861Y-11847690D01*
X16275706Y-11925974D01*
X16275206Y-11944350D01*
X16275238Y-12041951D01*
G36*
X16280281Y-13576737D02*
X16306058Y-13695922D01*
X16352712Y-13801003D01*
X16420467Y-13892476D01*
X16509550Y-13970837D01*
X16517312Y-13976350D01*
X16561392Y-14003935D01*
X16588682Y-14013349D01*
X16598837Y-14004481D01*
X16598900Y-14002895D01*
X16607842Y-13981020D01*
X16617993Y-13969963D01*
X16633118Y-13950745D01*
X16653898Y-13916084D01*
X16674289Y-13876605D01*
X16695754Y-13823761D01*
X16700422Y-13788778D01*
X16688241Y-13770420D01*
X16669686Y-13766800D01*
X16647774Y-13756450D01*
X16619691Y-13729713D01*
X16590349Y-13693053D01*
X16564660Y-13652936D01*
X16547538Y-13615828D01*
X16543830Y-13601156D01*
X16536550Y-13575660D01*
X16533804Y-13569950D01*
X16526690Y-13542264D01*
X16524188Y-13498594D01*
X16526006Y-13447879D01*
X16531854Y-13399055D01*
X16540515Y-13363575D01*
X16550566Y-13331519D01*
X16554071Y-13312180D01*
X16552931Y-13309600D01*
X16557192Y-13301359D01*
X16575100Y-13279969D01*
X16597211Y-13255977D01*
X16628197Y-13225393D01*
X16653154Y-13209381D01*
X16682626Y-13203265D01*
X16718168Y-13202355D01*
X16764336Y-13204845D01*
X16795595Y-13214370D01*
X16821849Y-13233752D01*
X16848185Y-13262292D01*
X16866380Y-13289021D01*
X16867105Y-13290550D01*
X16881499Y-13318644D01*
X16901327Y-13353445D01*
X16903600Y-13357225D01*
X16917716Y-13383440D01*
X16921963Y-13397657D01*
X16920936Y-13398500D01*
X16920947Y-13406256D01*
X16927292Y-13415371D01*
X16940860Y-13441758D01*
X16945453Y-13459494D01*
X16952543Y-13485387D01*
X16958406Y-13495539D01*
X16965543Y-13514167D01*
X16967200Y-13531850D01*
X16971198Y-13558225D01*
X16976725Y-13568891D01*
X16986315Y-13585062D01*
X16986555Y-13586883D01*
X16990585Y-13609369D01*
X16999942Y-13646181D01*
X17011838Y-13687580D01*
X17023483Y-13723824D01*
X17031661Y-13744402D01*
X17041775Y-13772985D01*
X17043400Y-13785850D01*
X17052936Y-13818018D01*
X17078434Y-13859662D01*
X17115225Y-13905439D01*
X17158638Y-13950006D01*
X17204007Y-13988022D01*
X17240105Y-14010930D01*
X17320678Y-14039666D01*
X17411895Y-14050698D01*
X17506169Y-14044009D01*
X17595913Y-14019581D01*
X17614329Y-14011810D01*
X17644042Y-13994355D01*
X17679801Y-13967853D01*
X17715697Y-13937475D01*
X17745823Y-13908392D01*
X17764271Y-13885773D01*
X17767300Y-13877924D01*
X17775146Y-13861733D01*
X17791638Y-13841213D01*
X17813095Y-13810239D01*
X17823489Y-13785155D01*
X17834180Y-13750323D01*
X17845552Y-13719735D01*
X17857924Y-13687543D01*
X17865348Y-13665200D01*
X17868078Y-13643257D01*
X17870496Y-13602387D01*
X17872467Y-13549060D01*
X17873860Y-13489746D01*
X17874540Y-13430918D01*
X17874375Y-13379047D01*
X17873231Y-13340602D01*
X17872276Y-13328650D01*
X17866503Y-13294529D01*
X17860085Y-13271500D01*
X17850867Y-13243641D01*
X17848898Y-13235504D01*
X17839447Y-13208263D01*
X17821720Y-13169783D01*
X17800091Y-13128362D01*
X17778935Y-13092301D01*
X17762625Y-13069902D01*
X17760658Y-13068057D01*
X17744737Y-13047537D01*
X17741900Y-13037035D01*
X17732847Y-13019973D01*
X17709565Y-12994541D01*
X17677867Y-12965575D01*
X17643566Y-12937912D01*
X17612476Y-12916388D01*
X17590409Y-12905842D01*
X17584617Y-12906170D01*
X17572602Y-12901267D01*
X17554794Y-12887222D01*
X17535458Y-12872529D01*
X17521203Y-12876021D01*
X17507043Y-12890397D01*
X17493688Y-12908714D01*
X17494495Y-12915900D01*
X17494749Y-12923898D01*
X17480944Y-12943269D01*
X17479893Y-12944475D01*
X17456775Y-12976049D01*
X17434331Y-13015180D01*
X17415944Y-13054636D01*
X17404996Y-13087186D01*
X17404669Y-13105298D01*
X17423188Y-13118388D01*
X17428454Y-13119100D01*
X17447309Y-13127116D01*
X17473439Y-13146749D01*
X17477139Y-13150098D01*
X17500932Y-13168503D01*
X17516778Y-13174181D01*
X17518285Y-13173381D01*
X17524921Y-13176385D01*
X17526000Y-13185278D01*
X17535049Y-13209390D01*
X17545284Y-13220894D01*
X17564522Y-13244663D01*
X17585332Y-13280980D01*
X17601559Y-13318194D01*
X17606711Y-13337188D01*
X17614325Y-13362362D01*
X17616533Y-13366750D01*
X17621055Y-13386863D01*
X17623747Y-13423279D01*
X17624690Y-13468741D01*
X17623962Y-13515992D01*
X17621642Y-13557774D01*
X17617810Y-13586833D01*
X17614037Y-13595882D01*
X17604127Y-13613144D01*
X17601271Y-13631024D01*
X17589492Y-13674634D01*
X17561272Y-13718674D01*
X17523281Y-13753039D01*
X17518985Y-13755681D01*
X17485524Y-13768920D01*
X17444738Y-13776672D01*
X17405371Y-13778311D01*
X17376165Y-13773208D01*
X17367121Y-13766592D01*
X17352398Y-13758950D01*
X17348112Y-13760504D01*
X17335896Y-13754487D01*
X17315762Y-13731472D01*
X17291278Y-13697115D01*
X17266011Y-13657073D01*
X17243530Y-13617001D01*
X17227403Y-13582556D01*
X17221200Y-13559393D01*
X17221200Y-13559332D01*
X17216814Y-13543944D01*
X17206389Y-13516801D01*
X17195485Y-13489579D01*
X17190208Y-13474700D01*
X17184176Y-13450257D01*
X17174261Y-13413052D01*
X17163120Y-13372726D01*
X17153411Y-13338923D01*
X17148190Y-13322300D01*
X17139565Y-13294280D01*
X17137709Y-13286383D01*
X17129705Y-13260080D01*
X17125020Y-13248283D01*
X17114546Y-13218278D01*
X17111768Y-13207099D01*
X17093147Y-13157956D01*
X17058786Y-13103680D01*
X17013949Y-13049888D01*
X16963898Y-13002198D01*
X16913898Y-12966228D01*
X16869210Y-12947596D01*
X16868520Y-12947460D01*
X16849860Y-12942958D01*
X16846550Y-12941300D01*
X16835240Y-12936572D01*
X16806685Y-12931052D01*
X16768948Y-12926115D01*
X16744950Y-12923982D01*
X16662501Y-12928420D01*
X16577332Y-12951165D01*
X16565584Y-12955813D01*
X16536851Y-12966817D01*
X16519283Y-12971985D01*
X16503983Y-12981517D01*
X16477243Y-13004848D01*
X16444322Y-13036641D01*
X16410479Y-13071556D01*
X16380974Y-13104255D01*
X16361066Y-13129400D01*
X16356448Y-13137257D01*
X16341167Y-13167700D01*
X16332222Y-13182600D01*
X16317326Y-13210943D01*
X16300412Y-13251280D01*
X16286599Y-13291227D01*
X16284979Y-13296900D01*
X16282313Y-13317210D01*
X16279371Y-13356409D01*
X16276591Y-13407993D01*
X16275155Y-13442950D01*
X16280281Y-13576737D01*
X16280281Y-13576737D01*
G37*
X16280281Y-13576737D02*
X16306058Y-13695922D01*
X16352712Y-13801003D01*
X16420467Y-13892476D01*
X16509550Y-13970837D01*
X16517312Y-13976350D01*
X16561392Y-14003935D01*
X16588682Y-14013349D01*
X16598837Y-14004481D01*
X16598900Y-14002895D01*
X16607842Y-13981020D01*
X16617993Y-13969963D01*
X16633118Y-13950745D01*
X16653898Y-13916084D01*
X16674289Y-13876605D01*
X16695754Y-13823761D01*
X16700422Y-13788778D01*
X16688241Y-13770420D01*
X16669686Y-13766800D01*
X16647774Y-13756450D01*
X16619691Y-13729713D01*
X16590349Y-13693053D01*
X16564660Y-13652936D01*
X16547538Y-13615828D01*
X16543830Y-13601156D01*
X16536550Y-13575660D01*
X16533804Y-13569950D01*
X16526690Y-13542264D01*
X16524188Y-13498594D01*
X16526006Y-13447879D01*
X16531854Y-13399055D01*
X16540515Y-13363575D01*
X16550566Y-13331519D01*
X16554071Y-13312180D01*
X16552931Y-13309600D01*
X16557192Y-13301359D01*
X16575100Y-13279969D01*
X16597211Y-13255977D01*
X16628197Y-13225393D01*
X16653154Y-13209381D01*
X16682626Y-13203265D01*
X16718168Y-13202355D01*
X16764336Y-13204845D01*
X16795595Y-13214370D01*
X16821849Y-13233752D01*
X16848185Y-13262292D01*
X16866380Y-13289021D01*
X16867105Y-13290550D01*
X16881499Y-13318644D01*
X16901327Y-13353445D01*
X16903600Y-13357225D01*
X16917716Y-13383440D01*
X16921963Y-13397657D01*
X16920936Y-13398500D01*
X16920947Y-13406256D01*
X16927292Y-13415371D01*
X16940860Y-13441758D01*
X16945453Y-13459494D01*
X16952543Y-13485387D01*
X16958406Y-13495539D01*
X16965543Y-13514167D01*
X16967200Y-13531850D01*
X16971198Y-13558225D01*
X16976725Y-13568891D01*
X16986315Y-13585062D01*
X16986555Y-13586883D01*
X16990585Y-13609369D01*
X16999942Y-13646181D01*
X17011838Y-13687580D01*
X17023483Y-13723824D01*
X17031661Y-13744402D01*
X17041775Y-13772985D01*
X17043400Y-13785850D01*
X17052936Y-13818018D01*
X17078434Y-13859662D01*
X17115225Y-13905439D01*
X17158638Y-13950006D01*
X17204007Y-13988022D01*
X17240105Y-14010930D01*
X17320678Y-14039666D01*
X17411895Y-14050698D01*
X17506169Y-14044009D01*
X17595913Y-14019581D01*
X17614329Y-14011810D01*
X17644042Y-13994355D01*
X17679801Y-13967853D01*
X17715697Y-13937475D01*
X17745823Y-13908392D01*
X17764271Y-13885773D01*
X17767300Y-13877924D01*
X17775146Y-13861733D01*
X17791638Y-13841213D01*
X17813095Y-13810239D01*
X17823489Y-13785155D01*
X17834180Y-13750323D01*
X17845552Y-13719735D01*
X17857924Y-13687543D01*
X17865348Y-13665200D01*
X17868078Y-13643257D01*
X17870496Y-13602387D01*
X17872467Y-13549060D01*
X17873860Y-13489746D01*
X17874540Y-13430918D01*
X17874375Y-13379047D01*
X17873231Y-13340602D01*
X17872276Y-13328650D01*
X17866503Y-13294529D01*
X17860085Y-13271500D01*
X17850867Y-13243641D01*
X17848898Y-13235504D01*
X17839447Y-13208263D01*
X17821720Y-13169783D01*
X17800091Y-13128362D01*
X17778935Y-13092301D01*
X17762625Y-13069902D01*
X17760658Y-13068057D01*
X17744737Y-13047537D01*
X17741900Y-13037035D01*
X17732847Y-13019973D01*
X17709565Y-12994541D01*
X17677867Y-12965575D01*
X17643566Y-12937912D01*
X17612476Y-12916388D01*
X17590409Y-12905842D01*
X17584617Y-12906170D01*
X17572602Y-12901267D01*
X17554794Y-12887222D01*
X17535458Y-12872529D01*
X17521203Y-12876021D01*
X17507043Y-12890397D01*
X17493688Y-12908714D01*
X17494495Y-12915900D01*
X17494749Y-12923898D01*
X17480944Y-12943269D01*
X17479893Y-12944475D01*
X17456775Y-12976049D01*
X17434331Y-13015180D01*
X17415944Y-13054636D01*
X17404996Y-13087186D01*
X17404669Y-13105298D01*
X17423188Y-13118388D01*
X17428454Y-13119100D01*
X17447309Y-13127116D01*
X17473439Y-13146749D01*
X17477139Y-13150098D01*
X17500932Y-13168503D01*
X17516778Y-13174181D01*
X17518285Y-13173381D01*
X17524921Y-13176385D01*
X17526000Y-13185278D01*
X17535049Y-13209390D01*
X17545284Y-13220894D01*
X17564522Y-13244663D01*
X17585332Y-13280980D01*
X17601559Y-13318194D01*
X17606711Y-13337188D01*
X17614325Y-13362362D01*
X17616533Y-13366750D01*
X17621055Y-13386863D01*
X17623747Y-13423279D01*
X17624690Y-13468741D01*
X17623962Y-13515992D01*
X17621642Y-13557774D01*
X17617810Y-13586833D01*
X17614037Y-13595882D01*
X17604127Y-13613144D01*
X17601271Y-13631024D01*
X17589492Y-13674634D01*
X17561272Y-13718674D01*
X17523281Y-13753039D01*
X17518985Y-13755681D01*
X17485524Y-13768920D01*
X17444738Y-13776672D01*
X17405371Y-13778311D01*
X17376165Y-13773208D01*
X17367121Y-13766592D01*
X17352398Y-13758950D01*
X17348112Y-13760504D01*
X17335896Y-13754487D01*
X17315762Y-13731472D01*
X17291278Y-13697115D01*
X17266011Y-13657073D01*
X17243530Y-13617001D01*
X17227403Y-13582556D01*
X17221200Y-13559393D01*
X17221200Y-13559332D01*
X17216814Y-13543944D01*
X17206389Y-13516801D01*
X17195485Y-13489579D01*
X17190208Y-13474700D01*
X17184176Y-13450257D01*
X17174261Y-13413052D01*
X17163120Y-13372726D01*
X17153411Y-13338923D01*
X17148190Y-13322300D01*
X17139565Y-13294280D01*
X17137709Y-13286383D01*
X17129705Y-13260080D01*
X17125020Y-13248283D01*
X17114546Y-13218278D01*
X17111768Y-13207099D01*
X17093147Y-13157956D01*
X17058786Y-13103680D01*
X17013949Y-13049888D01*
X16963898Y-13002198D01*
X16913898Y-12966228D01*
X16869210Y-12947596D01*
X16868520Y-12947460D01*
X16849860Y-12942958D01*
X16846550Y-12941300D01*
X16835240Y-12936572D01*
X16806685Y-12931052D01*
X16768948Y-12926115D01*
X16744950Y-12923982D01*
X16662501Y-12928420D01*
X16577332Y-12951165D01*
X16565584Y-12955813D01*
X16536851Y-12966817D01*
X16519283Y-12971985D01*
X16503983Y-12981517D01*
X16477243Y-13004848D01*
X16444322Y-13036641D01*
X16410479Y-13071556D01*
X16380974Y-13104255D01*
X16361066Y-13129400D01*
X16356448Y-13137257D01*
X16341167Y-13167700D01*
X16332222Y-13182600D01*
X16317326Y-13210943D01*
X16300412Y-13251280D01*
X16286599Y-13291227D01*
X16284979Y-13296900D01*
X16282313Y-13317210D01*
X16279371Y-13356409D01*
X16276591Y-13407993D01*
X16275155Y-13442950D01*
X16280281Y-13576737D01*
G36*
X15913100Y-4585588D02*
X15914687Y-4508944D01*
X15916254Y-4458176D01*
X15918809Y-4426393D01*
X15923008Y-4407184D01*
X15925800Y-4400550D01*
X15931608Y-4383587D01*
X15932150Y-4381500D01*
X15937958Y-4363613D01*
X15938500Y-4362450D01*
X15942964Y-4345291D01*
X15943262Y-4343110D01*
X15952448Y-4327736D01*
X15974670Y-4301060D01*
X15998936Y-4275237D01*
X16054968Y-4229602D01*
X16118893Y-4201001D01*
X16196884Y-4187063D01*
X16233775Y-4185053D01*
X16306800Y-4183052D01*
X16306800Y-4584700D01*
X16560155Y-4584700D01*
X16563652Y-4384675D01*
X16567150Y-4184650D01*
X17843500Y-4184776D01*
X17843500Y-3911600D01*
X16560800Y-3911600D01*
X16560800Y-3670300D01*
X16306800Y-3670300D01*
X16306800Y-3908019D01*
X16202025Y-3915477D01*
X16131598Y-3921231D01*
X16078983Y-3927970D01*
X16036601Y-3937386D01*
X15996873Y-3951171D01*
X15952222Y-3971020D01*
X15951200Y-3971503D01*
X15913411Y-3993169D01*
X15870407Y-4023559D01*
X15827290Y-4058272D01*
X15789165Y-4092906D01*
X15761134Y-4123059D01*
X15748302Y-4144331D01*
X15748000Y-4146751D01*
X15739857Y-4166906D01*
X15732125Y-4176395D01*
X15717843Y-4194600D01*
X15715185Y-4201160D01*
X15709767Y-4217951D01*
X15698096Y-4246469D01*
X15697359Y-4248150D01*
X15684360Y-4280742D01*
X15676753Y-4305300D01*
X15667074Y-4364948D01*
X15659094Y-4434880D01*
X15654455Y-4499979D01*
X15653987Y-4514850D01*
X15652750Y-4578350D01*
X15913100Y-4585588D01*
X15913100Y-4585588D01*
G37*
X15913100Y-4585588D02*
X15914687Y-4508944D01*
X15916254Y-4458176D01*
X15918809Y-4426393D01*
X15923008Y-4407184D01*
X15925800Y-4400550D01*
X15931608Y-4383587D01*
X15932150Y-4381500D01*
X15937958Y-4363613D01*
X15938500Y-4362450D01*
X15942964Y-4345291D01*
X15943262Y-4343110D01*
X15952448Y-4327736D01*
X15974670Y-4301060D01*
X15998936Y-4275237D01*
X16054968Y-4229602D01*
X16118893Y-4201001D01*
X16196884Y-4187063D01*
X16233775Y-4185053D01*
X16306800Y-4183052D01*
X16306800Y-4584700D01*
X16560155Y-4584700D01*
X16563652Y-4384675D01*
X16567150Y-4184650D01*
X17843500Y-4184776D01*
X17843500Y-3911600D01*
X16560800Y-3911600D01*
X16560800Y-3670300D01*
X16306800Y-3670300D01*
X16306800Y-3908019D01*
X16202025Y-3915477D01*
X16131598Y-3921231D01*
X16078983Y-3927970D01*
X16036601Y-3937386D01*
X15996873Y-3951171D01*
X15952222Y-3971020D01*
X15951200Y-3971503D01*
X15913411Y-3993169D01*
X15870407Y-4023559D01*
X15827290Y-4058272D01*
X15789165Y-4092906D01*
X15761134Y-4123059D01*
X15748302Y-4144331D01*
X15748000Y-4146751D01*
X15739857Y-4166906D01*
X15732125Y-4176395D01*
X15717843Y-4194600D01*
X15715185Y-4201160D01*
X15709767Y-4217951D01*
X15698096Y-4246469D01*
X15697359Y-4248150D01*
X15684360Y-4280742D01*
X15676753Y-4305300D01*
X15667074Y-4364948D01*
X15659094Y-4434880D01*
X15654455Y-4499979D01*
X15653987Y-4514850D01*
X15652750Y-4578350D01*
X15913100Y-4585588D01*
G36*
X16413038Y-5531013D02*
X16468603Y-5530254D01*
X16514114Y-5528545D01*
X16543975Y-5526161D01*
X16552716Y-5524117D01*
X16557727Y-5508757D01*
X16563348Y-5476738D01*
X16566178Y-5454402D01*
X16572127Y-5405558D01*
X16578246Y-5371907D01*
X16586807Y-5343329D01*
X16596948Y-5317298D01*
X16607301Y-5290520D01*
X16611600Y-5276394D01*
X16618309Y-5264053D01*
X16635613Y-5237631D01*
X16652371Y-5213399D01*
X16680846Y-5179589D01*
X16716150Y-5146529D01*
X16751571Y-5119642D01*
X16780392Y-5104353D01*
X16789400Y-5102702D01*
X16804458Y-5097572D01*
X16819088Y-5090404D01*
X16849944Y-5078231D01*
X16876238Y-5071397D01*
X16909061Y-5064892D01*
X16929100Y-5060712D01*
X16945873Y-5059714D01*
X16985018Y-5058747D01*
X17043506Y-5057845D01*
X17118308Y-5057039D01*
X17206396Y-5056365D01*
X17304742Y-5055855D01*
X17395825Y-5055571D01*
X17843500Y-5054600D01*
X17843500Y-4787900D01*
X16306800Y-4787900D01*
X16306800Y-5054600D01*
X16428199Y-5054600D01*
X16489631Y-5055855D01*
X16527882Y-5059549D01*
X16542012Y-5065575D01*
X16541621Y-5067507D01*
X16527864Y-5075764D01*
X16524134Y-5074536D01*
X16509595Y-5078417D01*
X16485861Y-5095501D01*
X16480562Y-5100243D01*
X16458651Y-5118727D01*
X16447053Y-5124938D01*
X16446499Y-5124056D01*
X16440492Y-5124282D01*
X16421949Y-5143456D01*
X16390088Y-5182427D01*
X16375598Y-5200963D01*
X16339248Y-5261181D01*
X16309184Y-5336098D01*
X16289079Y-5415149D01*
X16282880Y-5467648D01*
X16279822Y-5531447D01*
X16413038Y-5531013D01*
X16413038Y-5531013D01*
G37*
X16413038Y-5531013D02*
X16468603Y-5530254D01*
X16514114Y-5528545D01*
X16543975Y-5526161D01*
X16552716Y-5524117D01*
X16557727Y-5508757D01*
X16563348Y-5476738D01*
X16566178Y-5454402D01*
X16572127Y-5405558D01*
X16578246Y-5371907D01*
X16586807Y-5343329D01*
X16596948Y-5317298D01*
X16607301Y-5290520D01*
X16611600Y-5276394D01*
X16618309Y-5264053D01*
X16635613Y-5237631D01*
X16652371Y-5213399D01*
X16680846Y-5179589D01*
X16716150Y-5146529D01*
X16751571Y-5119642D01*
X16780392Y-5104353D01*
X16789400Y-5102702D01*
X16804458Y-5097572D01*
X16819088Y-5090404D01*
X16849944Y-5078231D01*
X16876238Y-5071397D01*
X16909061Y-5064892D01*
X16929100Y-5060712D01*
X16945873Y-5059714D01*
X16985018Y-5058747D01*
X17043506Y-5057845D01*
X17118308Y-5057039D01*
X17206396Y-5056365D01*
X17304742Y-5055855D01*
X17395825Y-5055571D01*
X17843500Y-5054600D01*
X17843500Y-4787900D01*
X16306800Y-4787900D01*
X16306800Y-5054600D01*
X16428199Y-5054600D01*
X16489631Y-5055855D01*
X16527882Y-5059549D01*
X16542012Y-5065575D01*
X16541621Y-5067507D01*
X16527864Y-5075764D01*
X16524134Y-5074536D01*
X16509595Y-5078417D01*
X16485861Y-5095501D01*
X16480562Y-5100243D01*
X16458651Y-5118727D01*
X16447053Y-5124938D01*
X16446499Y-5124056D01*
X16440492Y-5124282D01*
X16421949Y-5143456D01*
X16390088Y-5182427D01*
X16375598Y-5200963D01*
X16339248Y-5261181D01*
X16309184Y-5336098D01*
X16289079Y-5415149D01*
X16282880Y-5467648D01*
X16279822Y-5531447D01*
X16413038Y-5531013D01*
G36*
X17843500Y-6057900D02*
X17843500Y-5784797D01*
X16306800Y-5784797D01*
X16306800Y-6057900D01*
X17843500Y-6057900D01*
X17843500Y-6057900D01*
G37*
X17843500Y-6057900D02*
X17843500Y-5784797D01*
X16306800Y-5784797D01*
X16306800Y-6057900D01*
X17843500Y-6057900D01*
G36*
X16395872Y-7569200D02*
X16457306Y-7566390D01*
X16503023Y-7556053D01*
X16542275Y-7535330D01*
X16567150Y-7516236D01*
X16591356Y-7497512D01*
X16630693Y-7468657D01*
X16679304Y-7433845D01*
X16731332Y-7397250D01*
X16780919Y-7363048D01*
X16803246Y-7347962D01*
X16837292Y-7323554D01*
X16865080Y-7300929D01*
X16869921Y-7296363D01*
X16885893Y-7283385D01*
X16891000Y-7283858D01*
X16899392Y-7281465D01*
X16920766Y-7265791D01*
X16935891Y-7253015D01*
X16964271Y-7229679D01*
X16984936Y-7215540D01*
X16989996Y-7213600D01*
X17004494Y-7205732D01*
X17028530Y-7186310D01*
X17034004Y-7181336D01*
X17056155Y-7162924D01*
X17068117Y-7157124D01*
X17068800Y-7158312D01*
X17076762Y-7156319D01*
X17096793Y-7140400D01*
X17106900Y-7131050D01*
X17130137Y-7110744D01*
X17143628Y-7102744D01*
X17145000Y-7103917D01*
X17153092Y-7101888D01*
X17173596Y-7086030D01*
X17186275Y-7074602D01*
X17214427Y-7051005D01*
X17236564Y-7037274D01*
X17241869Y-7035858D01*
X17261015Y-7026964D01*
X17273039Y-7015497D01*
X17291356Y-6998855D01*
X17324396Y-6973401D01*
X17365582Y-6944158D01*
X17373019Y-6939105D01*
X17422817Y-6904838D01*
X17473290Y-6869034D01*
X17513300Y-6839601D01*
X17546147Y-6815698D01*
X17570941Y-6799571D01*
X17579975Y-6795343D01*
X17582295Y-6807329D01*
X17584411Y-6841707D01*
X17586252Y-6895469D01*
X17587746Y-6965607D01*
X17588823Y-7049113D01*
X17589410Y-7142980D01*
X17589500Y-7198051D01*
X17589500Y-7601603D01*
X17713325Y-7601114D01*
X17837150Y-7600624D01*
X17840448Y-7009824D01*
X17843747Y-6419023D01*
X17751548Y-6419865D01*
X17688801Y-6423568D01*
X17640262Y-6435967D01*
X17596018Y-6461005D01*
X17548225Y-6500739D01*
X17526003Y-6518426D01*
X17513991Y-6523017D01*
X17513300Y-6521450D01*
X17505252Y-6521680D01*
X17485241Y-6536014D01*
X17478375Y-6542026D01*
X17444195Y-6570107D01*
X17404048Y-6599300D01*
X17395911Y-6604727D01*
X17367204Y-6625392D01*
X17350239Y-6641335D01*
X17348286Y-6645275D01*
X17338302Y-6654400D01*
X17334333Y-6654800D01*
X17318109Y-6660512D01*
X17289876Y-6678769D01*
X17247250Y-6711248D01*
X17201683Y-6748190D01*
X17175654Y-6767884D01*
X17159875Y-6776441D01*
X17157700Y-6775450D01*
X17149113Y-6777209D01*
X17127348Y-6791921D01*
X17113716Y-6802709D01*
X17057996Y-6847648D01*
X17018555Y-6877035D01*
X16993012Y-6892549D01*
X16981066Y-6896100D01*
X16967719Y-6902900D01*
X16967113Y-6905625D01*
X16957363Y-6917701D01*
X16932870Y-6937055D01*
X16919488Y-6946172D01*
X16880157Y-6973985D01*
X16843290Y-7003349D01*
X16837025Y-7008873D01*
X16814786Y-7026487D01*
X16802782Y-7031013D01*
X16802100Y-7029450D01*
X16794052Y-7029680D01*
X16774041Y-7044014D01*
X16767175Y-7050026D01*
X16732995Y-7078107D01*
X16692848Y-7107300D01*
X16684711Y-7112727D01*
X16656004Y-7133392D01*
X16639039Y-7149335D01*
X16637086Y-7153275D01*
X16626999Y-7162272D01*
X16622125Y-7162800D01*
X16601868Y-7170655D01*
X16584025Y-7183818D01*
X16577395Y-7188918D01*
X16572163Y-7189168D01*
X16568163Y-7182036D01*
X16565231Y-7164993D01*
X16563202Y-7135508D01*
X16561909Y-7091051D01*
X16561188Y-7029092D01*
X16560873Y-6947100D01*
X16560800Y-6842545D01*
X16560800Y-6451600D01*
X16306800Y-6451600D01*
X16306800Y-7569200D01*
X16395872Y-7569200D01*
X16395872Y-7569200D01*
G37*
X16395872Y-7569200D02*
X16457306Y-7566390D01*
X16503023Y-7556053D01*
X16542275Y-7535330D01*
X16567150Y-7516236D01*
X16591356Y-7497512D01*
X16630693Y-7468657D01*
X16679304Y-7433845D01*
X16731332Y-7397250D01*
X16780919Y-7363048D01*
X16803246Y-7347962D01*
X16837292Y-7323554D01*
X16865080Y-7300929D01*
X16869921Y-7296363D01*
X16885893Y-7283385D01*
X16891000Y-7283858D01*
X16899392Y-7281465D01*
X16920766Y-7265791D01*
X16935891Y-7253015D01*
X16964271Y-7229679D01*
X16984936Y-7215540D01*
X16989996Y-7213600D01*
X17004494Y-7205732D01*
X17028530Y-7186310D01*
X17034004Y-7181336D01*
X17056155Y-7162924D01*
X17068117Y-7157124D01*
X17068800Y-7158312D01*
X17076762Y-7156319D01*
X17096793Y-7140400D01*
X17106900Y-7131050D01*
X17130137Y-7110744D01*
X17143628Y-7102744D01*
X17145000Y-7103917D01*
X17153092Y-7101888D01*
X17173596Y-7086030D01*
X17186275Y-7074602D01*
X17214427Y-7051005D01*
X17236564Y-7037274D01*
X17241869Y-7035858D01*
X17261015Y-7026964D01*
X17273039Y-7015497D01*
X17291356Y-6998855D01*
X17324396Y-6973401D01*
X17365582Y-6944158D01*
X17373019Y-6939105D01*
X17422817Y-6904838D01*
X17473290Y-6869034D01*
X17513300Y-6839601D01*
X17546147Y-6815698D01*
X17570941Y-6799571D01*
X17579975Y-6795343D01*
X17582295Y-6807329D01*
X17584411Y-6841707D01*
X17586252Y-6895469D01*
X17587746Y-6965607D01*
X17588823Y-7049113D01*
X17589410Y-7142980D01*
X17589500Y-7198051D01*
X17589500Y-7601603D01*
X17713325Y-7601114D01*
X17837150Y-7600624D01*
X17840448Y-7009824D01*
X17843747Y-6419023D01*
X17751548Y-6419865D01*
X17688801Y-6423568D01*
X17640262Y-6435967D01*
X17596018Y-6461005D01*
X17548225Y-6500739D01*
X17526003Y-6518426D01*
X17513991Y-6523017D01*
X17513300Y-6521450D01*
X17505252Y-6521680D01*
X17485241Y-6536014D01*
X17478375Y-6542026D01*
X17444195Y-6570107D01*
X17404048Y-6599300D01*
X17395911Y-6604727D01*
X17367204Y-6625392D01*
X17350239Y-6641335D01*
X17348286Y-6645275D01*
X17338302Y-6654400D01*
X17334333Y-6654800D01*
X17318109Y-6660512D01*
X17289876Y-6678769D01*
X17247250Y-6711248D01*
X17201683Y-6748190D01*
X17175654Y-6767884D01*
X17159875Y-6776441D01*
X17157700Y-6775450D01*
X17149113Y-6777209D01*
X17127348Y-6791921D01*
X17113716Y-6802709D01*
X17057996Y-6847648D01*
X17018555Y-6877035D01*
X16993012Y-6892549D01*
X16981066Y-6896100D01*
X16967719Y-6902900D01*
X16967113Y-6905625D01*
X16957363Y-6917701D01*
X16932870Y-6937055D01*
X16919488Y-6946172D01*
X16880157Y-6973985D01*
X16843290Y-7003349D01*
X16837025Y-7008873D01*
X16814786Y-7026487D01*
X16802782Y-7031013D01*
X16802100Y-7029450D01*
X16794052Y-7029680D01*
X16774041Y-7044014D01*
X16767175Y-7050026D01*
X16732995Y-7078107D01*
X16692848Y-7107300D01*
X16684711Y-7112727D01*
X16656004Y-7133392D01*
X16639039Y-7149335D01*
X16637086Y-7153275D01*
X16626999Y-7162272D01*
X16622125Y-7162800D01*
X16601868Y-7170655D01*
X16584025Y-7183818D01*
X16577395Y-7188918D01*
X16572163Y-7189168D01*
X16568163Y-7182036D01*
X16565231Y-7164993D01*
X16563202Y-7135508D01*
X16561909Y-7091051D01*
X16561188Y-7029092D01*
X16560873Y-6947100D01*
X16560800Y-6842545D01*
X16560800Y-6451600D01*
X16306800Y-6451600D01*
X16306800Y-7569200D01*
X16395872Y-7569200D01*
G36*
X16397560Y-8978900D02*
X16448377Y-8977633D01*
X16484405Y-8971870D01*
X16516211Y-8958664D01*
X16554102Y-8935236D01*
X16591937Y-8908726D01*
X16622499Y-8884821D01*
X16636347Y-8871736D01*
X16656410Y-8855223D01*
X16667130Y-8851841D01*
X16684474Y-8843731D01*
X16711220Y-8823396D01*
X16722725Y-8813097D01*
X16747198Y-8791996D01*
X16761995Y-8782782D01*
X16764000Y-8783782D01*
X16771959Y-8781871D01*
X16791984Y-8766003D01*
X16802100Y-8756650D01*
X16825341Y-8736314D01*
X16838830Y-8728248D01*
X16840200Y-8729387D01*
X16848213Y-8727839D01*
X16868140Y-8712538D01*
X16874995Y-8706363D01*
X16899949Y-8685308D01*
X16917167Y-8674485D01*
X16919003Y-8674100D01*
X16933230Y-8666397D01*
X16958769Y-8646875D01*
X16973108Y-8634684D01*
X16999192Y-8613202D01*
X17015385Y-8602602D01*
X17018000Y-8602850D01*
X17026150Y-8601115D01*
X17045835Y-8586442D01*
X17046575Y-8585807D01*
X17064530Y-8570933D01*
X17087212Y-8553537D01*
X17118346Y-8530934D01*
X17161657Y-8500438D01*
X17220870Y-8459365D01*
X17247774Y-8440798D01*
X17289581Y-8410958D01*
X17324353Y-8384294D01*
X17345677Y-8365767D01*
X17347754Y-8363486D01*
X17367784Y-8347109D01*
X17378330Y-8343841D01*
X17395674Y-8335731D01*
X17422420Y-8315396D01*
X17433925Y-8305097D01*
X17458398Y-8283996D01*
X17473195Y-8274782D01*
X17475200Y-8275782D01*
X17483159Y-8273871D01*
X17503184Y-8258003D01*
X17513300Y-8248650D01*
X17536512Y-8228553D01*
X17550010Y-8221013D01*
X17551400Y-8222428D01*
X17559168Y-8224281D01*
X17570269Y-8217049D01*
X17575547Y-8215083D01*
X17579817Y-8220451D01*
X17583216Y-8235546D01*
X17585879Y-8262760D01*
X17587945Y-8304484D01*
X17589550Y-8363111D01*
X17590829Y-8441032D01*
X17591921Y-8540640D01*
X17592494Y-8605858D01*
X17595850Y-9010328D01*
X17719675Y-9010816D01*
X17843500Y-9011303D01*
X17843500Y-7820510D01*
X17744017Y-7825030D01*
X17691973Y-7828295D01*
X17657142Y-7834037D01*
X17631336Y-7844817D01*
X17606366Y-7863194D01*
X17597525Y-7870825D01*
X17568521Y-7894779D01*
X17547174Y-7909672D01*
X17541303Y-7912100D01*
X17526805Y-7919967D01*
X17502769Y-7939389D01*
X17497295Y-7944363D01*
X17475144Y-7962775D01*
X17463182Y-7968575D01*
X17462500Y-7967387D01*
X17454401Y-7968820D01*
X17434279Y-7983869D01*
X17427575Y-7989767D01*
X17395540Y-8015815D01*
X17354491Y-8045499D01*
X17335500Y-8058150D01*
X17294636Y-8086241D01*
X17256725Y-8115199D01*
X17243425Y-8126532D01*
X17221107Y-8144730D01*
X17209141Y-8150577D01*
X17208500Y-8149510D01*
X17200380Y-8150488D01*
X17180759Y-8164777D01*
X17179925Y-8165492D01*
X17148418Y-8191022D01*
X17105151Y-8223129D01*
X17046769Y-8264238D01*
X16979319Y-8310399D01*
X16937429Y-8339908D01*
X16902534Y-8366466D01*
X16881192Y-8385041D01*
X16879339Y-8387097D01*
X16859210Y-8403859D01*
X16848169Y-8407458D01*
X16830825Y-8415568D01*
X16804079Y-8435903D01*
X16792575Y-8446202D01*
X16768101Y-8467303D01*
X16753304Y-8476517D01*
X16751300Y-8475517D01*
X16743204Y-8476865D01*
X16723089Y-8491863D01*
X16716375Y-8497767D01*
X16686449Y-8522531D01*
X16650034Y-8549510D01*
X16613855Y-8574115D01*
X16584634Y-8591759D01*
X16569642Y-8597900D01*
X16567390Y-8585726D01*
X16565350Y-8551310D01*
X16563598Y-8497809D01*
X16562207Y-8428380D01*
X16561256Y-8346181D01*
X16560819Y-8254368D01*
X16560800Y-8229600D01*
X16560800Y-7861300D01*
X16306800Y-7861300D01*
X16306800Y-8978900D01*
X16397560Y-8978900D01*
X16397560Y-8978900D01*
G37*
X16397560Y-8978900D02*
X16448377Y-8977633D01*
X16484405Y-8971870D01*
X16516211Y-8958664D01*
X16554102Y-8935236D01*
X16591937Y-8908726D01*
X16622499Y-8884821D01*
X16636347Y-8871736D01*
X16656410Y-8855223D01*
X16667130Y-8851841D01*
X16684474Y-8843731D01*
X16711220Y-8823396D01*
X16722725Y-8813097D01*
X16747198Y-8791996D01*
X16761995Y-8782782D01*
X16764000Y-8783782D01*
X16771959Y-8781871D01*
X16791984Y-8766003D01*
X16802100Y-8756650D01*
X16825341Y-8736314D01*
X16838830Y-8728248D01*
X16840200Y-8729387D01*
X16848213Y-8727839D01*
X16868140Y-8712538D01*
X16874995Y-8706363D01*
X16899949Y-8685308D01*
X16917167Y-8674485D01*
X16919003Y-8674100D01*
X16933230Y-8666397D01*
X16958769Y-8646875D01*
X16973108Y-8634684D01*
X16999192Y-8613202D01*
X17015385Y-8602602D01*
X17018000Y-8602850D01*
X17026150Y-8601115D01*
X17045835Y-8586442D01*
X17046575Y-8585807D01*
X17064530Y-8570933D01*
X17087212Y-8553537D01*
X17118346Y-8530934D01*
X17161657Y-8500438D01*
X17220870Y-8459365D01*
X17247774Y-8440798D01*
X17289581Y-8410958D01*
X17324353Y-8384294D01*
X17345677Y-8365767D01*
X17347754Y-8363486D01*
X17367784Y-8347109D01*
X17378330Y-8343841D01*
X17395674Y-8335731D01*
X17422420Y-8315396D01*
X17433925Y-8305097D01*
X17458398Y-8283996D01*
X17473195Y-8274782D01*
X17475200Y-8275782D01*
X17483159Y-8273871D01*
X17503184Y-8258003D01*
X17513300Y-8248650D01*
X17536512Y-8228553D01*
X17550010Y-8221013D01*
X17551400Y-8222428D01*
X17559168Y-8224281D01*
X17570269Y-8217049D01*
X17575547Y-8215083D01*
X17579817Y-8220451D01*
X17583216Y-8235546D01*
X17585879Y-8262760D01*
X17587945Y-8304484D01*
X17589550Y-8363111D01*
X17590829Y-8441032D01*
X17591921Y-8540640D01*
X17592494Y-8605858D01*
X17595850Y-9010328D01*
X17719675Y-9010816D01*
X17843500Y-9011303D01*
X17843500Y-7820510D01*
X17744017Y-7825030D01*
X17691973Y-7828295D01*
X17657142Y-7834037D01*
X17631336Y-7844817D01*
X17606366Y-7863194D01*
X17597525Y-7870825D01*
X17568521Y-7894779D01*
X17547174Y-7909672D01*
X17541303Y-7912100D01*
X17526805Y-7919967D01*
X17502769Y-7939389D01*
X17497295Y-7944363D01*
X17475144Y-7962775D01*
X17463182Y-7968575D01*
X17462500Y-7967387D01*
X17454401Y-7968820D01*
X17434279Y-7983869D01*
X17427575Y-7989767D01*
X17395540Y-8015815D01*
X17354491Y-8045499D01*
X17335500Y-8058150D01*
X17294636Y-8086241D01*
X17256725Y-8115199D01*
X17243425Y-8126532D01*
X17221107Y-8144730D01*
X17209141Y-8150577D01*
X17208500Y-8149510D01*
X17200380Y-8150488D01*
X17180759Y-8164777D01*
X17179925Y-8165492D01*
X17148418Y-8191022D01*
X17105151Y-8223129D01*
X17046769Y-8264238D01*
X16979319Y-8310399D01*
X16937429Y-8339908D01*
X16902534Y-8366466D01*
X16881192Y-8385041D01*
X16879339Y-8387097D01*
X16859210Y-8403859D01*
X16848169Y-8407458D01*
X16830825Y-8415568D01*
X16804079Y-8435903D01*
X16792575Y-8446202D01*
X16768101Y-8467303D01*
X16753304Y-8476517D01*
X16751300Y-8475517D01*
X16743204Y-8476865D01*
X16723089Y-8491863D01*
X16716375Y-8497767D01*
X16686449Y-8522531D01*
X16650034Y-8549510D01*
X16613855Y-8574115D01*
X16584634Y-8591759D01*
X16569642Y-8597900D01*
X16567390Y-8585726D01*
X16565350Y-8551310D01*
X16563598Y-8497809D01*
X16562207Y-8428380D01*
X16561256Y-8346181D01*
X16560819Y-8254368D01*
X16560800Y-8229600D01*
X16560800Y-7861300D01*
X16306800Y-7861300D01*
X16306800Y-8978900D01*
X16397560Y-8978900D01*
G36*
X17760950Y-13055600D02*
X17767300Y-13049250D01*
X17760950Y-13042900D01*
X17754600Y-13049250D01*
X17760950Y-13055600D01*
X17760950Y-13055600D01*
G37*
X17760950Y-13055600D02*
X17767300Y-13049250D01*
X17760950Y-13042900D01*
X17754600Y-13049250D01*
X17760950Y-13055600D01*
G36*
X17456150Y-12547600D02*
X17462500Y-12541250D01*
X17456150Y-12534900D01*
X17449800Y-12541250D01*
X17456150Y-12547600D01*
X17456150Y-12547600D01*
G37*
X17456150Y-12547600D02*
X17462500Y-12541250D01*
X17456150Y-12534900D01*
X17449800Y-12541250D01*
X17456150Y-12547600D01*
G36*
X16338550Y-13157200D02*
X16344900Y-13150850D01*
X16338550Y-13144500D01*
X16332200Y-13150850D01*
X16338550Y-13157200D01*
X16338550Y-13157200D01*
G37*
X16338550Y-13157200D02*
X16344900Y-13150850D01*
X16338550Y-13144500D01*
X16332200Y-13150850D01*
X16338550Y-13157200D01*
G36*
X15676642Y-5966464D02*
X15684935Y-5994597D01*
X15704673Y-6021759D01*
X15726004Y-6044133D01*
X15759467Y-6075700D01*
X15786291Y-6092342D01*
X15816367Y-6098421D01*
X15849600Y-6098602D01*
X15899948Y-6094780D01*
X15935114Y-6084073D01*
X15965135Y-6062610D01*
X15979579Y-6048476D01*
X16005280Y-6017558D01*
X16017908Y-5986510D01*
X16022274Y-5943142D01*
X16022373Y-5940064D01*
X16022346Y-5898379D01*
X16020071Y-5865484D01*
X16017973Y-5854700D01*
X15997270Y-5820631D01*
X15962119Y-5785589D01*
X15921833Y-5757570D01*
X15890461Y-5745238D01*
X15854378Y-5743466D01*
X15814244Y-5748593D01*
X15778026Y-5758612D01*
X15753694Y-5771515D01*
X15748000Y-5781126D01*
X15743040Y-5789457D01*
X15740138Y-5787571D01*
X15726387Y-5788514D01*
X15717913Y-5795470D01*
X15691003Y-5835050D01*
X15677795Y-5883487D01*
X15675163Y-5926658D01*
X15676642Y-5966464D01*
X15676642Y-5966464D01*
G37*
X15676642Y-5966464D02*
X15684935Y-5994597D01*
X15704673Y-6021759D01*
X15726004Y-6044133D01*
X15759467Y-6075700D01*
X15786291Y-6092342D01*
X15816367Y-6098421D01*
X15849600Y-6098602D01*
X15899948Y-6094780D01*
X15935114Y-6084073D01*
X15965135Y-6062610D01*
X15979579Y-6048476D01*
X16005280Y-6017558D01*
X16017908Y-5986510D01*
X16022274Y-5943142D01*
X16022373Y-5940064D01*
X16022346Y-5898379D01*
X16020071Y-5865484D01*
X16017973Y-5854700D01*
X15997270Y-5820631D01*
X15962119Y-5785589D01*
X15921833Y-5757570D01*
X15890461Y-5745238D01*
X15854378Y-5743466D01*
X15814244Y-5748593D01*
X15778026Y-5758612D01*
X15753694Y-5771515D01*
X15748000Y-5781126D01*
X15743040Y-5789457D01*
X15740138Y-5787571D01*
X15726387Y-5788514D01*
X15717913Y-5795470D01*
X15691003Y-5835050D01*
X15677795Y-5883487D01*
X15675163Y-5926658D01*
X15676642Y-5966464D01*
M02*
