M48
;DRILL file {KiCad 4.0.7} date 07/15/18 19:42:51
;FORMAT={-:-/ absolute / metric / decimal}
FMAT,2
METRIC,TZ
T1C0.330
T2C0.700
T3C1.000
T4C3.200
%
G90
G05
M71
T1
X3.81Y-11.43
X9.525Y-1.905
X9.957Y-16.358
X13.97Y-2.54
X13.97Y-3.81
X13.97Y-5.08
X13.97Y-6.35
X13.97Y-11.43
X13.97Y-12.7
X13.97Y-13.97
X13.97Y-15.24
X15.24Y-1.27
X15.24Y-4.445
X15.24Y-13.335
X22.86Y-5.08
X22.86Y-12.7
T2
X27.305Y-3.715
X27.305Y-5.715
X27.305Y-11.97
X27.305Y-13.97
T3
X2.54Y-2.54
X2.54Y-5.08
X2.54Y-7.62
X2.54Y-10.16
X2.54Y-12.7
X2.54Y-15.24
T4
X22.225Y-8.89
T0
M30
