%TF.GenerationSoftware,KiCad,Pcbnew,4.0.7*%
%TF.CreationDate,2018-05-06T15:52:37+02:00*%
%TF.ProjectId,MotorController,4D6F746F72436F6E74726F6C6C65722E,rev?*%
%TF.FileFunction,Soldermask,Bot*%
%FSLAX46Y46*%
G04 Gerber Fmt 4.6, Leading zero omitted, Abs format (unit mm)*
G04 Created by KiCad (PCBNEW 4.0.7) date 05/06/18 15:52:37*
%MOMM*%
%LPD*%
G01*
G04 APERTURE LIST*
%ADD10C,0.100000*%
%ADD11C,0.010000*%
%ADD12R,2.100000X1.600000*%
%ADD13O,2.100000X1.600000*%
%ADD14R,2.100000X2.100000*%
%ADD15O,2.100000X2.100000*%
%ADD16C,3.600000*%
G04 APERTURE END LIST*
D10*
D11*
G36*
X11493204Y-6934698D02*
X11493907Y-6937690D01*
X11514545Y-6996991D01*
X11545874Y-7051035D01*
X11586485Y-7098419D01*
X11634967Y-7137743D01*
X11689912Y-7167606D01*
X11742672Y-7184989D01*
X11807018Y-7194090D01*
X11869253Y-7190748D01*
X11928816Y-7175128D01*
X11985148Y-7147391D01*
X12037689Y-7107701D01*
X12050708Y-7095396D01*
X12089516Y-7051298D01*
X12117721Y-7004986D01*
X12137335Y-6952781D01*
X12144380Y-6924118D01*
X12151247Y-6883462D01*
X12152634Y-6848091D01*
X12148540Y-6811833D01*
X12144412Y-6791325D01*
X12124248Y-6728576D01*
X12093577Y-6672424D01*
X12053242Y-6623766D01*
X12004087Y-6583502D01*
X11946954Y-6552529D01*
X11906684Y-6538025D01*
X11857319Y-6528873D01*
X11802880Y-6528084D01*
X11747450Y-6535219D01*
X11695108Y-6549836D01*
X11662250Y-6564412D01*
X11636730Y-6581129D01*
X11607878Y-6604954D01*
X11578745Y-6632846D01*
X11552386Y-6661765D01*
X11531853Y-6688669D01*
X11523678Y-6702425D01*
X11501726Y-6757923D01*
X11489025Y-6817545D01*
X11486032Y-6877675D01*
X11493204Y-6934698D01*
X11493204Y-6934698D01*
G37*
X11493204Y-6934698D02*
X11493907Y-6937690D01*
X11514545Y-6996991D01*
X11545874Y-7051035D01*
X11586485Y-7098419D01*
X11634967Y-7137743D01*
X11689912Y-7167606D01*
X11742672Y-7184989D01*
X11807018Y-7194090D01*
X11869253Y-7190748D01*
X11928816Y-7175128D01*
X11985148Y-7147391D01*
X12037689Y-7107701D01*
X12050708Y-7095396D01*
X12089516Y-7051298D01*
X12117721Y-7004986D01*
X12137335Y-6952781D01*
X12144380Y-6924118D01*
X12151247Y-6883462D01*
X12152634Y-6848091D01*
X12148540Y-6811833D01*
X12144412Y-6791325D01*
X12124248Y-6728576D01*
X12093577Y-6672424D01*
X12053242Y-6623766D01*
X12004087Y-6583502D01*
X11946954Y-6552529D01*
X11906684Y-6538025D01*
X11857319Y-6528873D01*
X11802880Y-6528084D01*
X11747450Y-6535219D01*
X11695108Y-6549836D01*
X11662250Y-6564412D01*
X11636730Y-6581129D01*
X11607878Y-6604954D01*
X11578745Y-6632846D01*
X11552386Y-6661765D01*
X11531853Y-6688669D01*
X11523678Y-6702425D01*
X11501726Y-6757923D01*
X11489025Y-6817545D01*
X11486032Y-6877675D01*
X11493204Y-6934698D01*
G36*
X9123392Y-8907346D02*
X9126646Y-8930656D01*
X9134242Y-8955321D01*
X9136940Y-8961421D01*
X9144634Y-8972558D01*
X9160786Y-8991645D01*
X9185509Y-9018802D01*
X9218918Y-9054148D01*
X9261127Y-9097803D01*
X9312249Y-9149887D01*
X9372400Y-9210520D01*
X9413739Y-9251921D01*
X9677401Y-9515418D01*
X9953409Y-9239465D01*
X10010321Y-9182521D01*
X10058860Y-9133831D01*
X10099669Y-9092701D01*
X10133391Y-9058442D01*
X10160669Y-9030360D01*
X10182146Y-9007764D01*
X10198464Y-8989964D01*
X10210266Y-8976266D01*
X10218196Y-8965980D01*
X10222897Y-8958414D01*
X10225010Y-8952876D01*
X10225180Y-8948674D01*
X10224899Y-8947393D01*
X10220386Y-8913015D01*
X10223534Y-8874860D01*
X10233688Y-8838749D01*
X10238232Y-8828729D01*
X10263093Y-8792703D01*
X10295557Y-8765276D01*
X10333427Y-8747179D01*
X10374502Y-8739139D01*
X10416586Y-8741888D01*
X10457242Y-8756033D01*
X10483999Y-8774490D01*
X10509312Y-8800247D01*
X10529656Y-8829140D01*
X10540952Y-8854903D01*
X10547577Y-8899457D01*
X10542974Y-8941816D01*
X10528319Y-8980366D01*
X10504788Y-9013491D01*
X10473555Y-9039576D01*
X10435796Y-9057006D01*
X10392687Y-9064166D01*
X10388600Y-9064251D01*
X10364997Y-9063740D01*
X10345058Y-9062035D01*
X10334546Y-9059913D01*
X10330730Y-9060069D01*
X10324607Y-9063064D01*
X10315530Y-9069505D01*
X10302854Y-9080001D01*
X10285930Y-9095159D01*
X10264113Y-9115586D01*
X10236757Y-9141889D01*
X10203214Y-9174677D01*
X10162838Y-9214557D01*
X10114983Y-9262137D01*
X10059001Y-9318023D01*
X10045687Y-9331337D01*
X9769606Y-9607473D01*
X9842565Y-9680975D01*
X9878301Y-9716254D01*
X9907420Y-9743018D01*
X9931607Y-9762358D01*
X9952548Y-9775369D01*
X9971929Y-9783143D01*
X9991437Y-9786772D01*
X10006788Y-9787433D01*
X10036001Y-9784847D01*
X10060882Y-9778006D01*
X10064750Y-9776240D01*
X10072924Y-9769912D01*
X10089201Y-9755335D01*
X10112775Y-9733312D01*
X10142842Y-9704645D01*
X10178594Y-9670137D01*
X10219228Y-9630592D01*
X10263938Y-9586813D01*
X10311918Y-9539601D01*
X10362364Y-9489761D01*
X10414470Y-9438095D01*
X10467430Y-9385406D01*
X10520440Y-9332496D01*
X10572693Y-9280170D01*
X10623386Y-9229229D01*
X10671711Y-9180477D01*
X10716865Y-9134716D01*
X10758042Y-9092750D01*
X10794436Y-9055382D01*
X10825242Y-9023413D01*
X10849655Y-8997648D01*
X10866869Y-8978889D01*
X10876080Y-8967939D01*
X10877214Y-8966200D01*
X10888798Y-8934412D01*
X10893303Y-8900361D01*
X10890679Y-8873224D01*
X10883797Y-8854006D01*
X10873550Y-8833783D01*
X10872428Y-8831949D01*
X10865552Y-8823617D01*
X10850509Y-8807214D01*
X10828146Y-8783613D01*
X10799314Y-8753686D01*
X10764861Y-8718305D01*
X10725637Y-8678345D01*
X10682489Y-8634677D01*
X10636267Y-8588173D01*
X10598425Y-8550294D01*
X10337780Y-8289963D01*
X9786034Y-8842375D01*
X9793082Y-8872406D01*
X9796372Y-8913052D01*
X9788067Y-8953327D01*
X9769149Y-8991116D01*
X9740603Y-9024303D01*
X9712603Y-9045438D01*
X9694573Y-9055627D01*
X9678571Y-9061407D01*
X9659673Y-9063962D01*
X9633447Y-9064477D01*
X9592882Y-9061258D01*
X9559951Y-9050864D01*
X9530918Y-9031775D01*
X9514246Y-9015968D01*
X9488065Y-8980243D01*
X9472938Y-8940917D01*
X9468517Y-8899982D01*
X9474455Y-8859428D01*
X9490402Y-8821248D01*
X9516010Y-8787431D01*
X9550931Y-8759969D01*
X9559925Y-8754928D01*
X9584816Y-8746354D01*
X9616387Y-8741574D01*
X9649063Y-8741043D01*
X9677269Y-8745216D01*
X9677643Y-8745321D01*
X9681537Y-8745689D01*
X9686517Y-8744344D01*
X9693276Y-8740645D01*
X9702506Y-8733947D01*
X9714899Y-8723608D01*
X9731146Y-8708984D01*
X9751939Y-8689433D01*
X9777970Y-8664311D01*
X9809931Y-8632976D01*
X9848514Y-8594785D01*
X9894410Y-8549094D01*
X9948312Y-8495261D01*
X9969680Y-8473894D01*
X10245598Y-8197921D01*
X10169461Y-8121523D01*
X10140145Y-8092980D01*
X10112719Y-8067901D01*
X10089145Y-8047989D01*
X10071391Y-8034946D01*
X10065994Y-8031854D01*
X10028754Y-8020476D01*
X9989283Y-8020076D01*
X9951737Y-8030655D01*
X9949205Y-8031847D01*
X9940357Y-8037933D01*
X9925046Y-8050825D01*
X9903009Y-8070778D01*
X9873985Y-8098043D01*
X9837712Y-8132876D01*
X9793928Y-8175529D01*
X9742372Y-8226256D01*
X9682782Y-8285311D01*
X9614896Y-8352947D01*
X9538451Y-8429418D01*
X9530494Y-8437392D01*
X9460830Y-8507213D01*
X9399580Y-8568650D01*
X9346203Y-8622326D01*
X9300160Y-8668864D01*
X9260912Y-8708887D01*
X9227917Y-8743018D01*
X9200638Y-8771881D01*
X9178533Y-8796098D01*
X9161063Y-8816292D01*
X9147689Y-8833087D01*
X9137870Y-8847105D01*
X9131067Y-8858971D01*
X9126740Y-8869306D01*
X9124350Y-8878733D01*
X9123356Y-8887877D01*
X9123219Y-8897360D01*
X9123392Y-8907346D01*
X9123392Y-8907346D01*
G37*
X9123392Y-8907346D02*
X9126646Y-8930656D01*
X9134242Y-8955321D01*
X9136940Y-8961421D01*
X9144634Y-8972558D01*
X9160786Y-8991645D01*
X9185509Y-9018802D01*
X9218918Y-9054148D01*
X9261127Y-9097803D01*
X9312249Y-9149887D01*
X9372400Y-9210520D01*
X9413739Y-9251921D01*
X9677401Y-9515418D01*
X9953409Y-9239465D01*
X10010321Y-9182521D01*
X10058860Y-9133831D01*
X10099669Y-9092701D01*
X10133391Y-9058442D01*
X10160669Y-9030360D01*
X10182146Y-9007764D01*
X10198464Y-8989964D01*
X10210266Y-8976266D01*
X10218196Y-8965980D01*
X10222897Y-8958414D01*
X10225010Y-8952876D01*
X10225180Y-8948674D01*
X10224899Y-8947393D01*
X10220386Y-8913015D01*
X10223534Y-8874860D01*
X10233688Y-8838749D01*
X10238232Y-8828729D01*
X10263093Y-8792703D01*
X10295557Y-8765276D01*
X10333427Y-8747179D01*
X10374502Y-8739139D01*
X10416586Y-8741888D01*
X10457242Y-8756033D01*
X10483999Y-8774490D01*
X10509312Y-8800247D01*
X10529656Y-8829140D01*
X10540952Y-8854903D01*
X10547577Y-8899457D01*
X10542974Y-8941816D01*
X10528319Y-8980366D01*
X10504788Y-9013491D01*
X10473555Y-9039576D01*
X10435796Y-9057006D01*
X10392687Y-9064166D01*
X10388600Y-9064251D01*
X10364997Y-9063740D01*
X10345058Y-9062035D01*
X10334546Y-9059913D01*
X10330730Y-9060069D01*
X10324607Y-9063064D01*
X10315530Y-9069505D01*
X10302854Y-9080001D01*
X10285930Y-9095159D01*
X10264113Y-9115586D01*
X10236757Y-9141889D01*
X10203214Y-9174677D01*
X10162838Y-9214557D01*
X10114983Y-9262137D01*
X10059001Y-9318023D01*
X10045687Y-9331337D01*
X9769606Y-9607473D01*
X9842565Y-9680975D01*
X9878301Y-9716254D01*
X9907420Y-9743018D01*
X9931607Y-9762358D01*
X9952548Y-9775369D01*
X9971929Y-9783143D01*
X9991437Y-9786772D01*
X10006788Y-9787433D01*
X10036001Y-9784847D01*
X10060882Y-9778006D01*
X10064750Y-9776240D01*
X10072924Y-9769912D01*
X10089201Y-9755335D01*
X10112775Y-9733312D01*
X10142842Y-9704645D01*
X10178594Y-9670137D01*
X10219228Y-9630592D01*
X10263938Y-9586813D01*
X10311918Y-9539601D01*
X10362364Y-9489761D01*
X10414470Y-9438095D01*
X10467430Y-9385406D01*
X10520440Y-9332496D01*
X10572693Y-9280170D01*
X10623386Y-9229229D01*
X10671711Y-9180477D01*
X10716865Y-9134716D01*
X10758042Y-9092750D01*
X10794436Y-9055382D01*
X10825242Y-9023413D01*
X10849655Y-8997648D01*
X10866869Y-8978889D01*
X10876080Y-8967939D01*
X10877214Y-8966200D01*
X10888798Y-8934412D01*
X10893303Y-8900361D01*
X10890679Y-8873224D01*
X10883797Y-8854006D01*
X10873550Y-8833783D01*
X10872428Y-8831949D01*
X10865552Y-8823617D01*
X10850509Y-8807214D01*
X10828146Y-8783613D01*
X10799314Y-8753686D01*
X10764861Y-8718305D01*
X10725637Y-8678345D01*
X10682489Y-8634677D01*
X10636267Y-8588173D01*
X10598425Y-8550294D01*
X10337780Y-8289963D01*
X9786034Y-8842375D01*
X9793082Y-8872406D01*
X9796372Y-8913052D01*
X9788067Y-8953327D01*
X9769149Y-8991116D01*
X9740603Y-9024303D01*
X9712603Y-9045438D01*
X9694573Y-9055627D01*
X9678571Y-9061407D01*
X9659673Y-9063962D01*
X9633447Y-9064477D01*
X9592882Y-9061258D01*
X9559951Y-9050864D01*
X9530918Y-9031775D01*
X9514246Y-9015968D01*
X9488065Y-8980243D01*
X9472938Y-8940917D01*
X9468517Y-8899982D01*
X9474455Y-8859428D01*
X9490402Y-8821248D01*
X9516010Y-8787431D01*
X9550931Y-8759969D01*
X9559925Y-8754928D01*
X9584816Y-8746354D01*
X9616387Y-8741574D01*
X9649063Y-8741043D01*
X9677269Y-8745216D01*
X9677643Y-8745321D01*
X9681537Y-8745689D01*
X9686517Y-8744344D01*
X9693276Y-8740645D01*
X9702506Y-8733947D01*
X9714899Y-8723608D01*
X9731146Y-8708984D01*
X9751939Y-8689433D01*
X9777970Y-8664311D01*
X9809931Y-8632976D01*
X9848514Y-8594785D01*
X9894410Y-8549094D01*
X9948312Y-8495261D01*
X9969680Y-8473894D01*
X10245598Y-8197921D01*
X10169461Y-8121523D01*
X10140145Y-8092980D01*
X10112719Y-8067901D01*
X10089145Y-8047989D01*
X10071391Y-8034946D01*
X10065994Y-8031854D01*
X10028754Y-8020476D01*
X9989283Y-8020076D01*
X9951737Y-8030655D01*
X9949205Y-8031847D01*
X9940357Y-8037933D01*
X9925046Y-8050825D01*
X9903009Y-8070778D01*
X9873985Y-8098043D01*
X9837712Y-8132876D01*
X9793928Y-8175529D01*
X9742372Y-8226256D01*
X9682782Y-8285311D01*
X9614896Y-8352947D01*
X9538451Y-8429418D01*
X9530494Y-8437392D01*
X9460830Y-8507213D01*
X9399580Y-8568650D01*
X9346203Y-8622326D01*
X9300160Y-8668864D01*
X9260912Y-8708887D01*
X9227917Y-8743018D01*
X9200638Y-8771881D01*
X9178533Y-8796098D01*
X9161063Y-8816292D01*
X9147689Y-8833087D01*
X9137870Y-8847105D01*
X9131067Y-8858971D01*
X9126740Y-8869306D01*
X9124350Y-8878733D01*
X9123356Y-8887877D01*
X9123219Y-8897360D01*
X9123392Y-8907346D01*
G36*
X10278354Y-11425662D02*
X10291876Y-11483116D01*
X10316884Y-11537392D01*
X10353141Y-11587111D01*
X10371141Y-11605801D01*
X10419027Y-11644754D01*
X10469685Y-11671710D01*
X10524733Y-11687320D01*
X10585787Y-11692233D01*
X10586056Y-11692232D01*
X10644861Y-11685881D01*
X10701193Y-11668113D01*
X10753295Y-11640140D01*
X10799410Y-11603173D01*
X10837781Y-11558423D01*
X10866650Y-11507102D01*
X10871358Y-11495558D01*
X10881038Y-11460212D01*
X10886864Y-11417838D01*
X10888598Y-11373376D01*
X10886004Y-11331766D01*
X10880598Y-11303664D01*
X10857978Y-11245800D01*
X10824878Y-11194407D01*
X10782328Y-11150592D01*
X10731361Y-11115460D01*
X10685785Y-11094561D01*
X10628404Y-11079786D01*
X10570372Y-11076849D01*
X10513302Y-11085094D01*
X10458809Y-11103861D01*
X10408507Y-11132495D01*
X10364009Y-11170337D01*
X10326931Y-11216730D01*
X10309105Y-11248015D01*
X10286730Y-11306733D01*
X10276560Y-11366408D01*
X10278354Y-11425662D01*
X10278354Y-11425662D01*
G37*
X10278354Y-11425662D02*
X10291876Y-11483116D01*
X10316884Y-11537392D01*
X10353141Y-11587111D01*
X10371141Y-11605801D01*
X10419027Y-11644754D01*
X10469685Y-11671710D01*
X10524733Y-11687320D01*
X10585787Y-11692233D01*
X10586056Y-11692232D01*
X10644861Y-11685881D01*
X10701193Y-11668113D01*
X10753295Y-11640140D01*
X10799410Y-11603173D01*
X10837781Y-11558423D01*
X10866650Y-11507102D01*
X10871358Y-11495558D01*
X10881038Y-11460212D01*
X10886864Y-11417838D01*
X10888598Y-11373376D01*
X10886004Y-11331766D01*
X10880598Y-11303664D01*
X10857978Y-11245800D01*
X10824878Y-11194407D01*
X10782328Y-11150592D01*
X10731361Y-11115460D01*
X10685785Y-11094561D01*
X10628404Y-11079786D01*
X10570372Y-11076849D01*
X10513302Y-11085094D01*
X10458809Y-11103861D01*
X10408507Y-11132495D01*
X10364009Y-11170337D01*
X10326931Y-11216730D01*
X10309105Y-11248015D01*
X10286730Y-11306733D01*
X10276560Y-11366408D01*
X10278354Y-11425662D01*
G36*
X10324138Y-8928085D02*
X10338368Y-8950340D01*
X10358536Y-8965623D01*
X10369063Y-8969268D01*
X10393483Y-8968890D01*
X10417863Y-8959346D01*
X10437117Y-8943001D01*
X10442153Y-8935265D01*
X10451087Y-8909018D01*
X10448457Y-8884563D01*
X10439974Y-8867017D01*
X10421821Y-8847359D01*
X10399479Y-8837586D01*
X10375636Y-8836906D01*
X10352980Y-8844527D01*
X10334202Y-8859658D01*
X10321988Y-8881508D01*
X10318750Y-8902700D01*
X10324138Y-8928085D01*
X10324138Y-8928085D01*
G37*
X10324138Y-8928085D02*
X10338368Y-8950340D01*
X10358536Y-8965623D01*
X10369063Y-8969268D01*
X10393483Y-8968890D01*
X10417863Y-8959346D01*
X10437117Y-8943001D01*
X10442153Y-8935265D01*
X10451087Y-8909018D01*
X10448457Y-8884563D01*
X10439974Y-8867017D01*
X10421821Y-8847359D01*
X10399479Y-8837586D01*
X10375636Y-8836906D01*
X10352980Y-8844527D01*
X10334202Y-8859658D01*
X10321988Y-8881508D01*
X10318750Y-8902700D01*
X10324138Y-8928085D01*
G36*
X9566079Y-8918330D02*
X9571618Y-8931846D01*
X9587498Y-8952208D01*
X9610283Y-8965872D01*
X9635534Y-8970577D01*
X9645415Y-8969426D01*
X9668558Y-8958358D01*
X9686623Y-8938499D01*
X9697330Y-8913448D01*
X9698393Y-8886801D01*
X9698270Y-8886112D01*
X9692216Y-8873219D01*
X9680300Y-8858038D01*
X9676806Y-8854506D01*
X9653337Y-8839612D01*
X9627947Y-8835676D01*
X9603541Y-8841912D01*
X9583024Y-8857531D01*
X9569303Y-8881746D01*
X9568641Y-8883844D01*
X9564375Y-8903057D01*
X9566079Y-8918330D01*
X9566079Y-8918330D01*
G37*
X9566079Y-8918330D02*
X9571618Y-8931846D01*
X9587498Y-8952208D01*
X9610283Y-8965872D01*
X9635534Y-8970577D01*
X9645415Y-8969426D01*
X9668558Y-8958358D01*
X9686623Y-8938499D01*
X9697330Y-8913448D01*
X9698393Y-8886801D01*
X9698270Y-8886112D01*
X9692216Y-8873219D01*
X9680300Y-8858038D01*
X9676806Y-8854506D01*
X9653337Y-8839612D01*
X9627947Y-8835676D01*
X9603541Y-8841912D01*
X9583024Y-8857531D01*
X9569303Y-8881746D01*
X9568641Y-8883844D01*
X9564375Y-8903057D01*
X9566079Y-8918330D01*
G36*
X7119835Y-8197399D02*
X7130862Y-8254101D01*
X7152061Y-8307387D01*
X7182598Y-8355828D01*
X7221640Y-8397997D01*
X7268355Y-8432466D01*
X7321908Y-8457807D01*
X7358540Y-8468388D01*
X7418155Y-8475528D01*
X7476870Y-8471026D01*
X7533119Y-8455743D01*
X7585331Y-8430540D01*
X7631941Y-8396278D01*
X7671381Y-8353817D01*
X7702082Y-8304019D01*
X7715087Y-8272634D01*
X7725822Y-8230109D01*
X7731224Y-8182805D01*
X7731005Y-8135999D01*
X7724874Y-8094973D01*
X7724832Y-8094806D01*
X7707213Y-8043605D01*
X7681012Y-7997989D01*
X7644304Y-7954685D01*
X7639745Y-7950123D01*
X7595835Y-7912474D01*
X7550645Y-7885974D01*
X7501539Y-7869553D01*
X7445877Y-7862138D01*
X7421362Y-7861455D01*
X7363907Y-7866225D01*
X7311622Y-7881423D01*
X7262661Y-7907804D01*
X7215367Y-7945948D01*
X7177611Y-7987305D01*
X7150105Y-8031859D01*
X7131625Y-8079456D01*
X7119811Y-8138708D01*
X7119835Y-8197399D01*
X7119835Y-8197399D01*
G37*
X7119835Y-8197399D02*
X7130862Y-8254101D01*
X7152061Y-8307387D01*
X7182598Y-8355828D01*
X7221640Y-8397997D01*
X7268355Y-8432466D01*
X7321908Y-8457807D01*
X7358540Y-8468388D01*
X7418155Y-8475528D01*
X7476870Y-8471026D01*
X7533119Y-8455743D01*
X7585331Y-8430540D01*
X7631941Y-8396278D01*
X7671381Y-8353817D01*
X7702082Y-8304019D01*
X7715087Y-8272634D01*
X7725822Y-8230109D01*
X7731224Y-8182805D01*
X7731005Y-8135999D01*
X7724874Y-8094973D01*
X7724832Y-8094806D01*
X7707213Y-8043605D01*
X7681012Y-7997989D01*
X7644304Y-7954685D01*
X7639745Y-7950123D01*
X7595835Y-7912474D01*
X7550645Y-7885974D01*
X7501539Y-7869553D01*
X7445877Y-7862138D01*
X7421362Y-7861455D01*
X7363907Y-7866225D01*
X7311622Y-7881423D01*
X7262661Y-7907804D01*
X7215367Y-7945948D01*
X7177611Y-7987305D01*
X7150105Y-8031859D01*
X7131625Y-8079456D01*
X7119811Y-8138708D01*
X7119835Y-8197399D01*
D12*
X27305000Y-13970000D03*
D13*
X27305000Y-11970000D03*
D12*
X27305000Y-5715000D03*
D13*
X27305000Y-3715000D03*
D14*
X2540000Y-2540000D03*
D15*
X2540000Y-5080000D03*
X2540000Y-7620000D03*
X2540000Y-10160000D03*
X2540000Y-12700000D03*
X2540000Y-15240000D03*
D16*
X22225000Y-8890000D03*
M02*
